<svg xmlns="http://www.w3.org/2000/svg" width="220.85" height="327.28" viewBox="0 0 220.85 327.28"><title>intro-flourish</title><path d="M23.45,253.81c-1.92,1.94-.88,3.67-2.63,6.4,1.31-6.5-1.65-10.39-3.66-14.61C11.21,233.12,7,220.32,8.7,206.14c.43-3.59-1.8-7.34.33-12l8.18,27.7H18c0-4.81.57-9.71-.11-14.42-2-14.12.21-28.28-.9-42.39-.38-4.81-.65-9.63-1.05-14.44a5.75,5.75,0,0,0-.9-2.76c-8.65-12.07-13-25.67-14.85-40.28-.89-6.85,2.3-13.43.62-20.27C.21,84.64-.86,81.86,1.23,79c1.57,14.77,8.59,27.83,12.69,41.88a83.75,83.75,0,0,0,0-8.81c-2.53-23.84,3.27-46.18,13.73-67.13,9-18,24.11-28.39,44.91-29,5.8-.18,11.54,0,16.44-4.19,2.39-2.07,15.89-.36,17.77,1.75,1.33,1.5-.18,2-1.14,2.5-2.15,1.15-4.61,1.79-6.27,3.73.56,1.57,2,1.78,3.1,2.51,9.9,6.83,17,15.38,17.2,28.11,0,1.77,1.09,2.05,2.39,2.62,4.89,2.16,7.36,7.63,6.41,13.75-1.09,7-2.6,8.49-9.48,9.35l-1.49.18c-3.08.42-6.49,1.73-8.48-2s-.78-7,1.91-10c1.9-2.13,3.53-4.35-1.56-4.22-2.23.06-4.37-.93-5-3.42s1.25-4,3.1-5.17c1.68-1,3.52-2.25,5.4-2.47,4.87-.58,4.55-3.27,3.33-6.7-3.36-9.49-10-16.18-18.74-20.5C81,13.64,65.07,16.63,49.56,24.94c5.39.32,10.79-.61,16.05,1,1.54.47,3.81.2,4.23,2s-1.67,2.74-3,3.5c-5.64,3.11-10.49,7.66-17.2,8.85-4.34.77-8.47,1.7-12.5-1-2.6-1.77-4.06.15-5.07,2.18-10.75,21.47-17.34,43.8-15.71,68.26,1.45,21.73,5.22,43.33,4,65.23-.72,12.49.86,25,.64,37.42a141.76,141.76,0,0,0,3.32,33.15c1,4.71,2.47,9.34,3.89,13.95.6,2,1.15,4.14,4,5.48-.65-3.14,1.21-7.44.93-7.65-4.07-3.08-1-7.35-2.15-10.88-7.54-23.35-4-46.75.39-70.1,1.4-7.4,3.12-14.74,6.86-21.31,3.52-6.18,2.15-12.77,2-19.09-.16-7.91,3.41-14.08,7-20.46a2.37,2.37,0,0,1,1.41-1.2c1-.1,1.32.86,1.45,1.68a27.49,27.49,0,0,1-.13,9c-.35,2.09-1,4.17-.21,6.66,5.46-8,10.58-15.92,16.13-23.51,4.21-5.76,8.84-11.18,13.62-16.53A52.76,52.76,0,0,0,91.79,64.6c1.12-6.81-1.77-12.39-7.51-16.31s-11.16-2-16.4,1.06a24.4,24.4,0,0,0-9,8.5c-1,1.73-2.21,3.47-.28,5.39a2,2,0,0,1,.49,2.69,2.16,2.16,0,0,1-3.13.41c-2.06-1.24-3.49-.66-4.4,1.42a2.31,2.31,0,0,0,.31,2.79c.81.75,1.43-.09,2.16-.41,2.35-1,8.62,2.73,9.73,5.92,1.22,3.53-.59,5.22-3.86,6.14-1.2.34-2.21,1.38-3.29,2.14-3.65,2.57-10.78.16-12-4.13a4,4,0,0,1,2-4.73c2.56-1.38,3-3.05,2.21-5.69a3.72,3.72,0,0,1,.7-3.27c6-4.86,8-12.95,14.5-17.49,8.46-5.89,15.6-6.9,22.1-2.28,7.33,5.2,10.34,13.92,7.13,23-3.84,10.88-9.12,20.93-17,29.67A192.11,192.11,0,0,0,38,162.78c-6.42,17.63-7.88,36.37-8.65,55.05-.06,1.43-.3,3,1.21,4.68,2.84-42.48,27.74-71.26,58.1-96.64-10,10-20.37,19.85-28.55,31.72,10.29-7.47,20.68-14.67,33.29-17.55,6.65-1.52,13.44-2.69,20.28-1.69a8.17,8.17,0,0,0,7.3-1.95,24.15,24.15,0,0,1,5.58-3.23c1.54-.74,3.3-1.15,4.57.47,1.44,1.84-.2,3-1.21,4.29-.5.63-1,1.24-1.88,2.26,5.43,1.84,10.53,3.13,15.07,6.58,6.06,4.6,10.25,10.35,14.13,16.57,1.2,1.92,1.9,3.6,4.94,2.4,3.68-1.47,6,.91,4.54,4.55a8.62,8.62,0,0,0,0,7.07c1.55,4-.49,6.46-4.77,6.1a7.21,7.21,0,0,0-5.1,1.4c-2.33,1.63-4.74,1.59-6.82-.46s-1.61-4.75-.15-6.86,2.87-4,1.37-6.69a2.56,2.56,0,0,1,.9-3.17c3.67-2.6,1.64-4.79-.06-7.46-8.19-12.82-20.55-17.12-35-19.16-27.85-3.95-58.81,15.89-70.36,36.78-13.39,24.22-13.64,48.76-6.64,74.4a150.36,150.36,0,0,0,8.44,23c-2.16-8.56-1.17-17.1.55-25.38,2.57-12.35,8.38-22.71,21.13-27.46C73,221.28,76,220.5,79,221.08c3.89.75,7.5,1.76,8.13-4,.1-1,1.63-1.8,2.34-.88,2.06,2.66,5.34,3,7.86,4.71,3.19,2.13,3.26,5.74.19,7.81-2.17,1.46-3.3,2.88-3,5.63.18,2-.32,4.1-2.83,4.66-2.15.48-4,0-5.12-2-.87-1.59-2.55-2.07-3.94-2.94-2.81-1.78-3.56-4.15-1.16-6.61,3.51-3.59.15-3.81-2-3.92-8-.43-14.72,2.41-19.72,8.77C49.16,245.69,48,261,52.13,276.8a62.4,62.4,0,0,0,17,29.57c2,2,3.68,2.64,6.51,1.1,8.3-4.51,17.47-6.35,26.74-7.66.16,0,.33,0,.5,0,7.75-.45,14,3.17,15.12,8.69,1.16,5.92-3.69,12.35-10.88,14.81-13.35,4.56-26.23,3.77-38.35-3.59-3.7-2.24-6.35-1.53-9.38.89a70.56,70.56,0,0,1-10.14,6.71c2-4.06,6-6,9.33-8.42,2.67-2,3.58-3.28.23-5.81-12.49-9.42-20.14-22.46-26.09-36.57C29.59,269.13,25.71,262.13,23.45,253.81Z"/><path d="M176.94,49.89c.65-3.22,3.78-6.57,2.28-9.36s-5.81-1.43-8.84-2c-10-2-19.5-13.25-19.42-24.24C151,4,164.12-3.43,173.42,1.63,183.21,7,186.94,15.72,185,28.91c-1.22,8.5-.38,9.42,8.28,7.44,7.78-1.78,15.44-4.06,23.17-6.06,1.37-.35,2.69-1.38,4.36-.58-.88,2.12-2.93,2-4.54,2.49-10.16,3.18-20.34,6.34-31.07,6.93-2.44.13-3.45,1.53-4.06,3.66-.77,2.72-1.62,5.44-3.94,7.36ZM180,28.29c0-.83,0-1.66,0-2.48-.22-4.35-2.31-7.34-6.7-8-3.7-.53-7.7-.25-9.45,3.69-1.91,4.32,1.23,7.13,4.19,9.65a17,17,0,0,0,3.77,2.38C177.76,36.35,180.07,34.85,180,28.29Z"/><path d="M177.25,50.16a56.14,56.14,0,0,1-13.72,16.95c-6.67,5.55-7.64,11.87-4.9,19.3,1.46,4,1.17,7.83.43,11.78-.25,1.34-.78,2.73-2.23,3-2,.43-1.9-1.48-2.41-2.55-1.76-3.73-3.57-7.47-2.77-11.86-5.47,10.81,1,23.16,11.72,29.28,13.46,7.67,26.45,5.64,35.43-5.21a36.32,36.32,0,0,1-5,0c-2.23-.32-4.16-1.32-5-3.61s.93-2.93,2.3-3.83a2.06,2.06,0,0,0,.87-3c-1.31-2.48-.84-4.53,1.57-6,2.72-1.64,5.78-2.62,8.3-.15,2.24,2.19,3.59,2,5.68-.09,1.57-1.58,4-2.28,5.78-.25,1.6,1.8.79,4.12-.65,5.44-2.54,2.33-3.09,4.26-.69,7,1.34,1.55,1,3.51-.76,4.85a3.08,3.08,0,0,1-4.51-.26c-2.31-2.87-3.81-1.24-5.48.57-4,4.39-7.69,9.33-14.51,10.31a33.71,33.71,0,0,1,7.86,4.67c3,2.31,2.09,4-.84,4.85-4,1.23-8.29,1.78-12.08-.66-7.95-5.11-16-10.15-23.58-15.75-10-7.34-12.33-16.23-9.32-28.13a37.58,37.58,0,0,1,13.05-20.44c5.83-4.79,9.64-11.43,15.1-16.56Z"/></svg>