<svg xmlns="http://www.w3.org/2000/svg" width="322.09" height="270.86" viewBox="0 0 322.09 270.86"><title>intro-flourish-03</title><path d="M25.83,176.1c3.12-4.33,9-5.74,7.66-12.3-.26-1.28,3.5-1.74,4.56-4.18C49.17,134,69.94,117,91.44,100.79a7.26,7.26,0,0,1,1.68-1.07c10.33-4,17.63-11.45,24.31-20,3.7-4.72,9.51-6.58,15.06-8.47.91-.31,2-.84,2.75.13s0,1.89-.43,2.78c-1.94,4-6.31,5.86-9.36,10.48,6.17-1.75,11.41-3.33,16.71-4.72,10.93-2.87,21.81-5.75,33.1-7.26C184,71.52,191.93,67,199,61.67c5.85-4.44,7.89-10.61,6-17.78-1.95-7.37-8.13-9.18-14.52-10.33-4-.72-8,.11-11.84,1.18-1.58.43-3.27,1-3,3.33.15,1.22,0,2.43-1.48,2.77s-2.13-.62-2.71-1.71c-2.14-4-4-1.64-6.16.16,4.43,1.76,7.29,7.67,6.05,12a4.39,4.39,0,0,1-2.78,3.3c-5.75,1.83-13.34-3-14.54-8.82-.86-4.18,1.21-5.46,4.74-5.74,1.27-.1,2.87.73,3.68-.7,1.34-2.36,2.5-5,5.59-5.17,9.74-.56,19-6.31,29.23-2.08,6.47,2.68,9.85,7.25,10.53,13.89.77,7.47-1.53,14-7.83,18.36a81.17,81.17,0,0,1-32.62,13.06C136,82.8,106.07,92.16,80.86,112.58a184.88,184.88,0,0,0-28.23,28.2c-.55.69-1.6,1.28-.86,3.27,5.46-7.85,13.11-12.55,20.27-17.88,12.5-9.32,27.08-13.38,41.83-16.82,11.17-2.6,22.58-4.48,34.08-4.56,11.79-.08,23.58.65,35.38,1.06a2.41,2.41,0,0,1,1.64,1.2c-21.71-.48-43.35-.83-64.77,4.66,5.41.72,10.84,1.31,16.22,2.2a60.31,60.31,0,0,1,33.83,17.95c1.68,1.72,3.29,2.58,5.66,2.29,2.53-.31,5,.48,7.34,1.23,1.68.53,3.12,1.49,3.11,3.45,0,2.23-1.81,2.63-3.51,2.71-2.29.1-3.37.69-1.6,2.87,8,9.79,7.92,21.16,6.34,32.76-.4,2.94-1.22,5.24,3,6.3,2.78.71,2.85,4.85,0,6.31a9.3,9.3,0,0,0-5.17,6c-1.08,3.41-4.48,4.07-7,1.57-1.71-1.67-3.69-2-5.76-2.65-2.39-.7-4.25-2.2-4.4-4.85a5.13,5.13,0,0,1,4.27-5.44c2.64-.64,4.61-1.58,5.45-4.36a2.35,2.35,0,0,1,2.34-1.63c5.23.51,4.78-3.08,5.06-6.49,1.08-13.25-2.86-24.51-12.5-33.83-4.87-4.71-8.95-10.32-15.56-12.92-.26.32-.63.58-.61.79.26,2.12,1.09,4.33-.53,6.22a1.81,1.81,0,0,1-2.69-.17c-2-1.92-3.43-4.38-2.84-7.12.46-2.18,1-3.52-1.71-4.55-30.48-11.64-58.48-5.52-81.71,13.91-16.2,13.55-24.8,31.79-32.06,50.93a56.23,56.23,0,0,0-2.85,9.19c3.7-6.88,9.33-12,14.74-17.32a41.77,41.77,0,0,1,10.68-7.27c5.06-2.58,11.13-2.59,15.26-7.77,2.53-3.18,7.77-2.38,11.76-3.49a2.16,2.16,0,0,1,1.8.43c.72.73.15,1.55-.36,2.21a20,20,0,0,1-5.95,5.26c5.26,2.49,10,5.05,13.12,9.85,1.48,2.31,2.84.43,4.08-.5,2.93-2.21,4.68-1.89,4.45,2.15-.11,1.92,1.13,3,1.94,4.43,2.56,4.52.33,8.51-4.84,8.38-2.25-.06-3.82.44-5.16,2.2s-3.12,3.05-5.57,1.68c-2-1.12-3-2.64-2-5a3.28,3.28,0,0,0,0-2.39c-2.48-7.38-2.23-7.78,5-8.74-2.88-7.52-15-11.05-22.71-9.36-9.78,2.16-17.39,7.21-24.32,14.57-12.73,13.5-16.48,29.51-16,47.23.1,3.59,1,5.38,5.29,6.08,9.32,1.51,17.58,6.2,25.24,11.51,7.29,5.06,8.74,12.49,4.43,18.06-3.07,4-9,5.34-15.13,3.3-12.63-4.24-22.21-12.15-27.13-24.66-2.23-5.68-5.11-8.83-11.55-8.46C6.27,237,3,237,0,235.9c.29-2.1,1.85-1.9,3.07-1.9,2.16,0,4.32.2,6.48.32,6.91.39,7,.38,5.81-6.62-2.54-15,0-29.52,4.45-43.83,2.14-6.95,3.55-14.1,6.66-21-2.56,0-2.72,2.47-5.36,3,6.33-6.77,5.7-15.34,8.47-22.8,3.51-9.45,7.36-18.52,15.34-25.26,1.55-1.31,2.15-3.69,3.3-5.51,1.36-2.17,2.53-4.57,5.62-5.27-4.36,9-7.66,18.41-11.57,27.62,4-4.55,8.42-8.67,11.66-13.83a136.25,136.25,0,0,1,16.46-20.67c6.39-6.8,11.41-14.72,16.87-22.28a5.32,5.32,0,0,0,.81-2.8c1.51-16.13,6.17-31.57,17.31-43.26,5.75-6,10-13.09,16.15-18.87-7.75,12.28-11,26.31-17.15,39.55,2.76-.42,3.56-2.59,4.63-4.16C121.53,30,138.53,17.12,158,6.74,170.57,0,183.34-1.21,197,1c9.52,1.55,16.74,7.05,24,12.74,2.83,2.23,5.24,4.63,9.62,4,4-.56,6.51,2.79,8.73,5.81a8.81,8.81,0,0,1,1.17,1.61c1,2.42,4.77,4.44,3.77,6.45s-4.41-.23-6.78-.36c-3.34-.18-2.51,1.89-2,3.62,2.24,7.51,2.71,15,.47,22.63-.38,1.28-.8,2.54-1.28,3.78-1.69,4.35-5.78,7.5-2.74,13.69,2.15,4.38-5,12.71-10.29,14.36-3,.92-12.94-4.42-14.3-7.65-1.18-2.83,1.29-7.43,4.76-8.92,2.09-.9,4.78.23,6.53-2,0-.28.06-.76-.1-.87-2.8-1.89-5.34-4.2-3.46-7.76,1.77-3.37,5.26-1.86,8.14-1.64a7.49,7.49,0,0,1,1.93.51c6.63,2.41,6.79,2.33,8.93-4.72,3.78-12.46-1.52-30.35-11.66-38.67-8.35-6.85-16.83-13.58-29.14-14.39,3.81,3.85,8.17,6.18,11,10.08,1.13,1.57,3.54,3.1,2.59,5s-3.55.92-5.52.79c-6.86-.45-13.54-1.34-19.68-4.91-3.12-1.81-6-3.54-7-7.29-.78-2.94-2.57-3.6-5.29-2.38-16.38,7.29-31.79,16-44.42,29.05-13.76,14.24-23.79,31.2-35.06,47.27a224.47,224.47,0,0,1-20.74,25,76.66,76.66,0,0,0-9.93,12.5c-6.6,10.81-16.69,19-22.55,30.42q-5,9.79-9.74,19.7A10.17,10.17,0,0,0,25.83,176.1Z"/><path d="M235.24,110.34c-4-1.28-7.57,0-10.63-2,13.78.67,27.29-2.18,41-2.47a18.49,18.49,0,0,1-11.67,3c-8.81-.41-13.48,4.23-16.39,11.7a21.88,21.88,0,0,1-7.34,9.27c-1,.82-2.4,1.43-3.68.48s-.34-2.1,0-3.16c.77-2.67,1.54-5.34,2.36-8.21-7.93,3.95-10.54,15-6.8,26.07,5.16,15.26,17.08,21.7,30.15,19.52a30.65,30.65,0,0,1-3.8-3.86c-2.54-3.69-1-6.63,3.44-6.72,1.27,0,2.4.13,2.69-1.41.54-2.84,1.88-4.67,5.08-4.1s5.82,1.92,6.39,5.4c.41,2.47,1.61,3.29,4,3.32,2.16,0,4.76.44,5,3.1.34,3.08-2.36,4.64-4.71,4.9-3,.34-4.33,1.18-4.39,4.35a3.43,3.43,0,0,1-3.69,3.36c-2.09,0-3.66-1.28-3.59-3.38.11-3.56-2.27-2.64-4-2.41-5.8.76-11.57,1.45-17.72-1.61a42.09,42.09,0,0,1,2,5.08c.51,2.17,2.28,4.91.13,6.5-1.91,1.41-4.45-.44-6.45-1.41a9.65,9.65,0,0,1-5.26-5.78c-3-10-6.52-19.88-8.71-30-2.43-11.29,2.25-20.11,12-26.26C231.89,112.68,233.22,111.72,235.24,110.34Z"/><path d="M322.09,116.28c-2.22,1.36-3.58,0-5-.57-10.05-4-20-8.35-28.76-14.79-2-1.47-3.56-.9-5.44.24-4.47,2.73-9.17,4.9-14.65,4.47,3.74-2,7.87-2.92,11.62-4.87,3.39-1.76,4.15-3.22,1-6.1-6.24-5.73-9.18-12.94-8.31-21.45,1.37-13.39,10.26-22.83,24.69-15.87,7,3.35,9.8,16.3,5.91,25.05-2.25,5.06-6.1,8.76-10.37,11.92-3.76,2.78-3.16,4.56.25,6.94,6.59,4.61,13.86,7.84,21.26,10.8C317,113.15,319.86,113.86,322.09,116.28ZM279.87,82.09c1.06,4.21,1.62,9.66,6.25,10.46,4.19.73,6.17-4.23,8-7.64s.52-6.49-2.12-8.92-5.81-3.66-9.13-2.18C279.37,75.39,280.06,79,279.87,82.09Z"/></svg>