<?xml version="1.0" encoding="utf-8"?>
<!-- Generator: Adobe Illustrator 21.0.2, SVG Export Plug-In . SVG Version: 6.00 Build 0)  -->
<svg version="1.1" id="Layer_1" xmlns="http://www.w3.org/2000/svg" xmlns:xlink="http://www.w3.org/1999/xlink" x="0px" y="0px"
	 viewBox="0 0 262.2 258" style="enable-background:new 0 0 262.2 258;" xml:space="preserve">
<title>intro-flourish-02</title>
<path d="M229.2,153.5c-3.7-6.3-7.6-12.5-11.5-18.7c-6.9-10.8-17.7-18.1-25.3-28.2c-3.3-4.2-6.9-8.1-11-11.5
	c-8.2-7.1-15.9-14.8-22.9-23c-12.7-15-24.2-30.9-39.2-43.9C105.5,16.4,89.4,9.1,72.4,3.4c-2.8-1-4.5-0.1-5.1,2.9
	c-0.6,3.8-3.4,5.8-6.3,7.9c-5.8,4.1-12.4,5.6-19.1,6.7c-2,0.3-4.4,1.5-5.6-0.3s1.1-3.5,2.1-5.2c2.4-4.1,6.6-6.8,10-11
	c-12.2,1.9-20,9.4-27.7,17c-9.3,9.2-13,27.5-8.1,39.6c2.8,6.8,2.9,6.9,9.3,3.9c0.6-0.3,1.2-0.5,1.9-0.7c2.8-0.5,6.2-2.3,8.3,0.9
	c2.2,3.3-0.1,5.9-2.7,8c-0.1,0.1,0,0.6,0,0.9c1.9,2,4.5,0.7,6.7,1.3c3.6,1.2,6.5,5.5,5.6,8.4c-1.1,3.3-10.5,9.6-13.5,8.9
	c-5.4-1.2-13.3-8.8-11.6-13.4c2.4-6.4-1.9-9.2-4-13.4c-0.6-1.2-1.1-2.4-1.6-3.7C8,54.8,7.7,47.3,9.3,39.6c0.4-1.8,1-3.9-2.3-3.4
	c-2.4,0.4-5.5,2.9-6.7,1s2.4-4.3,3.2-6.8c0.3-0.6,0.6-1.2,1-1.7c1.9-3.2,4.2-6.8,8.2-6.6c4.4,0.2,6.6-2.4,9.2-4.9
	c6.7-6.3,13.3-12.5,22.7-14.9c13.4-3.5,26.2-3.4,39.4,2.1c20.3,8.6,38.4,19.8,52.6,36.9c1.2,1.5,2.2,3.5,5,3.7
	c-7.3-12.6-11.9-26.3-20.7-37.8c6.7,5.2,11.5,11.8,17.8,17.3c12.2,10.6,18.2,25.6,21.2,41.5c0.1,1,0.5,1.9,1.1,2.7
	c6.1,7,11.8,14.4,18.8,20.6c6.7,5.8,12.8,12.2,18.3,19.1c3.7,4.8,8.5,8.6,12.9,12.7c-4.7-8.8-8.9-17.9-14.1-26.4
	c3.1,0.4,4.5,2.7,6.1,4.7c1.3,1.7,2.1,4,3.8,5.2c8.6,6,13.2,14.7,17.6,23.8c3.4,7.2,3.6,15.8,10.5,21.9c-2.7-0.3-3.1-2.7-5.6-2.5
	c3.7,6.6,5.8,13.6,8.6,20.3c5.7,13.8,9.6,28,8.4,43.2c-0.5,7.1-0.5,7.1,6.4,6.1c2.1-0.3,4.3-0.7,6.4-0.9c1.2-0.1,2.7-0.5,3.2,1.6
	c-2.9,1.4-6.2,1.6-9.2,1.8c-6.4,0.2-9,3.6-10.7,9.5c-3.8,12.9-12.6,21.6-24.8,27c-5.9,2.6-11.9,1.8-15.4-1.9
	c-4.8-5.1-4.1-12.7,2.8-18.4c7.1-6,14.9-11.4,24.1-13.8c4.2-1.1,5-3,4.7-6.5c-1.1-17.7-6.3-33.3-20.2-45.6
	c-7.6-6.7-15.6-11-25.6-12.3c-7.8-1-19.6,3.6-21.8,11.4c7.3,0.2,7.6,0.7,5.8,8.2c-0.2,0.8-0.2,1.6,0.2,2.4c1.1,2.2,0.3,3.8-1.6,5.1
	c-2.3,1.6-4.2,0.5-5.7-1.2c-1.5-1.6-3.1-2-5.3-1.7c-5.1,0.6-7.7-3.2-5.6-7.9c0.7-1.5,1.8-2.7,1.5-4.6c-0.6-4,1.1-4.5,4.2-2.6
	c1.3,0.8,2.8,2.6,4.1,0.1c2.6-5,7.2-8,12.2-11c-2.4-1.1-4.6-2.7-6.4-4.7c-0.6-0.6-1.2-1.4-0.6-2.2c0.5-0.4,1.1-0.7,1.8-0.6
	c4,0.7,9.2-0.5,12,2.4c4.6,4.8,10.6,4.2,15.9,6.3c4.1,1.5,7.9,3.6,11.3,6.3c5.9,4.8,11.9,9.4,16.3,15.9c-1-3.1-2.2-6-3.7-8.9
	c-9-18.4-19.2-35.8-36.6-47.8c-24.9-17.2-53.4-20.7-82.6-6.4c-2.6,1.3-1.9,2.6-1.3,4.7c0.8,2.7-0.3,5.2-2.2,7.3
	c0,0.1-0.1,0.1-0.1,0.2c-0.6,0.8-1.8,0.9-2.5,0.3c-1.8-1.7-1.2-4-1.1-6.1c0-0.2-0.4-0.4-0.7-0.7c-6.3,3.2-9.9,9.2-14.3,14.3
	c-8.8,10.2-11.6,21.7-9.4,34.8c0.6,3.4,0.5,7,5.6,6c1.1-0.1,2.1,0.4,2.5,1.4c1.1,2.7,3.1,3.5,5.8,3.9c2.6,0.2,4.7,2.4,4.8,5
	c0.1,2.6-1.6,4.3-3.9,5.2c-2,0.8-3.9,1.4-5.5,3.2c-2.3,2.7-5.8,2.4-7.2-0.9c-1-2.6-3.1-4.6-5.7-5.5c-2.9-1.2-3.2-5.3-0.5-6.3
	c4.1-1.4,3-3.6,2.4-6.5c-2.6-11.4-3.7-22.7,3.3-33.2c1.6-2.3,0.4-2.8-1.9-2.7c-1.7,0.1-3.5-0.1-3.7-2.4c-0.2-1.9,1.1-3,2.8-3.7
	c2.3-1,4.6-2,7.2-1.9c2.4,0.1,3.9-0.9,5.4-2.8c8.1-10.3,19.3-17.7,32-21c5.3-1.4,10.7-2.5,16-3.7c-21.8-3.5-43.3-1.2-64.9,1.3
	c0.5-0.8,1-1.3,1.5-1.3c11.7-1.5,23.4-3.3,35.1-4.3c11.5-1,23-0.2,34.4,1.4c15,2.1,29.9,4.8,43.3,12.7c7.6,4.7,15.7,8.7,21.8,16
	c0.6-2.1-0.5-2.5-1.2-3.2c-9.3-9.6-19.6-18.1-30.7-25.5c-27-18-57.6-24.6-89.3-27.1c-11.8-0.8-23.3-4.2-33.7-10
	C40.8,61.9,37.9,55.6,38,48c0.1-6.7,3-11.5,9.2-14.8c9.8-5.1,19.5-0.3,29.3-0.6c3.1-0.1,4.4,2.4,6,4.6c0.9,1.4,2.4,0.4,3.7,0.4
	c3.5,0,5.7,1,5.2,5.3c-0.7,6-7.8,11.4-13.7,10.1c-1.5-0.4-2.6-1.5-3.1-3c-1.6-4.2,0.7-10.4,4.9-12.5c-2.3-1.6-4.4-3.8-6.1,0.4
	c-0.5,1.1-1.1,2.1-2.5,2s-1.7-1.4-1.7-2.6c0.1-2.3-1.7-2.7-3.3-3c-3.9-0.7-8-1.2-11.9-0.1c-6.3,1.7-12.3,4.1-13.5,11.6
	c-1.2,7.3,1.4,13.3,7.6,17.1c7.5,4.7,15.8,8.4,24.7,8.8c11.4,0.5,22.5,2.3,33.6,4.2c5.4,0.9,10.8,2,17.1,3.2
	c-3.5-4.3-8-5.7-10.3-9.6c-0.5-0.9-1.3-1.7-0.7-2.7s1.8-0.6,2.7-0.4c5.7,1.4,11.7,2.7,15.8,7.1c7.4,7.9,15.3,14.7,26,17.7
	c0.6,0.2,1.2,0.5,1.8,0.9c22.9,14.2,45.1,29.2,58.6,53.7c1.3,2.3,5.1,2.5,4.9,3.7c-0.7,6.7,5.3,7.6,8.8,11.6
	C231.4,158.4,230.7,155.7,229.2,153.5z"/>
</svg>
