<svg xmlns="http://www.w3.org/2000/svg" width="262.19" height="258" viewBox="0 0 262.19 258"><title>intro-flourish-02</title><path d="M31.2,161c3.5-4,9.5-4.89,8.76-11.55-.14-1.29,3.64-1.41,4.92-3.74,13.42-24.5,35.66-39.47,58.56-53.69a7.26,7.26,0,0,1,1.77-.91c10.65-3,18.61-9.79,26-17.65,4.12-4.36,10.07-5.68,15.77-7.06.94-.23,2.08-.65,2.73.38s-.18,1.88-.69,2.73c-2.3,3.84-6.82,5.26-10.28,9.58,6.3-1.18,11.67-2.27,17.07-3.17,11.15-1.86,22.24-3.73,33.62-4.2,8.82-.37,17.12-4.1,24.66-8.8,6.23-3.89,8.83-9.84,7.6-17.15-1.26-7.52-7.25-9.88-13.52-11.61-3.91-1.08-8-.62-11.9.09-1.61.29-3.35.74-3.28,3,0,1.23-.25,2.42-1.73,2.62s-2.06-.81-2.54-1.95c-1.77-4.18-3.81-2-6.15-.41,4.25,2.15,6.55,8.31,4.92,12.54a4.39,4.39,0,0,1-3.08,3c-5.9,1.3-13-4.17-13.67-10.12-.47-4.24,1.71-5.33,5.24-5.29,1.28,0,2.79,1,3.73-.36,1.55-2.22,2.95-4.74,6-4.63,9.75.34,19.51-4.55,29.3.6,6.2,3.26,9.14,8.12,9.21,14.8.08,7.51-2.81,13.85-9.48,17.57a81.17,81.17,0,0,1-33.68,10c-31.71,2.48-62.35,9.06-89.32,27.09a184.88,184.88,0,0,0-30.69,25.49c-.61.63-1.71,1.12-1.15,3.18,6.15-7.31,14.2-11.29,21.82-16C95.1,107.41,110,104.7,125,102.63c11.36-1.57,22.89-2.39,34.35-1.42,11.75,1,23.43,2.8,35.13,4.3.56.07,1.07.58,1.53,1.35-21.58-2.47-43.1-4.8-64.92-1.29,5.32,1.22,10.68,2.3,16,3.68a60.31,60.31,0,0,1,32,21c1.52,1.86,3,2.87,5.43,2.8,2.55-.07,4.89.93,7.2,1.9,1.63.68,3,1.77,2.78,3.72-.21,2.22-2,2.46-3.74,2.37-2.29-.11-3.42.38-1.85,2.71,7,10.48,5.95,21.8,3.31,33.21-.67,2.89-1.7,5.11,2.36,6.54,2.7,1,2.4,5.09-.54,6.28a9.3,9.3,0,0,0-5.7,5.53c-1.39,3.3-4.83,3.65-7.16.92-1.55-1.81-3.49-2.38-5.49-3.17-2.31-.91-4-2.58-3.94-5.23a5.13,5.13,0,0,1,4.75-5c2.69-.4,4.74-1.15,5.83-3.85a2.35,2.35,0,0,1,2.48-1.41c5.16,1,5-2.63,5.63-6,2.29-13.09-.6-24.67-9.35-34.83-4.42-5.14-8-11.1-14.31-14.29-.29.3-.68.52-.68.73.07,2.14.69,4.41-1.09,6.14a1.81,1.81,0,0,1-2.67-.42c-1.84-2.1-3-4.68-2.18-7.35.66-2.12,1.31-3.42-1.29-4.69-29.28-14.38-57.73-10.86-82.64,6.36-17.37,12-27.61,29.39-36.59,47.77a56.23,56.23,0,0,0-3.68,8.89c4.32-6.51,10.39-11.09,16.27-15.9a41.77,41.77,0,0,1,11.3-6.26c5.27-2.1,11.32-1.56,15.91-6.34,2.81-2.93,8-1.66,12-2.4a2.16,2.16,0,0,1,1.75.59c.65.8,0,1.56-.56,2.17a20,20,0,0,1-6.4,4.69c5,3,9.54,6,12.16,11,1.26,2.44,2.79.69,4.11-.13,3.12-1.93,4.83-1.45,4.23,2.55-.29,1.9.85,3.1,1.52,4.59,2.13,4.73-.45,8.5-5.59,7.9-2.24-.26-3.85.09-5.34,1.72s-3.39,2.75-5.7,1.16c-1.89-1.3-2.7-2.9-1.57-5.12a3.28,3.28,0,0,0,.19-2.39c-1.79-7.57-1.5-8,5.76-8.25-2.17-7.75-14-12.38-21.76-11.4-9.93,1.25-18,5.58-25.56,12.28-13.91,12.28-19.12,27.87-20.23,45.57-.23,3.58.54,5.46,4.72,6.54,9.14,2.36,16.94,7.79,24.08,13.78,6.8,5.7,7.56,13.24,2.75,18.39-3.42,3.66-9.48,4.49-15.36,1.9-12.19-5.38-21-14.13-24.75-27-1.7-5.87-4.28-9.26-10.72-9.48-3-.1-6.25-.33-9.16-1.75.49-2.07,2-1.72,3.23-1.62,2.15.19,4.28.6,6.42.92,6.85,1,6.93,1,6.39-6.06-1.15-15.2,2.74-29.4,8.44-43.23,2.77-6.72,4.83-13.72,8.55-20.3-2.55-.22-2.93,2.21-5.61,2.51,6.92-6.16,7.08-14.76,10.52-21.93,4.36-9.09,9-17.77,17.59-23.75,1.66-1.16,2.48-3.48,3.79-5.19,1.56-2,2.94-4.31,6.08-4.74-5.17,8.58-9.32,17.63-14.05,26.44,4.37-4.16,9.18-7.87,12.88-12.71A136.25,136.25,0,0,1,82.51,89.48c7-6.19,12.72-13.62,18.84-20.64a5.32,5.32,0,0,0,1.06-2.72c3-15.93,9-30.87,21.2-41.49,6.28-5.48,11.16-12.12,17.82-17.31-8.84,11.52-13.4,25.19-20.7,37.81,2.79-.17,3.79-2.25,5-3.71C139.88,24.28,158,13.05,178.3,4.49c13.17-5.55,26-5.59,39.41-2.12,9.34,2.41,16,8.56,22.68,14.88,2.61,2.48,4.8,5.09,9.22,4.88,4-.19,6.23,3.37,8.16,6.59a8.81,8.81,0,0,1,1,1.71c.79,2.51,4.34,4.86,3.16,6.77s-4.37-.63-6.72-1c-3.31-.49-2.68,1.65-2.32,3.42,1.55,7.68,1.32,15.22-1.6,22.58-.49,1.24-1,2.46-1.62,3.65-2.08,4.17-6.45,6.93-4,13.38,1.74,4.56-6.16,12.2-11.56,13.36-3,.65-12.48-5.59-13.53-8.93-.92-2.92,2-7.28,5.56-8.45,2.17-.7,4.74.66,6.68-1.35,0-.28.13-.76,0-.88-2.61-2.13-4.93-4.67-2.73-8,2.07-3.19,5.41-1.38,8.26-.89a7.49,7.49,0,0,1,1.87.69c6.38,3,6.54,2.95,9.32-3.88,4.91-12.06,1.27-30.37-8.07-39.57-7.69-7.58-15.52-15.06-27.7-17,3.44,4.19,7.57,6.91,10,11,1,1.66,3.24,3.41,2.12,5.2s-3.62.59-5.57.29c-6.79-1.08-13.36-2.58-19.14-6.69-2.94-2.09-5.68-4.08-6.32-7.9-.51-3-2.23-3.82-5.05-2.86-17,5.75-33.12,13-46.89,24.86-15,12.92-26.55,28.89-39.24,43.86a224.47,224.47,0,0,1-22.94,23,76.66,76.66,0,0,0-11,11.54C62.16,116.76,51.36,124,44.48,134.82Q38.6,144.11,33,153.54A10.17,10.17,0,0,0,31.2,161Z"/></svg>