<svg xmlns="http://www.w3.org/2000/svg" width="67.03" height="14.07" viewBox="0 0 67.03 14.07"><title>main-menu</title><path d="M0,12.77H1.87L2.39,1H.48V0H3.67L8.31,10.14,13,0h3.15V1H14.21l.52,11.72h1.87v1H11.78v-1h1.81L13.21,2,8.52,12H8.06L3.38,2,3,12.77H4.81v1H0Z" fill="#212121"/><path d="M20.92,12.77h1.85V1H20.92V0h9.91V3.13H29.67V1H24V6.24h4.68v1H24v5.48h5.71V10.69h1.15v3.13H20.92Z" fill="#212121"/><path d="M38.45,2V12.77H40.3v1H35.47v-1h1.85V1H35.47V0h2.9l8.5,11.36V1H45V0h4.77V1H48V13.88h-.67Z" fill="#212121"/><path d="M55.31,9.18V1H53.47V0h4.89V1H56.47v8c0,2.62,1.36,3.91,3.76,3.91S64,11.72,64,9.11V1H62.14V0H67V1H65.18v8c0,3.13-1.83,5-5,5S55.31,12.24,55.31,9.18Z" fill="#212121"/></svg>