<svg xmlns="http://www.w3.org/2000/svg" width="377.02" height="157.35" viewBox="0 0 377.02 157.35"><title>menu</title><path d="M89.12,94.13c-5.85,1.61-4.72,5.53-4.07,9.63,1.54,9.64,4.67,19.16,2.31,29.15-1.3,5.51-3.07,10.63-8.49,13.41-1.4.72-3.66,1.74-4.36-.26s1.84-1.75,3.08-2.21c3-1.08,4.39-3.34,5.34-6.17,2.44-7.29,2.27-14.74,1.44-22.21-.26-2.3-1.16-4.52-1.49-6.82-1-6.93-2.26-12.6-10.23-16.22-7.72-3.5-7.17-8.84-.85-19,5.33-8.55,3.44-17-5.26-22.19C61,48,55,45.95,48.49,46.28c-6.22.31-8,2.88-6,8.72,1.83,5.36,3.91,10.62,5.13,16.18.83,3.77,2.28,6.23,6,2.16a1.85,1.85,0,0,1,2.3-.6c.59,2-1.22,2.76-2.25,3.28-4.2,2.12-4,5.29-3.17,9.21,1.47,6.65,2.06,13.49,4.33,20,.32.91.69,2.33.24,2.91-5.45,7.2-5.59,18.15-15.56,22.15a4.36,4.36,0,0,1-1.46,0c-.4-2.07,1.34-2.6,2.43-3.3,6.93-4.42,8.39-11.55,8.26-18.72-.09-5.33.19-10.59.38-15.88A32.61,32.61,0,0,0,49,87.9c-.35-3.38-.71-6.5-5.65-6-1.82.18-3.93-.28-5.91-.37-4.59-.21-8.75-1.66-10.85-5.93-2.31-4.7-2.54-9.71.67-14.26a62,62,0,0,1,6.6-8.14c2.33-2.33,2.9-4.58,1.63-7.6-1.68-4-3.2-8-4.65-12.12-1.14-3.22-3.2-3.94-6.23-2.81-2.65,1-5.28,2.08-8,2.88-6.66,2-11.93-.86-14.26-7.32C.77,21.84.84,17.1.06,12.59c-.64-3.71,4.35-6.23,7-9C12.54-2.06,19-.9,23.07,6a78.73,78.73,0,0,1,6.28,13.6c1.85,5.11,4.1,5.44,7.6,1.28a23.91,23.91,0,0,0,4.42-10.12c2.46,1.42,1.91,3.31,1,5.07a35.3,35.3,0,0,1-6.07,9.08c-4,4.13-1.94,17.05,2.82,19.94,1.35.82,2.52.31,3.81-.08,12.95-3.89,28.51,3.5,33.52,16.18,1.19,3,2,3.7,5.2,2.16,13.64-6.49,21.93-2.51,25.66,12.19,2.39,9.4,1.47,19.18,2.85,28.75,1.23,8.49,4.59,15.93,11.09,20.5a21.87,21.87,0,0,0,21.4,2.2,41.61,41.61,0,0,0,15.88-12.66c3.51-4.39,2.66-14-1.59-20.19-4-5.8-6.19-6.31-12.26-2.46a75.63,75.63,0,0,0-7.62,5.63c-2,1.68-3.17,4-2.41,6.66.6,2.13.92,5.29,4.09,4.59,2.67-.59,5.4-2.09,5-5.82-.16-1.52-1.47-3.77.83-4.23,1.85-.37,3.14,1.73,3.9,3.37,1.43,3.1.42,5.95-1.75,8.26-2.81,3-8.79,3.54-13.16,1.49s-5.76-6-5.53-10.32c.41-7.84,13.51-18.86,21.3-18.21s13.36,6.74,16,14.44c3.77,10.93-7,25.3-16.89,30.28-8.86,4.44-17.7,4.53-26,.62a25,25,0,0,1-14-18.93c-1.29-7.85-2.5-15.77-2.08-23.85a30.74,30.74,0,0,0-4.08-16.8c-4.34-7.7-17.53-8.21-22.72-1-1,1.41-.77,2.83-.44,4.29,1.38,6.17,3,12.31,4.12,18.52C83.89,93.73,86.9,92.56,89.12,94.13ZM15,31.61c3.05-1.14,7.27-2.62,11.39-4.32,1.7-.7,1.74-2.45,1.11-3.89C25,17.62,22.58,11.76,19.6,6.22c-2-3.74-6-4.51-8.3-1.94C6.51,9.59,2.9,15.43,4.35,23.16,5.38,28.66,8.47,31.58,15,31.61ZM38.06,79.19a15.69,15.69,0,0,0,6.31-1.35c1.34-.54,2.45-1.31,1.93-3C44.75,70,43.37,65,41.45,60.22c-1.21-3-4.56-3.5-7.16-2.87s-3.85,3.1-3,6a7.91,7.91,0,0,1-1.59,7.93c-1.82,2.13-1.1,3.93.9,5.54A10.94,10.94,0,0,0,38.06,79.19ZM79.7,88.3C78.84,84,77.95,79.5,77,75c-.25-1.22-.63-2.36-2.29-1.4-4.83,2.78-5.27,14.51-.63,17.81,1.35,1,2.84,2.12,4.55,1.29S79.15,89.95,79.7,88.3Z"/><path d="M232,149.48c14.61-13.41,15.17-30.93,15-48.67,0-2.52-1.51-3.41-3.78-3.74a14.15,14.15,0,0,1-7.72-3.23c-6.54-5.87-6.76-13.19.32-19.26,3.56-3,3.49-5.93,1.69-9.09-1.93-3.4-4.63-1.48-7.25-.31-3.93,1.76-7.4-.18-9.91-2.83a8.31,8.31,0,0,1-1.28-10.2A13.16,13.16,0,0,1,224.4,47c3.26-1.69,6.39-2,8.38,2.07.58,1.18,1.59,2.15,2.19,3.33,1.61,3.17,3.43,5,6.59.78a6.33,6.33,0,0,1-.77,6.53c-2.11,3.28-.82,6.23,1,8.8s4.32.63,6.42.08c10.64-2.79,17.94,1.24,20.84,11.93,2.09,7.67,1.74,15.52.77,23.3-.85,6.85-1.89,13.88,1.93,20,6.86,10.94,14.35,16.89,27.75,10.42,6-2.91,6.56-5.25,2.25-10.38-.48-.57-.83-1.1-.26-1.7s1.18-.35,1.82-.07c3.37,1.5,4.86,8.2,2,10.65-7.19,6.23-15.64,9.21-25,6.56-8.19-2.33-12.67-8.31-14.31-16.9-1.73-9.1-2.52-18.06-1.11-27.26a54.63,54.63,0,0,0,.17-11.47c-.43-7.1-4.28-10.19-11.22-9.22-1.81.25-3.57.81-5.36,1.21-2.94.65-4.3,2.23-3.46,5.38.51,1.92.66,3.94,1.13,5.88.69,2.84,2.32,4.36,5.46,3.53.91-.24,2-1,2.74,0a1.92,1.92,0,0,1-.66,2.65c-4.66,3.21-3.81,7.71-3.73,12.49.17,10.19-1.82,20.23-4.67,30-1.57,5.34-5.27,9.57-9.79,12.93C234.54,149.25,233.53,150.18,232,149.48Zm-5.1-87.81c3.44,0,6.85-2.1,6.85-4.06,0-2.23-4.93-6.13-7.64-6.06-3.34.08-5.45,1.76-5.61,5.08C220.27,61.16,223.89,61.21,226.88,61.67Zm17,28c-.3-1.46-.48-2.95-.92-4.36-.64-2.09.29-5.45-2.31-5.94-2.23-.42-3.49,2.64-5.18,4.16-2.18,2-1.41,3.73.3,5.5,2.07,2.14,4.44,3.51,7.5,2.75C244.25,91.55,244.16,90.5,243.92,89.67Z"/><path d="M324.51,70.84c2.92,1.26,2.93,3.2,3.08,4.94.53,6.12,1.29,12.2.79,18.4-.57,7.07.91,14,3.28,20.59,4.12,11.42,14.92,13.44,27.22,11.49,3.52-.56,6.79-2.66,10.18-4.07a3.71,3.71,0,0,0,.87-.49c2.62-2.06,5.16-4.54,2.94-8-2.58-4-5.07-.58-7.42.52-.15,3.13,3.67-.54,3.21,2.2a2.9,2.9,0,0,1-3.81,2.33c-2.13-.63-4.79-1-4.75-4.18,0-2.84.75-5.48,3.6-6.57,3.22-1.23,6.75-2.9,10-.27,2.7,2.22,4.15,5.34,3,8.92-1.91,5.71-4.7,10.48-11.28,12.19-5.81,1.52-11.51,3-17.61,2.69-9.35-.52-15.47-5.42-19.19-13.69-1.43-3.18-2-5.8-6.39-2-2.74,2.36-7.69,2.4-11-.86s-6.23-6.95-7.6-11.54a93.35,93.35,0,0,1-3.39-29.65c0-1.26-.39-2.95,1.22-3.47,1.34-.44,1.84,1.13,2.7,1.83,3.33,2.72,2.57,6.66,2.89,10.19.47,5.13.62,10.29.84,15.43.16,3.83,2,7,3.89,10.13,1.77,2.95,4,5.28,7.67,4s6-4.16,5.5-8c-1.07-8.31.77-16.61-.3-24.91A66.77,66.77,0,0,1,324.51,70.84Z"/><path d="M174.92,101.21c-.63-2.92.28-5.41.14-7.85-.53-9.11,6.08-12.53,12.55-15.83a8.68,8.68,0,0,1,9.49.7,11.73,11.73,0,0,0,2.57,1.48c1.35.55,3.68-1.37,4.1,1.29.3,1.87-1,3.39-2.35,4.73-6.09,5.9-12,12-18.26,17.71-2.33,2.13-1.89,3.22.06,5.07,7.8,7.39,15.66,6.9,24,3.37,2.42-1,4.29-2.9,3.77-5.81s-2.81-3.37-5.37-2.9c-.66.12-1.4.34-1.78-.38a1.86,1.86,0,0,1,.59-2.23,5,5,0,0,1,6.34-1.15c2.78,1.37,4.54,3.27,3.88,6.69-1.36,7.09-9.18,13.07-16.56,13.48-7.72.43-13.3-2.9-18.33-8.22C176.82,108.31,172.13,106.35,174.92,101.21Zm17-21.75c-7.21.11-15.48,11.24-13.52,18.2.69,2.44,2.11,1.1,2.94.37,4.86-4.26,9.8-8.5,13.32-14C196.58,81,195.49,79.4,191.89,79.46Z"/><path d="M196.88,137.25c4.69-.15,9.79,4.55,10.08,9.3.23,3.85-4.48,10.87-7.24,10.8-6.1-.17-13.91-5.25-14.14-9.2C185.32,143.67,191.81,137.41,196.88,137.25Zm.14,16.54c3.79,0,7.67-3.39,7.78-6.9.11-3.29-3.68-7-7.17-7s-9.24,4.94-9.07,8C188.68,150,194,153.76,197,153.79Z"/></svg>