<svg xmlns="http://www.w3.org/2000/svg" width="1078.27" height="284.74" viewBox="0 0 1078.27 284.74"><title>quote-craft-ml</title><path d="M57.67,12.34c0-3.36,3.7-7.44,9.12-9.55l.72,1.39c-4,2.3-5.52,4.71-5.76,5.86a2.9,2.9,0,0,1-1.06,5.62A3.06,3.06,0,0,1,57.67,12.34Zm9.55,0c0-3.36,3.7-7.44,9.12-9.55l.72,1.39c-4,2.3-5.47,4.71-5.76,5.86a2.9,2.9,0,0,1,1.92,2.64,3,3,0,0,1-3,3A3.06,3.06,0,0,1,67.23,12.34Z"/><path d="M81.82,6.72H78.46l.72-3.17H89.88l-.72,3.17H85.23L86,28.95,98.38,7.34H100L103.13,29,114.41,6.72h-3.84l.77-3.17H122l-.72,3.17h-3.12L103.08,35.57h-1.92L97.85,14.35,85.32,35.57H83.4Z"/><path d="M127.42,2.88h-3.89L124.25,0h7.15L127,18.91c1.54-2.35,3.94-4.56,6.82-4.56a5.54,5.54,0,0,1,5.81,5.57,11.26,11.26,0,0,1-.53,3.22l-1.78,6.63a7.42,7.42,0,0,0-.29,1.78,1.38,1.38,0,0,0,1.39,1.54c1,0,1.78-.82,2.69-3.22l1.68.58c-1,3.31-2.64,5-5,5a3.74,3.74,0,0,1-4.08-3.79,10.27,10.27,0,0,1,.34-2.26l1.82-6.72a9,9,0,0,0,.34-2.4,3.15,3.15,0,0,0-3.41-3.07c-2.78,0-5.9,2.59-7.06,7.49l-2.4,10.42h-3.36Z"/><path d="M149.11,25.92a7.11,7.11,0,0,0,0,1c0,3.6,3,5.71,6.53,5.71a13.3,13.3,0,0,0,6.77-1.87L161.64,34a13.74,13.74,0,0,1-6.72,1.49c-4.8,0-9.17-3.07-9.17-8.64,0-6.91,5.23-12.58,11.33-12.58,4.75,0,7.82,2.88,7.82,7.49a12.41,12.41,0,0,1-.77,4.13Zm.53-2.59H161.4a5.74,5.74,0,0,0,.34-2c0-2.21-1.49-4.08-4.8-4.08S150.84,19.78,149.64,23.33Z"/><path d="M176.52,17.62l-2.88,11.71a6.48,6.48,0,0,0-.29,1.78A1.56,1.56,0,0,0,175,32.74c1.1,0,2.26-.58,4.27-1.92l1.25,1.78c-2.5,2-4.51,2.93-6.43,2.93-2.4,0-4.22-1.49-4.22-3.89a8.87,8.87,0,0,1,.38-2.3l2.88-11.71h-3.65l.72-2.93h3.65l1.2-4.8,3.7-1.2-1.49,6h6.24l-.72,2.93Z"/><path d="M191.78,2.88H187.9L188.62,0h7.15l-4.42,18.91c1.54-2.35,3.94-4.56,6.82-4.56A5.54,5.54,0,0,1,204,19.92a11.26,11.26,0,0,1-.53,3.22l-1.78,6.63a7.42,7.42,0,0,0-.29,1.78,1.38,1.38,0,0,0,1.39,1.54c1,0,1.78-.82,2.69-3.22l1.68.58c-1,3.31-2.64,5-5,5A3.74,3.74,0,0,1,198,31.68a10.27,10.27,0,0,1,.34-2.26l1.82-6.72a9,9,0,0,0,.34-2.4,3.15,3.15,0,0,0-3.41-3.07c-2.78,0-5.9,2.59-7.06,7.49l-2.4,10.42H184.3Z"/><path d="M213.48,25.92a7.11,7.11,0,0,0,0,1c0,3.6,3,5.71,6.53,5.71a13.3,13.3,0,0,0,6.77-1.87L226,34a13.74,13.74,0,0,1-6.72,1.49c-4.8,0-9.17-3.07-9.17-8.64,0-6.91,5.23-12.58,11.33-12.58,4.75,0,7.82,2.88,7.82,7.49a12.41,12.41,0,0,1-.77,4.13Zm.53-2.59h11.76a5.74,5.74,0,0,0,.34-2c0-2.21-1.49-4.08-4.8-4.08S215.21,19.78,214,23.33Z"/><path d="M237.58,17.62h-3.84l.72-2.93h6.82l-1.34,5.67c2.64-3.89,4.94-6,7-6a2.57,2.57,0,0,1,2.78,2.54,2.65,2.65,0,0,1-2.59,2.64,2.45,2.45,0,0,1-2.45-1.92c-1.54.77-4.75,3.84-5.86,8.45l-2.3,9.07h-3.36Z"/><path d="M262.53,31.63a10.2,10.2,0,0,1,.38-2.21l3.22-11.81h-4l.77-2.93h7.34l-4,14.88a10.22,10.22,0,0,0-.34,2,1.34,1.34,0,0,0,1.39,1.49c1,0,1.87-.82,2.78-3.22l1.68.58c-1.1,3.46-2.83,5-5.18,5A3.68,3.68,0,0,1,262.53,31.63ZM266.76,8.3a2.42,2.42,0,1,1,2.45,2.45A2.46,2.46,0,0,1,266.76,8.3Z"/><path d="M283.42,17.62l-2.88,11.71a6.48,6.48,0,0,0-.29,1.78,1.56,1.56,0,0,0,1.63,1.63c1.1,0,2.26-.58,4.27-1.92l1.25,1.78c-2.5,2-4.51,2.93-6.43,2.93-2.4,0-4.22-1.49-4.22-3.89a8.87,8.87,0,0,1,.38-2.3L280,17.62h-3.65l.72-2.93h3.65l1.2-4.8,3.7-1.2-1.49,6h6.24l-.72,2.93Z"/><path d="M303,31.63a10.2,10.2,0,0,1,.38-2.21l3.22-11.81h-4l.77-2.93h7.34l-4,14.88a10.22,10.22,0,0,0-.34,2,1.34,1.34,0,0,0,1.39,1.49c1,0,1.87-.82,2.78-3.22l1.68.58c-1.1,3.46-2.83,5-5.18,5A3.68,3.68,0,0,1,303,31.63ZM307.17,8.3a2.42,2.42,0,1,1,2.45,2.45A2.46,2.46,0,0,1,307.17,8.3Z"/><path d="M316.39,32.83a3.62,3.62,0,0,1-1.2-2.54,2.34,2.34,0,0,1,2.26-2.5,2,2,0,0,1,2.06,2,2.41,2.41,0,0,1-.62,1.54,3.29,3.29,0,0,0,.82.58,8.86,8.86,0,0,0,4.08.91c2.26,0,4.13-1,4.13-2.83s-2-2.83-4.22-3.89c-3-1.39-5.66-2.74-5.66-5.81,0-3.26,2.74-5.86,7.39-5.86a8.81,8.81,0,0,1,6.29,2.21,3.46,3.46,0,0,1,1.15,2.5,2.26,2.26,0,0,1-2.16,2.45,2.05,2.05,0,0,1-2.11-2,3.1,3.1,0,0,1,.53-1.54,4.29,4.29,0,0,0-.72-.43,7.78,7.78,0,0,0-3.07-.58c-2.4,0-4,1.1-4,2.69s2,2.54,4.37,3.7c2.88,1.34,5.57,2.88,5.57,6,0,3.94-3.36,6-7.63,6A10.55,10.55,0,0,1,316.39,32.83Z"/><path d="M347.4,31.63a10.2,10.2,0,0,1,.38-2.21L351,17.62h-4l.77-2.93h7.34l-4,14.88a10.22,10.22,0,0,0-.34,2,1.34,1.34,0,0,0,1.39,1.49c1,0,1.87-.82,2.78-3.22l1.68.58c-1.1,3.46-2.83,5-5.18,5A3.68,3.68,0,0,1,347.4,31.63ZM351.62,8.3a2.42,2.42,0,1,1,2.45,2.45A2.46,2.46,0,0,1,351.62,8.3Z"/><path d="M374.23,31.68a8.27,8.27,0,0,1,.38-2.3l1.92-6.67a9,9,0,0,0,.34-2.4,3,3,0,0,0-3.31-3.07c-2.74,0-5.81,2.59-7,7.49l-2.64,10.42h-3.36L365,17.62h-3.84l.72-2.93h6.82l-1.15,4.85c1.78-3,4.32-5.18,7.2-5.18a5.36,5.36,0,0,1,5.62,5.57,11.26,11.26,0,0,1-.53,3.22l-1.87,6.63a7.5,7.5,0,0,0-.34,1.78A1.38,1.38,0,0,0,379,33.07c1,0,1.78-.82,2.74-3.22l1.68.58c-1.06,3.31-2.74,5-5.14,5A3.7,3.7,0,0,1,374.23,31.68Z"/><path d="M392.18,41.67h3.07l5.76-24h-3.89l.72-2.93h6.86l-1,4.27c1.68-2.5,4.18-4.66,7.39-4.66,4.51,0,7.58,3.36,7.58,8.45,0,7.1-5.09,12.82-10.9,12.82a7,7,0,0,1-6.67-4.75l-2.5,10.85h4.18l-.72,2.88H391.46Zm23-18.48c0-3.55-1.82-5.9-5-5.9-4.46,0-8.06,5.09-8.06,9.75a5.13,5.13,0,0,0,5.47,5.52C412,32.55,415.18,27.94,415.18,23.19Z"/><path d="M422.81,27.22c0-7,4.94-12.91,10.85-12.91A6.31,6.31,0,0,1,440,19.39l1.3-4.85h3.22l-3.7,15a10.79,10.79,0,0,0-.34,2,1.3,1.3,0,0,0,1.34,1.49c.91,0,1.78-.82,2.74-3.22l1.68.58c-1.1,3.46-2.93,5-5.14,5a3.57,3.57,0,0,1-3.79-3.74v-.48c-1.78,2.4-4.27,4.27-7.3,4.27C425.78,35.52,422.81,32.31,422.81,27.22Zm16.32-4.37c0-3.31-1.78-5.57-5.14-5.57-4.46,0-7.63,4.75-7.63,9.7,0,3.36,1.63,5.62,4.8,5.62C435.86,32.59,439.13,27.41,439.13,22.85Z"/><path d="M450.79,31.63a10.2,10.2,0,0,1,.38-2.21l3.22-11.81h-4l.77-2.93h7.34l-4,14.88a10.22,10.22,0,0,0-.34,2,1.34,1.34,0,0,0,1.39,1.49c1,0,1.87-.82,2.78-3.22l1.68.58c-1.1,3.46-2.83,5-5.18,5A3.68,3.68,0,0,1,450.79,31.63ZM455,8.3a2.42,2.42,0,1,1,2.45,2.45A2.46,2.46,0,0,1,455,8.3Z"/><path d="M477.62,31.68a8.27,8.27,0,0,1,.38-2.3l1.92-6.67a9,9,0,0,0,.34-2.4A3,3,0,0,0,477,17.23c-2.74,0-5.81,2.59-7,7.49L467.3,35.14h-3.36l4.42-17.52h-3.84l.72-2.93h6.82l-1.15,4.85c1.78-3,4.32-5.18,7.2-5.18a5.36,5.36,0,0,1,5.62,5.57,11.26,11.26,0,0,1-.53,3.22l-1.87,6.63a7.5,7.5,0,0,0-.34,1.78,1.38,1.38,0,0,0,1.39,1.54c1,0,1.78-.82,2.74-3.22l1.68.58c-1.06,3.31-2.74,5-5.14,5A3.7,3.7,0,0,1,477.62,31.68Z"/><path d="M497.64,17.62l-2.88,11.71a6.48,6.48,0,0,0-.29,1.78,1.56,1.56,0,0,0,1.63,1.63c1.1,0,2.26-.58,4.27-1.92l1.25,1.78c-2.5,2-4.51,2.93-6.43,2.93-2.4,0-4.22-1.49-4.22-3.89a8.87,8.87,0,0,1,.38-2.3l2.88-11.71h-3.65l.72-2.93h3.65l1.2-4.8,3.7-1.2-1.49,6h6.24l-.72,2.93Z"/><path d="M507.14,31.63a10.2,10.2,0,0,1,.38-2.21l3.22-11.81h-4l.77-2.93h7.34l-4,14.88a10.22,10.22,0,0,0-.34,2,1.34,1.34,0,0,0,1.39,1.49c1,0,1.87-.82,2.78-3.22l1.68.58c-1.1,3.46-2.83,5-5.18,5A3.68,3.68,0,0,1,507.14,31.63ZM511.37,8.3a2.42,2.42,0,1,1,2.45,2.45A2.46,2.46,0,0,1,511.37,8.3Z"/><path d="M534,31.68a8.27,8.27,0,0,1,.38-2.3l1.92-6.67a9,9,0,0,0,.34-2.4,3,3,0,0,0-3.31-3.07c-2.74,0-5.81,2.59-7,7.49l-2.64,10.42h-3.36l4.42-17.52h-3.84l.72-2.93h6.82l-1.15,4.85c1.78-3,4.32-5.18,7.2-5.18a5.36,5.36,0,0,1,5.62,5.57,11.26,11.26,0,0,1-.53,3.22l-1.87,6.63a7.5,7.5,0,0,0-.34,1.78,1.38,1.38,0,0,0,1.39,1.54c1,0,1.78-.82,2.74-3.22l1.68.58c-1.06,3.31-2.74,5-5.14,5A3.7,3.7,0,0,1,534,31.68Z"/><path d="M546,42.44a3.25,3.25,0,0,1-1.1-2.4,2.35,2.35,0,0,1,2.35-2.54,2.28,2.28,0,0,1,2.3,2.35,2.25,2.25,0,0,1-.38,1.25A7.15,7.15,0,0,0,553,42a6.3,6.3,0,0,0,4.85-1.82A10.88,10.88,0,0,0,560.28,35l1-4.13A8.53,8.53,0,0,1,554.08,35c-4.56,0-7.73-3.22-7.73-8.3,0-6.82,4.85-12.39,10.94-12.39a6.49,6.49,0,0,1,6.53,4.94l1.25-4.7h3.22l-4.9,21.07c-.67,2.83-1.54,4.94-3.12,6.48-1.78,1.82-4.13,2.64-7.3,2.64C550.2,44.74,547.17,43.59,546,42.44Zm16.95-19.68c0-3.36-2.06-5.47-5.38-5.47-4.42,0-7.63,4.27-7.63,9.22,0,3.41,2.11,5.57,5.28,5.57C559.8,32.07,562.92,27.36,562.92,22.75Z"/><path d="M566.85,40.61c4-2,5.66-4.42,5.81-5.57a3,3,0,0,1-2.06-2.64,2.91,2.91,0,0,1,2.93-2.93,3.1,3.1,0,0,1,3,3.36c0,3.22-3.07,7.1-9,9.17Z"/><path d="M592.68,31.63a10.22,10.22,0,0,1,.38-2.21l3.22-11.81h-4l.77-2.93h7.34l-4,14.88a10.26,10.26,0,0,0-.34,2,1.34,1.34,0,0,0,1.39,1.49c1,0,1.87-.82,2.78-3.22l1.68.58c-1.1,3.46-2.83,5-5.18,5A3.68,3.68,0,0,1,592.68,31.63ZM596.9,8.3a2.42,2.42,0,1,1,2.45,2.45A2.46,2.46,0,0,1,596.9,8.3Z"/><path d="M619.51,31.68a8.26,8.26,0,0,1,.38-2.3l1.92-6.67a9,9,0,0,0,.34-2.4,3,3,0,0,0-3.31-3.07c-2.74,0-5.81,2.59-7,7.49l-2.64,10.42h-3.36l4.42-17.52H606.4l.72-2.93h6.82l-1.15,4.85c1.78-3,4.32-5.18,7.2-5.18a5.36,5.36,0,0,1,5.62,5.57,11.25,11.25,0,0,1-.53,3.22l-1.87,6.63a7.52,7.52,0,0,0-.34,1.78,1.38,1.38,0,0,0,1.39,1.54c1,0,1.78-.82,2.74-3.22l1.68.58c-1.06,3.31-2.74,5-5.14,5A3.7,3.7,0,0,1,619.51,31.68Z"/><path d="M641.83,26.69c0-6.48,5.28-12.39,11.71-12.39,4.8,0,7.39,2.93,7.39,5.47a2.68,2.68,0,0,1-2.54,2.88,2,2,0,0,1-2.06-2.16,2.22,2.22,0,0,1,1-1.73,4.51,4.51,0,0,0-3.84-1.54c-4.22,0-8.21,4-8.21,9.26,0,3.65,2.4,6.1,6.19,6.1a10.65,10.65,0,0,0,6.82-2.69l-.1,3.26A11.81,11.81,0,0,1,651,35.52C645.86,35.52,641.83,32.21,641.83,26.69Z"/><path d="M664.1,26.59c0-6.34,4.94-12.29,11.57-12.29,5.62,0,8.88,4.13,8.88,8.93,0,6.38-4.94,12.29-11.57,12.29C667.36,35.52,664.1,31.44,664.1,26.59Zm17-3.36c0-3.74-2.45-6-5.62-6-4.46,0-8,4.27-8,9.41,0,3.7,2.45,6,5.62,6C677.64,32.59,681.14,28.32,681.14,23.23Z"/><path d="M688.48,26.59c0-6.34,4.95-12.29,11.57-12.29,5.62,0,8.88,4.13,8.88,8.93,0,6.38-4.94,12.29-11.57,12.29C691.75,35.52,688.48,31.44,688.48,26.59Zm17-3.36c0-3.74-2.45-6-5.62-6-4.46,0-8,4.27-8,9.41,0,3.7,2.45,6,5.62,6C702,32.59,705.52,28.32,705.52,23.23Z"/><path d="M712.29,35.14l7.49-32.26h-3.89L716.61,0h7.15L718,24.72c6-2.45,9.17-4.61,10-5.9a2.39,2.39,0,0,1-1.2-2,2.46,2.46,0,0,1,2.5-2.54A2.51,2.51,0,0,1,731.73,17c0,2.93-3.65,5.86-8.45,8.16l2.16,5.14a7.58,7.58,0,0,0,1.1,2.21,1.28,1.28,0,0,0,1.1.48c.77,0,1.54-.77,2.26-3.74l1.78.53c-1,4.51-2.69,5.66-4.61,5.66a3.8,3.8,0,0,1-2.69-1,6.92,6.92,0,0,1-1.78-2.74l-2.3-5.57c-1,.43-2,.86-2.83,1.2l-1.82,7.73Z"/><path d="M736.63,31.63a10.22,10.22,0,0,1,.38-2.21l3.22-11.81h-4l.77-2.93h7.34l-4,14.88a10.26,10.26,0,0,0-.34,2,1.34,1.34,0,0,0,1.39,1.49c1,0,1.87-.82,2.78-3.22l1.68.58c-1.1,3.46-2.83,5-5.18,5A3.68,3.68,0,0,1,736.63,31.63ZM740.85,8.3a2.42,2.42,0,1,1,2.45,2.45A2.46,2.46,0,0,1,740.85,8.3Z"/><path d="M763.46,31.68a8.26,8.26,0,0,1,.38-2.3l1.92-6.67a9,9,0,0,0,.34-2.4,3,3,0,0,0-3.31-3.07c-2.74,0-5.81,2.59-7,7.49l-2.64,10.42h-3.36l4.42-17.52h-3.84l.72-2.93h6.82l-1.15,4.85c1.78-3,4.32-5.18,7.2-5.18a5.36,5.36,0,0,1,5.62,5.57,11.25,11.25,0,0,1-.53,3.22l-1.87,6.63a7.52,7.52,0,0,0-.34,1.78,1.38,1.38,0,0,0,1.39,1.54c1,0,1.78-.82,2.74-3.22l1.68.58c-1.06,3.31-2.74,5-5.14,5A3.7,3.7,0,0,1,763.46,31.68Z"/><path d="M775.46,42.44a3.25,3.25,0,0,1-1.1-2.4,2.35,2.35,0,0,1,2.35-2.54,2.28,2.28,0,0,1,2.3,2.35,2.25,2.25,0,0,1-.38,1.25,7.15,7.15,0,0,0,3.84.91,6.3,6.3,0,0,0,4.85-1.82A10.88,10.88,0,0,0,789.76,35l1-4.13A8.53,8.53,0,0,1,783.57,35c-4.56,0-7.73-3.22-7.73-8.3,0-6.82,4.85-12.39,10.94-12.39a6.49,6.49,0,0,1,6.53,4.94l1.25-4.7h3.22l-4.9,21.07c-.67,2.83-1.54,4.94-3.12,6.48-1.78,1.82-4.13,2.64-7.3,2.64C779.68,44.74,776.66,43.59,775.46,42.44ZM792.4,22.75c0-3.36-2.06-5.47-5.38-5.47-4.42,0-7.63,4.27-7.63,9.22,0,3.41,2.11,5.57,5.28,5.57C789.28,32.07,792.4,27.36,792.4,22.75Z"/><path d="M796.34,40.61c4-2,5.66-4.42,5.81-5.57a3,3,0,0,1-2.06-2.64A2.91,2.91,0,0,1,803,29.47a3.1,3.1,0,0,1,3,3.36c0,3.22-3.07,7.1-9,9.17Z"/><path d="M822.16,31.63a10.22,10.22,0,0,1,.38-2.21l3.22-11.81h-4l.77-2.93h7.34l-4,14.88a10.26,10.26,0,0,0-.34,2,1.34,1.34,0,0,0,1.39,1.49c1,0,1.87-.82,2.78-3.22l1.68.58c-1.1,3.46-2.83,5-5.18,5A3.68,3.68,0,0,1,822.16,31.63ZM826.39,8.3a2.42,2.42,0,1,1,2.45,2.45A2.46,2.46,0,0,1,826.39,8.3Z"/><path d="M849,31.68a8.26,8.26,0,0,1,.38-2.3l1.92-6.67a9,9,0,0,0,.34-2.4,3,3,0,0,0-3.31-3.07c-2.74,0-5.81,2.59-7,7.49l-2.64,10.42h-3.36l4.42-17.52h-3.84l.72-2.93h6.82l-1.15,4.85c1.78-3,4.32-5.18,7.2-5.18a5.36,5.36,0,0,1,5.62,5.57,11.25,11.25,0,0,1-.53,3.22l-1.87,6.63a7.52,7.52,0,0,0-.34,1.78,1.38,1.38,0,0,0,1.39,1.54c1,0,1.78-.82,2.74-3.22l1.68.58c-1.06,3.31-2.74,5-5.14,5A3.7,3.7,0,0,1,849,31.68Z"/><path d="M871.31,26.69c0-6.48,5.28-12.39,11.71-12.39,4.8,0,7.39,2.93,7.39,5.47a2.68,2.68,0,0,1-2.54,2.88,2,2,0,0,1-2.06-2.16,2.22,2.22,0,0,1,1-1.73,4.51,4.51,0,0,0-3.84-1.54c-4.22,0-8.21,4-8.21,9.26,0,3.65,2.4,6.1,6.19,6.1a10.65,10.65,0,0,0,6.82-2.69l-.1,3.26a11.81,11.81,0,0,1-7.11,2.35C875.35,35.52,871.31,32.21,871.31,26.69Z"/><path d="M893.63,27.22c0-7,4.94-12.91,10.85-12.91a6.31,6.31,0,0,1,6.38,5.09l1.3-4.85h3.22l-3.7,15a10.86,10.86,0,0,0-.34,2,1.3,1.3,0,0,0,1.34,1.49c.91,0,1.78-.82,2.74-3.22l1.68.58c-1.1,3.46-2.93,5-5.14,5a3.57,3.57,0,0,1-3.79-3.74v-.48c-1.78,2.4-4.27,4.27-7.3,4.27C896.61,35.52,893.63,32.31,893.63,27.22ZM910,22.85c0-3.31-1.78-5.57-5.14-5.57-4.46,0-7.63,4.75-7.63,9.7,0,3.36,1.63,5.62,4.8,5.62C906.69,32.59,910,27.41,910,22.85Z"/><path d="M927.38,2.88h-3.89L924.21,0h7.15L927,18.63c1.63-2.35,4.13-4.32,7.1-4.32,4.61,0,7.68,3.36,7.68,8.45,0,7.1-5.09,12.82-10.85,12.82a6.49,6.49,0,0,1-6.62-5l-1.2,4.56h-3.22Zm10.85,20.31c0-3.55-1.82-5.9-5-5.9-4.46,0-8,5.09-8,9.75,0,3.26,2,5.52,5.42,5.52C935,32.55,938.23,27.94,938.23,23.19Z"/><path d="M946.72,31.63a10.22,10.22,0,0,1,.38-2.21l3.22-11.81h-4l.77-2.93h7.34l-4,14.88a10.26,10.26,0,0,0-.34,2,1.34,1.34,0,0,0,1.39,1.49c1,0,1.87-.82,2.78-3.22l1.68.58c-1.1,3.46-2.83,5-5.18,5A3.68,3.68,0,0,1,946.72,31.63ZM950.95,8.3a2.42,2.42,0,1,1,2.45,2.45A2.46,2.46,0,0,1,950.95,8.3Z"/><path d="M973.55,31.68a8.26,8.26,0,0,1,.38-2.3l1.92-6.67a9,9,0,0,0,.34-2.4,3,3,0,0,0-3.31-3.07c-2.74,0-5.81,2.59-7,7.49l-2.64,10.42h-3.36l4.42-17.52h-3.84l.72-2.93H968l-1.15,4.85c1.78-3,4.32-5.18,7.2-5.18a5.36,5.36,0,0,1,5.62,5.57,11.25,11.25,0,0,1-.53,3.22l-1.87,6.63a7.52,7.52,0,0,0-.34,1.78,1.38,1.38,0,0,0,1.39,1.54c1,0,1.78-.82,2.74-3.22l1.68.58c-1.06,3.31-2.74,5-5.14,5A3.7,3.7,0,0,1,973.55,31.68Z"/><path d="M989.15,25.92a7.11,7.11,0,0,0,0,1c0,3.6,3,5.71,6.53,5.71a13.3,13.3,0,0,0,6.77-1.87l-.72,3.26A13.74,13.74,0,0,1,995,35.52c-4.8,0-9.17-3.07-9.17-8.64,0-6.91,5.23-12.58,11.33-12.58,4.75,0,7.83,2.88,7.83,7.49a12.41,12.41,0,0,1-.77,4.13Zm.53-2.59h11.76a5.74,5.74,0,0,0,.34-2c0-2.21-1.49-4.08-4.8-4.08S990.88,19.78,989.68,23.33Z"/><path d="M1016.56,17.62l-2.88,11.71a6.47,6.47,0,0,0-.29,1.78,1.56,1.56,0,0,0,1.63,1.63c1.1,0,2.26-.58,4.27-1.92l1.25,1.78c-2.5,2-4.51,2.93-6.43,2.93-2.4,0-4.22-1.49-4.22-3.89a8.85,8.85,0,0,1,.38-2.3l2.88-11.71h-3.65l.72-2.93h3.65l1.2-4.8,3.7-1.2-1.49,6h6.24l-.72,2.93Z"/><path d="M4.42,77.62H.58l.72-2.93H8.11l-1.2,4.85c1.82-3,4.32-5.18,7-5.18a5,5,0,0,1,5.28,5.14c1.92-3.17,4.51-5.14,7.1-5.14a5.23,5.23,0,0,1,5.33,5.57,11.26,11.26,0,0,1-.53,3.22l-1.92,6.63a10.3,10.3,0,0,0-.29,1.78,1.38,1.38,0,0,0,1.39,1.54c.91,0,1.78-.82,2.74-3.22l1.68.58c-1.06,3.31-2.74,5-5.14,5a3.7,3.7,0,0,1-4-3.79,8.27,8.27,0,0,1,.38-2.3l1.87-6.58a10.23,10.23,0,0,0,.38-2.5,2.85,2.85,0,0,0-3-3.07c-2.64,0-5.57,2.64-6.86,7.63L15.7,95.14H12.34l3.17-12.29a11.3,11.3,0,0,0,.38-2.59,2.9,2.9,0,0,0-3-3c-2.59,0-5.71,2.64-6.91,7.58L3.36,95.14H0Z"/><path d="M37.87,87.22c0-7,4.94-12.91,10.85-12.91a6.31,6.31,0,0,1,6.38,5.09l1.3-4.85h3.22l-3.7,15a10.79,10.79,0,0,0-.34,2,1.3,1.3,0,0,0,1.34,1.49c.91,0,1.78-.82,2.74-3.22l1.68.58c-1.1,3.46-2.93,5-5.14,5a3.57,3.57,0,0,1-3.79-3.74v-.48c-1.78,2.4-4.27,4.27-7.3,4.27C40.85,95.52,37.87,92.31,37.87,87.22Zm16.32-4.37c0-3.31-1.78-5.57-5.14-5.57-4.46,0-7.63,4.75-7.63,9.7,0,3.36,1.63,5.62,4.8,5.62C50.93,92.59,54.19,87.41,54.19,82.85Z"/><path d="M64.13,95.14l7.49-32.26H67.73L68.45,60H75.6L69.84,84.72c6-2.45,9.17-4.61,10-5.9a2.39,2.39,0,0,1-1.2-2,2.46,2.46,0,0,1,2.5-2.54A2.51,2.51,0,0,1,83.57,77c0,2.93-3.65,5.86-8.45,8.16l2.16,5.14a7.56,7.56,0,0,0,1.1,2.21,1.28,1.28,0,0,0,1.1.48c.77,0,1.54-.77,2.26-3.74l1.78.53c-1,4.51-2.69,5.66-4.61,5.66a3.8,3.8,0,0,1-2.69-1,6.92,6.92,0,0,1-1.78-2.74l-2.3-5.57c-1,.43-2,.86-2.83,1.2l-1.82,7.73Z"/><path d="M88.46,91.63a10.2,10.2,0,0,1,.38-2.21l3.22-11.81h-4l.77-2.93h7.34l-4,14.88a10.22,10.22,0,0,0-.34,2,1.34,1.34,0,0,0,1.39,1.49c1,0,1.87-.82,2.78-3.22l1.68.58c-1.1,3.46-2.83,5-5.18,5A3.68,3.68,0,0,1,88.46,91.63ZM92.69,68.3a2.42,2.42,0,1,1,2.45,2.45A2.46,2.46,0,0,1,92.69,68.3Z"/><path d="M115.3,91.68a8.27,8.27,0,0,1,.38-2.3l1.92-6.67a9,9,0,0,0,.34-2.4,3,3,0,0,0-3.31-3.07c-2.74,0-5.81,2.59-7,7.49L105,95.14h-3.36L106,77.62h-3.84l.72-2.93h6.82l-1.15,4.85c1.78-3,4.32-5.18,7.2-5.18a5.36,5.36,0,0,1,5.62,5.57,11.26,11.26,0,0,1-.53,3.22L119,89.76a7.5,7.5,0,0,0-.34,1.78A1.38,1.38,0,0,0,120,93.07c1,0,1.78-.82,2.74-3.22l1.68.58c-1.06,3.31-2.74,5-5.14,5A3.7,3.7,0,0,1,115.3,91.68Z"/><path d="M127.29,102.44a3.25,3.25,0,0,1-1.1-2.4,2.35,2.35,0,0,1,2.35-2.54,2.28,2.28,0,0,1,2.3,2.35,2.25,2.25,0,0,1-.38,1.25,7.15,7.15,0,0,0,3.84.91,6.3,6.3,0,0,0,4.85-1.82A10.89,10.89,0,0,0,141.6,95l1-4.13A8.53,8.53,0,0,1,135.41,95c-4.56,0-7.73-3.22-7.73-8.3,0-6.82,4.85-12.39,10.95-12.39a6.49,6.49,0,0,1,6.53,4.94l1.25-4.7h3.22l-4.9,21.07c-.67,2.83-1.54,4.94-3.12,6.48-1.78,1.82-4.13,2.64-7.3,2.64C131.52,104.74,128.49,103.59,127.29,102.44Zm16.95-19.68c0-3.36-2.06-5.47-5.38-5.47-4.42,0-7.63,4.27-7.63,9.22,0,3.41,2.11,5.57,5.28,5.57C141.12,92.07,144.24,87.36,144.24,82.75Z"/><path d="M163,86.59c0-6.34,4.94-12.29,11.57-12.29,5.62,0,8.88,4.13,8.88,8.93,0,6.38-4.94,12.29-11.57,12.29C166.22,95.52,163,91.44,163,86.59Zm17-3.36c0-3.74-2.45-6-5.62-6-4.46,0-8,4.27-8,9.41,0,3.7,2.45,6,5.62,6C176.5,92.59,180,88.32,180,83.23Z"/><path d="M191.9,77.62h-3.84l.72-2.93h6.82l-1.34,5.67c2.64-3.89,4.94-6,7-6A2.57,2.57,0,0,1,204,76.9a2.65,2.65,0,0,1-2.59,2.64A2.45,2.45,0,0,1,199,77.62c-1.54.77-4.75,3.84-5.86,8.45l-2.3,9.07h-3.36Z"/><path d="M215.76,87.22c0-7,4.94-12.91,10.85-12.91A6.31,6.31,0,0,1,233,79.39l1.3-4.85h3.22l-3.7,15a10.79,10.79,0,0,0-.34,2,1.3,1.3,0,0,0,1.34,1.49c.91,0,1.78-.82,2.74-3.22l1.68.58c-1.1,3.46-2.93,5-5.14,5a3.57,3.57,0,0,1-3.79-3.74v-.48c-1.78,2.4-4.27,4.27-7.3,4.27C218.73,95.52,215.76,92.31,215.76,87.22Zm16.32-4.37c0-3.31-1.78-5.57-5.14-5.57-4.46,0-7.63,4.75-7.63,9.7,0,3.36,1.63,5.62,4.8,5.62C228.81,92.59,232.08,87.41,232.08,82.85Z"/><path d="M256.41,91.68a8.27,8.27,0,0,1,.38-2.3l1.92-6.67a9,9,0,0,0,.34-2.4,3,3,0,0,0-3.31-3.07c-2.74,0-5.81,2.59-7,7.49l-2.64,10.42h-3.36l4.42-17.52h-3.84l.72-2.93h6.82l-1.15,4.85c1.78-3,4.32-5.18,7.2-5.18a5.36,5.36,0,0,1,5.62,5.57,11.26,11.26,0,0,1-.53,3.22l-1.87,6.63a7.5,7.5,0,0,0-.34,1.78,1.38,1.38,0,0,0,1.39,1.54c1,0,1.78-.82,2.74-3.22l1.68.58c-1.06,3.31-2.74,5-5.14,5A3.7,3.7,0,0,1,256.41,91.68Z"/><path d="M262.56,102a2.36,2.36,0,0,1,2.3-2.4,2.25,2.25,0,0,1,2.26,2.11h.1c1.15,0,3.46-1.73,7.82-7l-3.5-17.09h-3.65l.72-2.93h5.9l3,17.09c3.55-4.61,6.91-9.36,7.63-12.43a2.76,2.76,0,0,1-2-2.59,2.47,2.47,0,0,1,2.5-2.45c1.63,0,2.78,1.2,2.78,3.31,0,3.17-2.35,7.63-9.89,17.09-6.72,8.35-9.74,10-12.77,10A3,3,0,0,1,262.56,102Z"/><path d="M301.63,86.59c0-6.34,4.94-12.29,11.57-12.29,5.62,0,8.88,4.13,8.88,8.93,0,6.38-4.94,12.29-11.57,12.29C304.89,95.52,301.63,91.44,301.63,86.59Zm17-3.36c0-3.74-2.45-6-5.62-6-4.46,0-8,4.27-8,9.41,0,3.7,2.45,6,5.62,6C315.17,92.59,318.67,88.32,318.67,83.23Z"/><path d="M333.65,77.62l-2.88,11.71a6.48,6.48,0,0,0-.29,1.78,1.56,1.56,0,0,0,1.63,1.63c1.1,0,2.26-.58,4.27-1.92l1.25,1.78c-2.5,2-4.51,2.93-6.43,2.93-2.4,0-4.22-1.49-4.22-3.89a8.87,8.87,0,0,1,.38-2.3l2.88-11.71h-3.65l.72-2.93H331l1.2-4.8,3.7-1.2-1.49,6h6.24l-.72,2.93Z"/><path d="M348.91,62.88H345l.72-2.88h7.15l-4.42,18.91c1.54-2.35,3.94-4.56,6.82-4.56a5.54,5.54,0,0,1,5.81,5.57,11.26,11.26,0,0,1-.53,3.22l-1.78,6.63a7.42,7.42,0,0,0-.29,1.78,1.38,1.38,0,0,0,1.39,1.54c1,0,1.78-.82,2.69-3.22l1.68.58c-1,3.31-2.64,5-5,5a3.74,3.74,0,0,1-4.08-3.79,10.27,10.27,0,0,1,.34-2.26l1.82-6.72a9,9,0,0,0,.34-2.4,3.15,3.15,0,0,0-3.41-3.07c-2.78,0-5.9,2.59-7.06,7.49l-2.4,10.42h-3.36Z"/><path d="M370.6,85.92a7.11,7.11,0,0,0,0,1c0,3.6,3,5.71,6.53,5.71a13.3,13.3,0,0,0,6.77-1.87L383.13,94a13.74,13.74,0,0,1-6.72,1.49c-4.8,0-9.17-3.07-9.17-8.64,0-6.91,5.23-12.58,11.33-12.58,4.75,0,7.82,2.88,7.82,7.49a12.41,12.41,0,0,1-.77,4.13Zm.53-2.59h11.76a5.74,5.74,0,0,0,.34-2c0-2.21-1.49-4.08-4.8-4.08S372.33,79.78,371.13,83.33Z"/><path d="M394.7,77.62h-3.84l.72-2.93h6.82l-1.34,5.67c2.64-3.89,4.94-6,7-6a2.57,2.57,0,0,1,2.78,2.54,2.65,2.65,0,0,1-2.59,2.64,2.45,2.45,0,0,1-2.45-1.92c-1.54.77-4.75,3.84-5.86,8.45l-2.3,9.07h-3.36Z"/><path d="M418.51,86.69c0-6.48,5.28-12.39,11.71-12.39,4.8,0,7.39,2.93,7.39,5.47a2.68,2.68,0,0,1-2.54,2.88A2,2,0,0,1,433,80.5a2.22,2.22,0,0,1,1-1.73,4.5,4.5,0,0,0-3.84-1.54c-4.22,0-8.21,4-8.21,9.26,0,3.65,2.4,6.1,6.19,6.1a10.65,10.65,0,0,0,6.82-2.69l-.1,3.26a11.8,11.8,0,0,1-7.1,2.35C422.54,95.52,418.51,92.21,418.51,86.69Z"/><path d="M445.34,77.62H441.5l.72-2.93H449l-1.34,5.67c2.64-3.89,4.94-6,7-6a2.57,2.57,0,0,1,2.78,2.54,2.65,2.65,0,0,1-2.59,2.64,2.45,2.45,0,0,1-2.45-1.92c-1.54.77-4.75,3.84-5.86,8.45l-2.3,9.07h-3.36Z"/><path d="M458.2,87.22c0-7,4.94-12.91,10.85-12.91a6.31,6.31,0,0,1,6.38,5.09l1.3-4.85h3.22l-3.7,15a10.79,10.79,0,0,0-.34,2,1.3,1.3,0,0,0,1.34,1.49c.91,0,1.78-.82,2.74-3.22l1.68.58c-1.1,3.46-2.93,5-5.14,5a3.57,3.57,0,0,1-3.79-3.74v-.48c-1.78,2.4-4.27,4.27-7.3,4.27C461.18,95.52,458.2,92.31,458.2,87.22Zm16.32-4.37c0-3.31-1.78-5.57-5.14-5.57-4.46,0-7.63,4.75-7.63,9.7,0,3.36,1.63,5.62,4.8,5.62C471.26,92.59,474.52,87.41,474.52,82.85Z"/><path d="M489.55,77.62H485.9l.72-2.93h3.6L491.76,68a11.91,11.91,0,0,1,3.07-6.14,7.51,7.51,0,0,1,5.28-2.11c2.4,0,3.74,1.25,3.74,2.83a2.33,2.33,0,0,1-4.66.1,4.1,4.1,0,0,0-2,1.06,10,10,0,0,0-2.21,4.7l-1.44,6.24h5.33l-.72,2.93h-5.28l-4,17.52h-3.31Z"/><path d="M507.93,77.62l-2.88,11.71a6.48,6.48,0,0,0-.29,1.78,1.56,1.56,0,0,0,1.63,1.63c1.1,0,2.26-.58,4.27-1.92l1.25,1.78c-2.5,2-4.51,2.93-6.43,2.93-2.4,0-4.22-1.49-4.22-3.89a8.87,8.87,0,0,1,.38-2.3l2.88-11.71h-3.65l.72-2.93h3.65l1.2-4.8,3.7-1.2-1.49,6h6.24l-.72,2.93Z"/><path d="M511.53,100.61c4-2,5.66-4.42,5.81-5.57a3,3,0,0,1-2.06-2.64,2.91,2.91,0,0,1,2.93-2.93,3.1,3.1,0,0,1,3,3.36c0,3.22-3.07,7.1-9,9.17Z"/><path d="M530.3,102a2.36,2.36,0,0,1,2.3-2.4,2.25,2.25,0,0,1,2.26,2.11h.1c1.15,0,3.46-1.73,7.82-7l-3.5-17.09h-3.65l.72-2.93h5.9l3,17.09c3.55-4.61,6.91-9.36,7.63-12.43a2.76,2.76,0,0,1-2-2.59,2.47,2.47,0,0,1,2.5-2.45c1.63,0,2.78,1.2,2.78,3.31,0,3.17-2.35,7.63-9.89,17.09-6.72,8.35-9.74,10-12.77,10A3,3,0,0,1,530.3,102Z"/><path d="M559,86.59c0-6.34,4.94-12.29,11.57-12.29,5.62,0,8.88,4.13,8.88,8.93,0,6.38-4.94,12.29-11.57,12.29C562.27,95.52,559,91.44,559,86.59Zm17-3.36c0-3.74-2.45-6-5.62-6-4.46,0-8,4.27-8,9.41,0,3.7,2.45,6,5.62,6C572.54,92.59,576,88.32,576,83.23Z"/><path d="M591.4,74.69l-3.31,12.82a8.21,8.21,0,0,0-.29,2.21,2.85,2.85,0,0,0,3.12,2.93c2.83,0,5.9-2.69,7.1-7.49l2.59-10.46H604l-3.7,14.88a8.38,8.38,0,0,0-.38,2,1.34,1.34,0,0,0,1.39,1.49c.91,0,1.78-.82,2.74-3.22l1.68.58c-1.1,3.46-2.93,5-5.18,5a3.57,3.57,0,0,1-3.74-3.89,8.12,8.12,0,0,1,.1-1c-1.73,2.78-4.22,4.85-7.1,4.85a5.08,5.08,0,0,1-5.42-5.18,12.82,12.82,0,0,1,.43-3.07l2.5-9.6h-3.84l.77-2.93Z"/><path d="M626,62.88h-3.89l.72-2.88h7.15l-4.42,18.91c1.54-2.35,3.94-4.56,6.82-4.56a5.54,5.54,0,0,1,5.81,5.57,11.26,11.26,0,0,1-.53,3.22l-1.78,6.63a7.4,7.4,0,0,0-.29,1.78A1.38,1.38,0,0,0,637,93.07c1,0,1.78-.82,2.69-3.22l1.68.58c-1,3.31-2.64,5-5,5a3.74,3.74,0,0,1-4.08-3.79,10.33,10.33,0,0,1,.34-2.26l1.82-6.72a9,9,0,0,0,.34-2.4,3.15,3.15,0,0,0-3.41-3.07c-2.78,0-5.9,2.59-7.06,7.49l-2.4,10.42h-3.36Z"/><path d="M644.39,87.22c0-7,4.94-12.91,10.85-12.91a6.31,6.31,0,0,1,6.38,5.09l1.3-4.85h3.22l-3.7,15a10.86,10.86,0,0,0-.34,2,1.3,1.3,0,0,0,1.34,1.49c.91,0,1.78-.82,2.74-3.22l1.68.58c-1.1,3.46-2.93,5-5.14,5a3.57,3.57,0,0,1-3.79-3.74v-.48c-1.78,2.4-4.27,4.27-7.3,4.27C647.37,95.52,644.39,92.31,644.39,87.22Zm16.32-4.37c0-3.31-1.78-5.57-5.14-5.57-4.46,0-7.63,4.75-7.63,9.7,0,3.36,1.63,5.62,4.8,5.62C657.45,92.59,660.72,87.41,660.72,82.85Z"/><path d="M674,77.62h-3.7l.77-2.93h6l2.5,16.95c3.79-4.22,6.82-9,7.68-12.24a2.56,2.56,0,0,1-1.92-2.5,2.51,2.51,0,0,1,2.54-2.59c1.54,0,2.79,1.2,2.79,3.31,0,3.94-5,11.71-11.43,18.19h-1.87Z"/><path d="M697,85.92a7.11,7.11,0,0,0,0,1c0,3.6,3,5.71,6.53,5.71a13.3,13.3,0,0,0,6.77-1.87L709.53,94a13.74,13.74,0,0,1-6.72,1.49c-4.8,0-9.17-3.07-9.17-8.64,0-6.91,5.23-12.58,11.33-12.58,4.75,0,7.83,2.88,7.83,7.49a12.41,12.41,0,0,1-.77,4.13Zm.53-2.59h11.76a5.74,5.74,0,0,0,.34-2c0-2.21-1.49-4.08-4.8-4.08S698.73,79.78,697.53,83.33Z"/><path d="M734.44,77.62l-2.88,11.71a6.47,6.47,0,0,0-.29,1.78,1.56,1.56,0,0,0,1.63,1.63c1.1,0,2.26-.58,4.27-1.92l1.25,1.78c-2.5,2-4.51,2.93-6.43,2.93-2.4,0-4.22-1.49-4.22-3.89a8.85,8.85,0,0,1,.38-2.3L731,77.62h-3.65l.72-2.93h3.65l1.2-4.8,3.7-1.2-1.49,6h6.24l-.72,2.93Z"/><path d="M742.79,86.59c0-6.34,4.95-12.29,11.57-12.29,5.62,0,8.88,4.13,8.88,8.93,0,6.38-4.94,12.29-11.57,12.29C746.06,95.52,742.79,91.44,742.79,86.59Zm17-3.36c0-3.74-2.45-6-5.62-6-4.46,0-8,4.27-8,9.41,0,3.7,2.45,6,5.62,6C756.33,92.59,759.83,88.32,759.83,83.23Z"/><path d="M784.12,62.88h-3.89L781,60h7.15l-4.37,18.63c1.63-2.35,4.13-4.32,7.1-4.32,4.61,0,7.68,3.36,7.68,8.45,0,7.1-5.09,12.82-10.85,12.82a6.49,6.49,0,0,1-6.62-5l-1.2,4.56h-3.22ZM795,83.19c0-3.55-1.82-5.9-5-5.9-4.46,0-8,5.09-8,9.75,0,3.26,2,5.52,5.42,5.52C791.75,92.55,795,87.94,795,83.19Z"/><path d="M805.87,85.92a7.11,7.11,0,0,0,0,1c0,3.6,3,5.71,6.53,5.71a13.3,13.3,0,0,0,6.77-1.87L818.39,94a13.74,13.74,0,0,1-6.72,1.49c-4.8,0-9.17-3.07-9.17-8.64,0-6.91,5.23-12.58,11.33-12.58,4.75,0,7.83,2.88,7.83,7.49a12.41,12.41,0,0,1-.77,4.13Zm.53-2.59h11.76a5.74,5.74,0,0,0,.34-2c0-2.21-1.49-4.08-4.8-4.08S807.59,79.78,806.39,83.33Z"/><path d="M825.4,86.69c0-6.48,5.28-12.39,11.71-12.39,4.8,0,7.39,2.93,7.39,5.47A2.68,2.68,0,0,1,842,82.66a2,2,0,0,1-2.06-2.16,2.22,2.22,0,0,1,1-1.73A4.51,4.51,0,0,0,837,77.23c-4.22,0-8.21,4-8.21,9.26,0,3.65,2.4,6.1,6.19,6.1a10.65,10.65,0,0,0,6.82-2.69l-.1,3.26a11.81,11.81,0,0,1-7.11,2.35C829.43,95.52,825.4,92.21,825.4,86.69Z"/><path d="M847.67,86.59c0-6.34,4.95-12.29,11.57-12.29,5.62,0,8.88,4.13,8.88,8.93,0,6.38-4.94,12.29-11.57,12.29C850.94,95.52,847.67,91.44,847.67,86.59Zm17-3.36c0-3.74-2.45-6-5.62-6-4.46,0-8,4.27-8,9.41,0,3.7,2.45,6,5.62,6C861.21,92.59,864.71,88.32,864.71,83.23Z"/><path d="M876.14,77.62H872.3l.72-2.93h6.82l-1.2,4.85c1.82-3,4.32-5.18,7-5.18a5,5,0,0,1,5.28,5.14c1.92-3.17,4.51-5.14,7.11-5.14a5.23,5.23,0,0,1,5.33,5.57,11.26,11.26,0,0,1-.53,3.22l-1.92,6.63a10.25,10.25,0,0,0-.29,1.78A1.38,1.38,0,0,0,902,93.07c.91,0,1.78-.82,2.74-3.22l1.68.58c-1.06,3.31-2.74,5-5.14,5a3.7,3.7,0,0,1-4-3.79,8.26,8.26,0,0,1,.38-2.3l1.87-6.58a10.21,10.21,0,0,0,.38-2.5,2.85,2.85,0,0,0-3-3.07c-2.64,0-5.57,2.64-6.86,7.63l-2.64,10.27h-3.36l3.17-12.29a11.28,11.28,0,0,0,.38-2.59,2.9,2.9,0,0,0-3-3c-2.59,0-5.71,2.64-6.91,7.58l-2.59,10.32h-3.36Z"/><path d="M912.86,85.92a7.11,7.11,0,0,0,0,1c0,3.6,3,5.71,6.53,5.71a13.3,13.3,0,0,0,6.77-1.87L925.39,94a13.74,13.74,0,0,1-6.72,1.49c-4.8,0-9.17-3.07-9.17-8.64,0-6.91,5.23-12.58,11.33-12.58,4.75,0,7.83,2.88,7.83,7.49a12.41,12.41,0,0,1-.77,4.13Zm.53-2.59h11.76a5.74,5.74,0,0,0,.34-2c0-2.21-1.49-4.08-4.8-4.08S914.58,79.78,913.38,83.33Z"/><path d="M942.47,87.22c0-7,4.94-12.91,10.85-12.91a6.31,6.31,0,0,1,6.38,5.09l1.3-4.85h3.22l-3.7,15a10.86,10.86,0,0,0-.34,2,1.3,1.3,0,0,0,1.34,1.49c.91,0,1.78-.82,2.74-3.22l1.68.58c-1.1,3.46-2.93,5-5.14,5A3.57,3.57,0,0,1,957,91.73v-.48c-1.78,2.4-4.27,4.27-7.3,4.27C945.45,95.52,942.47,92.31,942.47,87.22Zm16.32-4.37c0-3.31-1.78-5.57-5.14-5.57C949.19,77.28,946,82,946,87c0,3.36,1.63,5.62,4.8,5.62C955.53,92.59,958.79,87.41,958.79,82.85Z"/><path d="M979,102.44a3.25,3.25,0,0,1-1.1-2.4,2.35,2.35,0,0,1,2.35-2.54,2.28,2.28,0,0,1,2.3,2.35,2.25,2.25,0,0,1-.38,1.25,7.15,7.15,0,0,0,3.84.91,6.3,6.3,0,0,0,4.85-1.82A10.88,10.88,0,0,0,993.35,95l1-4.13A8.53,8.53,0,0,1,987.16,95c-4.56,0-7.73-3.22-7.73-8.3,0-6.82,4.85-12.39,10.94-12.39a6.49,6.49,0,0,1,6.53,4.94l1.25-4.7h3.22l-4.9,21.07c-.67,2.83-1.54,4.94-3.12,6.48-1.78,1.82-4.13,2.64-7.3,2.64C983.27,104.74,980.25,103.59,979,102.44ZM996,82.75c0-3.36-2.06-5.47-5.38-5.47-4.42,0-7.63,4.27-7.63,9.22,0,3.41,2.11,5.57,5.28,5.57C992.87,92.07,996,87.36,996,82.75Z"/><path d="M1004.34,86.59c0-6.34,4.94-12.29,11.57-12.29,5.62,0,8.88,4.13,8.88,8.93,0,6.38-4.94,12.29-11.57,12.29C1007.61,95.52,1004.34,91.44,1004.34,86.59Zm17-3.36c0-3.74-2.45-6-5.62-6-4.46,0-8,4.27-8,9.41,0,3.7,2.45,6,5.62,6C1017.88,92.59,1021.39,88.32,1021.39,83.23Z"/><path d="M1028.73,86.59c0-6.34,4.94-12.29,11.57-12.29,5.62,0,8.88,4.13,8.88,8.93,0,6.38-4.94,12.29-11.57,12.29C1032,95.52,1028.73,91.44,1028.73,86.59Zm17-3.36c0-3.74-2.45-6-5.62-6-4.46,0-8,4.27-8,9.41,0,3.7,2.45,6,5.62,6C1042.26,92.59,1045.77,88.32,1045.77,83.23Z"/><path d="M1063.91,74.3a6.51,6.51,0,0,1,6.48,4.94l3.84-16.37h-3.89l.72-2.88h7.2l-6.91,29.57a8.81,8.81,0,0,0-.38,2c0,1,.48,1.49,1.34,1.49s1.82-.82,2.78-3.22l1.68.58c-1.1,3.46-3,5-5.18,5a3.55,3.55,0,0,1-3.75-3.84,1.31,1.31,0,0,1,0-.43c-1.73,2.4-4.22,4.32-7.3,4.32-4.22,0-7.34-3.22-7.34-8.3C1053.21,80.07,1058.2,74.3,1063.91,74.3Zm5.66,8.59c0-3.36-1.87-5.62-5.28-5.62-4.42,0-7.54,4.7-7.54,9.65,0,3.36,1.78,5.67,4.94,5.67C1066.31,92.59,1069.58,87.6,1069.58,82.9Z"/><path d="M13.37,137.62l-2.88,11.71a6.48,6.48,0,0,0-.29,1.78,1.56,1.56,0,0,0,1.63,1.63c1.1,0,2.26-.58,4.27-1.92l1.25,1.78c-2.5,2-4.51,2.93-6.43,2.93-2.4,0-4.22-1.49-4.22-3.89a8.87,8.87,0,0,1,.38-2.3L10,137.62H6.31L7,134.69h3.65l1.2-4.8,3.7-1.2-1.49,6h6.24l-.72,2.93Z"/><path d="M25,145.92a7.11,7.11,0,0,0,0,1c0,3.6,3,5.71,6.53,5.71a13.3,13.3,0,0,0,6.77-1.87L37.56,154a13.74,13.74,0,0,1-6.72,1.49c-4.8,0-9.17-3.07-9.17-8.64C21.67,140,26.9,134.3,33,134.3c4.75,0,7.82,2.88,7.82,7.49a12.41,12.41,0,0,1-.77,4.13Zm.53-2.59H37.32a5.74,5.74,0,0,0,.34-2c0-2.21-1.49-4.08-4.8-4.08S26.76,139.78,25.56,143.33Z"/><path d="M44.57,146.69c0-6.48,5.28-12.39,11.71-12.39,4.8,0,7.39,2.93,7.39,5.47a2.68,2.68,0,0,1-2.54,2.88,2,2,0,0,1-2.06-2.16,2.22,2.22,0,0,1,1-1.73,4.5,4.5,0,0,0-3.84-1.54c-4.22,0-8.21,4-8.21,9.26,0,3.65,2.4,6.1,6.19,6.1A10.65,10.65,0,0,0,61,149.91l-.1,3.26a11.8,11.8,0,0,1-7.1,2.35C48.6,155.52,44.57,152.21,44.57,146.69Z"/><path d="M73.75,122.88H69.86l.72-2.88h7.15l-4.42,18.91c1.54-2.35,3.94-4.56,6.82-4.56a5.54,5.54,0,0,1,5.81,5.57,11.26,11.26,0,0,1-.53,3.22l-1.78,6.63a7.42,7.42,0,0,0-.29,1.78,1.38,1.38,0,0,0,1.39,1.54c1,0,1.78-.82,2.69-3.22l1.68.58c-1,3.31-2.64,5-5,5A3.74,3.74,0,0,1,80,151.68a10.27,10.27,0,0,1,.34-2.26l1.82-6.72a9,9,0,0,0,.34-2.4,3.15,3.15,0,0,0-3.41-3.07c-2.78,0-5.9,2.59-7.06,7.49l-2.4,10.42H66.26Z"/><path d="M106,151.68a8.27,8.27,0,0,1,.38-2.3l1.92-6.67a9,9,0,0,0,.34-2.4,3,3,0,0,0-3.31-3.07c-2.74,0-5.81,2.59-7,7.49l-2.64,10.42H92.28l4.42-17.52H92.86l.72-2.93h6.82l-1.15,4.85c1.78-3,4.32-5.18,7.2-5.18a5.36,5.36,0,0,1,5.62,5.57,11.26,11.26,0,0,1-.53,3.22l-1.87,6.63a7.5,7.5,0,0,0-.34,1.78,1.38,1.38,0,0,0,1.39,1.54c1,0,1.78-.82,2.74-3.22l1.68.58c-1.06,3.31-2.74,5-5.14,5A3.7,3.7,0,0,1,106,151.68Z"/><path d="M119.4,151.63a10.2,10.2,0,0,1,.38-2.21L123,137.62h-4l.77-2.93h7.34l-4,14.88a10.22,10.22,0,0,0-.34,2,1.34,1.34,0,0,0,1.39,1.49c1,0,1.87-.82,2.78-3.22l1.68.58c-1.1,3.46-2.83,5-5.18,5A3.68,3.68,0,0,1,119.4,151.63Zm4.22-23.33a2.42,2.42,0,1,1,2.45,2.45A2.46,2.46,0,0,1,123.62,128.3Z"/><path d="M132.41,146.69c0-6.48,5.28-12.39,11.71-12.39,4.8,0,7.39,2.93,7.39,5.47a2.68,2.68,0,0,1-2.54,2.88,2,2,0,0,1-2.06-2.16,2.22,2.22,0,0,1,1-1.73,4.5,4.5,0,0,0-3.84-1.54c-4.22,0-8.21,4-8.21,9.26,0,3.65,2.4,6.1,6.19,6.1a10.65,10.65,0,0,0,6.82-2.69l-.1,3.26a11.8,11.8,0,0,1-7.1,2.35C136.44,155.52,132.41,152.21,132.41,146.69Z"/><path d="M155.83,151.63a10.2,10.2,0,0,1,.38-2.21l3.22-11.81h-4l.77-2.93h7.34l-4,14.88a10.22,10.22,0,0,0-.34,2,1.34,1.34,0,0,0,1.39,1.49c1,0,1.87-.82,2.78-3.22l1.68.58c-1.1,3.46-2.83,5-5.18,5A3.68,3.68,0,0,1,155.83,151.63Zm4.22-23.33a2.42,2.42,0,1,1,2.45,2.45A2.46,2.46,0,0,1,160.05,128.3Z"/><path d="M168.89,147.22c0-7,4.94-12.91,10.85-12.91a6.31,6.31,0,0,1,6.38,5.09l1.3-4.85h3.22l-3.7,15a10.79,10.79,0,0,0-.34,2,1.3,1.3,0,0,0,1.34,1.49c.91,0,1.78-.82,2.74-3.22l1.68.58c-1.1,3.46-2.93,5-5.14,5a3.57,3.57,0,0,1-3.79-3.74v-.48c-1.78,2.4-4.27,4.27-7.3,4.27C171.86,155.52,168.89,152.31,168.89,147.22Zm16.32-4.37c0-3.31-1.78-5.57-5.14-5.57-4.46,0-7.63,4.75-7.63,9.7,0,3.36,1.63,5.62,4.8,5.62C181.94,152.59,185.21,147.41,185.21,142.85Z"/><path d="M209.54,151.68a8.27,8.27,0,0,1,.38-2.3l1.92-6.67a9,9,0,0,0,.34-2.4,3,3,0,0,0-3.31-3.07c-2.74,0-5.81,2.59-7,7.49l-2.64,10.42h-3.36l4.42-17.52h-3.84l.72-2.93H204l-1.15,4.85c1.78-3,4.32-5.18,7.2-5.18a5.36,5.36,0,0,1,5.62,5.57,11.26,11.26,0,0,1-.53,3.22l-1.87,6.63a7.5,7.5,0,0,0-.34,1.78,1.38,1.38,0,0,0,1.39,1.54c1,0,1.78-.82,2.74-3.22l1.68.58c-1.06,3.31-2.74,5-5.14,5A3.7,3.7,0,0,1,209.54,151.68Z"/><path d="M231.91,147.22c0-7,4.94-12.91,10.85-12.91a6.31,6.31,0,0,1,6.38,5.09l1.3-4.85h3.22l-3.7,15a10.79,10.79,0,0,0-.34,2,1.3,1.3,0,0,0,1.34,1.49c.91,0,1.78-.82,2.74-3.22l1.68.58c-1.1,3.46-2.93,5-5.14,5a3.57,3.57,0,0,1-3.79-3.74v-.48c-1.78,2.4-4.27,4.27-7.3,4.27C234.89,155.52,231.91,152.31,231.91,147.22Zm16.32-4.37c0-3.31-1.78-5.57-5.14-5.57-4.46,0-7.63,4.75-7.63,9.7,0,3.36,1.63,5.62,4.8,5.62C245,152.59,248.23,147.41,248.23,142.85Z"/><path d="M272.57,151.68a8.27,8.27,0,0,1,.38-2.3l1.92-6.67a9,9,0,0,0,.34-2.4,3,3,0,0,0-3.31-3.07c-2.74,0-5.81,2.59-7,7.49l-2.64,10.42h-3.36l4.42-17.52h-3.84l.72-2.93H267l-1.15,4.85c1.78-3,4.32-5.18,7.2-5.18a5.36,5.36,0,0,1,5.62,5.57,11.26,11.26,0,0,1-.53,3.22l-1.87,6.63a7.5,7.5,0,0,0-.34,1.78,1.38,1.38,0,0,0,1.39,1.54c1,0,1.78-.82,2.74-3.22l1.68.58c-1.06,3.31-2.74,5-5.14,5A3.7,3.7,0,0,1,272.57,151.68Z"/><path d="M295.65,134.3a6.5,6.5,0,0,1,6.48,4.94L306,122.88h-3.89l.72-2.88H310l-6.91,29.57a8.82,8.82,0,0,0-.38,2c0,1,.48,1.49,1.34,1.49s1.82-.82,2.78-3.22l1.68.58c-1.1,3.46-3,5-5.18,5a3.55,3.55,0,0,1-3.74-3.84,1.3,1.3,0,0,1,0-.43c-1.73,2.4-4.22,4.32-7.3,4.32-4.22,0-7.34-3.22-7.34-8.3C284.95,140.07,289.94,134.3,295.65,134.3Zm5.66,8.59c0-3.36-1.87-5.62-5.28-5.62-4.42,0-7.54,4.7-7.54,9.65,0,3.36,1.78,5.67,4.94,5.67C298.05,152.59,301.32,147.6,301.32,142.9Z"/><path d="M326.42,137.62h-3.84l.72-2.93h6.82l-1.34,5.67c2.64-3.89,4.94-6,7-6a2.57,2.57,0,0,1,2.78,2.54,2.65,2.65,0,0,1-2.59,2.64,2.45,2.45,0,0,1-2.45-1.92c-1.54.77-4.75,3.84-5.86,8.45l-2.3,9.07H322Z"/><path d="M342.55,145.92a7.11,7.11,0,0,0,0,1c0,3.6,3,5.71,6.53,5.71a13.3,13.3,0,0,0,6.77-1.87l-.72,3.26a13.74,13.74,0,0,1-6.72,1.49c-4.8,0-9.17-3.07-9.17-8.64,0-6.91,5.23-12.58,11.33-12.58,4.75,0,7.82,2.88,7.82,7.49a12.41,12.41,0,0,1-.77,4.13Zm.53-2.59h11.76a5.74,5.74,0,0,0,.34-2c0-2.21-1.49-4.08-4.8-4.08S344.28,139.78,343.08,143.33Z"/><path d="M357.72,161.67h3.07l5.76-24h-3.89l.72-2.93h6.86l-1,4.27c1.68-2.5,4.18-4.66,7.39-4.66,4.51,0,7.58,3.36,7.58,8.45,0,7.1-5.09,12.82-10.9,12.82a7,7,0,0,1-6.67-4.75l-2.5,10.85h4.18l-.72,2.88H357Zm23-18.48c0-3.55-1.82-5.9-5-5.9-4.46,0-8.06,5.09-8.06,9.75a5.13,5.13,0,0,0,5.47,5.52C377.49,152.55,380.71,147.94,380.71,143.19Z"/><path d="M391.6,145.92a7.11,7.11,0,0,0,0,1c0,3.6,3,5.71,6.53,5.71a13.3,13.3,0,0,0,6.77-1.87l-.72,3.26a13.74,13.74,0,0,1-6.72,1.49c-4.8,0-9.17-3.07-9.17-8.64,0-6.91,5.23-12.58,11.33-12.58,4.75,0,7.82,2.88,7.82,7.49a12.41,12.41,0,0,1-.77,4.13Zm.53-2.59h11.76a5.74,5.74,0,0,0,.34-2c0-2.21-1.49-4.08-4.8-4.08S393.33,139.78,392.13,143.33Z"/><path d="M411.19,147.22c0-7,4.94-12.91,10.85-12.91a6.31,6.31,0,0,1,6.38,5.09l1.3-4.85h3.22l-3.7,15a10.79,10.79,0,0,0-.34,2,1.3,1.3,0,0,0,1.34,1.49c.91,0,1.78-.82,2.74-3.22l1.68.58c-1.1,3.46-2.93,5-5.14,5a3.57,3.57,0,0,1-3.79-3.74v-.48c-1.78,2.4-4.27,4.27-7.3,4.27C414.17,155.52,411.19,152.31,411.19,147.22Zm16.32-4.37c0-3.31-1.78-5.57-5.14-5.57-4.46,0-7.63,4.75-7.63,9.7,0,3.36,1.63,5.62,4.8,5.62C424.25,152.59,427.51,147.41,427.51,142.85Z"/><path d="M445.89,137.62,443,149.33a6.48,6.48,0,0,0-.29,1.78,1.56,1.56,0,0,0,1.63,1.63c1.1,0,2.26-.58,4.27-1.92l1.25,1.78c-2.5,2-4.51,2.93-6.43,2.93-2.4,0-4.22-1.49-4.22-3.89a8.87,8.87,0,0,1,.38-2.3l2.88-11.71h-3.65l.72-2.93h3.65l1.2-4.8,3.7-1.2-1.49,6h6.24l-.72,2.93Z"/><path d="M464.32,147.22c0-7,4.94-12.91,10.85-12.91a6.31,6.31,0,0,1,6.38,5.09l1.3-4.85h3.22l-3.7,15a10.79,10.79,0,0,0-.34,2,1.3,1.3,0,0,0,1.34,1.49c.91,0,1.78-.82,2.74-3.22l1.68.58c-1.1,3.46-2.93,5-5.14,5a3.57,3.57,0,0,1-3.79-3.74v-.48c-1.78,2.4-4.27,4.27-7.3,4.27C467.3,155.52,464.32,152.31,464.32,147.22Zm16.32-4.37c0-3.31-1.78-5.57-5.14-5.57-4.46,0-7.63,4.75-7.63,9.7,0,3.36,1.63,5.62,4.8,5.62C477.38,152.59,480.65,147.41,480.65,142.85Z"/><path d="M505,151.68a8.27,8.27,0,0,1,.38-2.3l1.92-6.67a9,9,0,0,0,.34-2.4,3,3,0,0,0-3.31-3.07c-2.74,0-5.81,2.59-7,7.49l-2.64,10.42H491.3l4.42-17.52h-3.84l.72-2.93h6.82l-1.15,4.85c1.78-3,4.32-5.18,7.2-5.18a5.36,5.36,0,0,1,5.62,5.57,11.26,11.26,0,0,1-.53,3.22l-1.87,6.63a7.5,7.5,0,0,0-.34,1.78,1.38,1.38,0,0,0,1.39,1.54c1,0,1.78-.82,2.74-3.22l1.68.58c-1.06,3.31-2.74,5-5.14,5A3.7,3.7,0,0,1,505,151.68Z"/><path d="M528.07,134.3a6.5,6.5,0,0,1,6.48,4.94l3.84-16.37H534.5l.72-2.88h7.2l-6.91,29.57a8.82,8.82,0,0,0-.38,2c0,1,.48,1.49,1.34,1.49s1.82-.82,2.78-3.22l1.68.58c-1.1,3.46-3,5-5.18,5a3.55,3.55,0,0,1-3.74-3.84,1.3,1.3,0,0,1,0-.43c-1.73,2.4-4.22,4.32-7.3,4.32-4.22,0-7.34-3.22-7.34-8.3C517.36,140.07,522.36,134.3,528.07,134.3Zm5.66,8.59c0-3.36-1.87-5.62-5.28-5.62-4.42,0-7.54,4.7-7.54,9.65,0,3.36,1.78,5.67,4.94,5.67C530.47,152.59,533.73,147.6,533.73,142.9Z"/><path d="M558.83,137.62H555l.72-2.93h6.82l-1.34,5.67c2.64-3.89,4.94-6,7-6A2.57,2.57,0,0,1,571,136.9a2.65,2.65,0,0,1-2.59,2.64,2.45,2.45,0,0,1-2.45-1.92c-1.54.77-4.75,3.84-5.86,8.45l-2.3,9.07h-3.36Z"/><path d="M575,145.92a7.11,7.11,0,0,0,0,1c0,3.6,3,5.71,6.53,5.71a13.3,13.3,0,0,0,6.77-1.87l-.72,3.26a13.74,13.74,0,0,1-6.72,1.49c-4.8,0-9.17-3.07-9.17-8.64,0-6.91,5.23-12.58,11.33-12.58,4.75,0,7.83,2.88,7.83,7.49a12.41,12.41,0,0,1-.77,4.13Zm.53-2.59h11.76a5.74,5.74,0,0,0,.34-2c0-2.21-1.49-4.08-4.8-4.08S576.69,139.78,575.49,143.33Z"/><path d="M590.13,161.67h3.07l5.76-24h-3.89l.72-2.93h6.86l-1,4.27c1.68-2.5,4.18-4.66,7.39-4.66,4.51,0,7.58,3.36,7.58,8.45,0,7.1-5.09,12.82-10.9,12.82a7,7,0,0,1-6.67-4.75l-2.5,10.85h4.18l-.72,2.88H589.41Zm23-18.48c0-3.55-1.82-5.9-5-5.9-4.46,0-8.07,5.09-8.07,9.75a5.13,5.13,0,0,0,5.47,5.52C609.91,152.55,613.12,147.94,613.12,143.19Z"/><path d="M624,145.92a7.11,7.11,0,0,0,0,1c0,3.6,3,5.71,6.53,5.71a13.3,13.3,0,0,0,6.77-1.87l-.72,3.26a13.74,13.74,0,0,1-6.72,1.49c-4.8,0-9.17-3.07-9.17-8.64,0-6.91,5.23-12.58,11.33-12.58,4.75,0,7.83,2.88,7.83,7.49a12.41,12.41,0,0,1-.77,4.13Zm.53-2.59h11.76a5.74,5.74,0,0,0,.34-2c0-2.21-1.49-4.08-4.8-4.08S625.75,139.78,624.55,143.33Z"/><path d="M643.6,147.22c0-7,4.94-12.91,10.85-12.91a6.31,6.31,0,0,1,6.38,5.09l1.3-4.85h3.22l-3.7,15a10.86,10.86,0,0,0-.34,2,1.3,1.3,0,0,0,1.34,1.49c.91,0,1.78-.82,2.74-3.22l1.68.58c-1.1,3.46-2.93,5-5.14,5a3.57,3.57,0,0,1-3.79-3.74v-.48c-1.78,2.4-4.27,4.27-7.3,4.27C646.58,155.52,643.6,152.31,643.6,147.22Zm16.32-4.37c0-3.31-1.78-5.57-5.14-5.57-4.46,0-7.63,4.75-7.63,9.7,0,3.36,1.63,5.62,4.8,5.62C656.66,152.59,659.92,147.41,659.92,142.85Z"/><path d="M678.31,137.62l-2.88,11.71a6.47,6.47,0,0,0-.29,1.78,1.56,1.56,0,0,0,1.63,1.63c1.1,0,2.26-.58,4.27-1.92l1.25,1.78c-2.5,2-4.51,2.93-6.43,2.93-2.4,0-4.22-1.49-4.22-3.89a8.85,8.85,0,0,1,.38-2.3l2.88-11.71h-3.65l.72-2.93h3.65l1.2-4.8,3.7-1.2-1.49,6h6.24l-.72,2.93Z"/><path d="M705.19,134.69l-3.31,12.82a8.21,8.21,0,0,0-.29,2.21,2.85,2.85,0,0,0,3.12,2.93c2.83,0,5.91-2.69,7.11-7.49l2.59-10.46h3.36l-3.7,14.88a8.38,8.38,0,0,0-.38,2,1.34,1.34,0,0,0,1.39,1.49c.91,0,1.78-.82,2.74-3.22l1.68.58c-1.1,3.46-2.93,5-5.18,5a3.57,3.57,0,0,1-3.74-3.89,8.12,8.12,0,0,1,.1-1c-1.73,2.78-4.22,4.85-7.1,4.85a5.08,5.08,0,0,1-5.42-5.18,12.87,12.87,0,0,1,.43-3.07l2.5-9.6h-3.84l.77-2.93Z"/><path d="M736.63,151.68a8.26,8.26,0,0,1,.38-2.3l1.92-6.67a9,9,0,0,0,.34-2.4,3,3,0,0,0-3.31-3.07c-2.74,0-5.81,2.59-7,7.49l-2.64,10.42h-3.36l4.42-17.52h-3.84l.72-2.93h6.82l-1.15,4.85c1.78-3,4.32-5.18,7.2-5.18a5.36,5.36,0,0,1,5.62,5.57,11.25,11.25,0,0,1-.53,3.22l-1.87,6.63a7.52,7.52,0,0,0-.34,1.78,1.38,1.38,0,0,0,1.39,1.54c1,0,1.78-.82,2.74-3.22l1.68.58c-1.06,3.31-2.74,5-5.14,5A3.7,3.7,0,0,1,736.63,151.68Z"/><path d="M756.64,137.62l-2.88,11.71a6.47,6.47,0,0,0-.29,1.78,1.56,1.56,0,0,0,1.63,1.63c1.1,0,2.26-.58,4.27-1.92l1.25,1.78c-2.5,2-4.51,2.93-6.43,2.93-2.4,0-4.22-1.49-4.22-3.89a8.85,8.85,0,0,1,.38-2.3l2.88-11.71h-3.65l.72-2.93H754l1.2-4.8,3.7-1.2-1.49,6h6.24l-.72,2.93Z"/><path d="M766.14,151.63a10.22,10.22,0,0,1,.38-2.21l3.22-11.81h-4l.77-2.93h7.34l-4,14.88a10.26,10.26,0,0,0-.34,2,1.34,1.34,0,0,0,1.39,1.49c1,0,1.87-.82,2.78-3.22l1.68.58c-1.1,3.46-2.83,5-5.18,5A3.68,3.68,0,0,1,766.14,151.63Zm4.22-23.33a2.42,2.42,0,1,1,2.45,2.45A2.46,2.46,0,0,1,770.37,128.3Z"/><path d="M779.68,151.63a9.57,9.57,0,0,1,.34-2.11l6.19-26.64h-3.84l.72-2.88h7.15l-6.86,29.52a15.86,15.86,0,0,0-.34,2c0,1,.53,1.54,1.34,1.54,1,0,1.87-.82,2.83-3.22l1.68.58c-1.1,3.46-2.88,5-5.23,5A3.67,3.67,0,0,1,779.68,151.63Z"/><path d="M796.62,162a2.36,2.36,0,0,1,2.3-2.4,2.25,2.25,0,0,1,2.26,2.11h.1c1.15,0,3.46-1.73,7.83-7l-3.5-17.09H802l.72-2.93h5.9l3,17.09c3.55-4.61,6.91-9.36,7.63-12.43a2.76,2.76,0,0,1-2-2.59,2.47,2.47,0,0,1,2.5-2.45c1.63,0,2.78,1.2,2.78,3.31,0,3.17-2.35,7.63-9.89,17.09-6.72,8.35-9.75,10-12.77,10A3,3,0,0,1,796.62,162Z"/><path d="M825.33,146.59c0-6.34,4.94-12.29,11.57-12.29,5.62,0,8.88,4.13,8.88,8.93,0,6.38-4.94,12.29-11.57,12.29C828.59,155.52,825.33,151.44,825.33,146.59Zm17-3.36c0-3.74-2.45-6-5.62-6-4.46,0-8,4.27-8,9.41,0,3.7,2.45,6,5.62,6C838.86,152.59,842.37,148.32,842.37,143.23Z"/><path d="M857.73,134.69l-3.31,12.82a8.21,8.21,0,0,0-.29,2.21,2.85,2.85,0,0,0,3.12,2.93c2.83,0,5.91-2.69,7.11-7.49l2.59-10.46h3.36l-3.7,14.88a8.38,8.38,0,0,0-.38,2,1.34,1.34,0,0,0,1.39,1.49c.91,0,1.78-.82,2.74-3.22l1.68.58c-1.1,3.46-2.93,5-5.18,5a3.57,3.57,0,0,1-3.74-3.89,8.12,8.12,0,0,1,.1-1c-1.73,2.78-4.22,4.85-7.1,4.85a5.08,5.08,0,0,1-5.42-5.18,12.87,12.87,0,0,1,.43-3.07l2.5-9.6h-3.84l.77-2.93Z"/><path d="M889.94,137.62H886.1l.72-2.93h6.82l-1.34,5.67c2.64-3.89,4.94-6,7-6a2.57,2.57,0,0,1,2.78,2.54,2.65,2.65,0,0,1-2.59,2.64,2.45,2.45,0,0,1-2.45-1.92c-1.54.77-4.75,3.84-5.86,8.45l-2.3,9.07h-3.36Z"/><path d="M906.06,145.92a7.11,7.11,0,0,0,0,1c0,3.6,3,5.71,6.53,5.71a13.3,13.3,0,0,0,6.77-1.87l-.72,3.26a13.74,13.74,0,0,1-6.72,1.49c-4.8,0-9.17-3.07-9.17-8.64,0-6.91,5.23-12.58,11.33-12.58,4.75,0,7.83,2.88,7.83,7.49a12.41,12.41,0,0,1-.77,4.13Zm.53-2.59h11.76a5.74,5.74,0,0,0,.34-2c0-2.21-1.49-4.08-4.8-4.08S907.79,139.78,906.59,143.33Z"/><path d="M925.65,147.22c0-7,4.94-12.91,10.85-12.91a6.31,6.31,0,0,1,6.38,5.09l1.3-4.85h3.22l-3.7,15a10.86,10.86,0,0,0-.34,2,1.3,1.3,0,0,0,1.34,1.49c.91,0,1.78-.82,2.74-3.22l1.68.58c-1.1,3.46-2.93,5-5.14,5a3.57,3.57,0,0,1-3.79-3.74v-.48c-1.78,2.4-4.27,4.27-7.3,4.27C928.62,155.52,925.65,152.31,925.65,147.22ZM942,142.85c0-3.31-1.78-5.57-5.14-5.57-4.46,0-7.63,4.75-7.63,9.7,0,3.36,1.63,5.62,4.8,5.62C938.71,152.59,942,147.41,942,142.85Z"/><path d="M952.48,146.69c0-6.48,5.28-12.39,11.71-12.39,4.8,0,7.39,2.93,7.39,5.47a2.68,2.68,0,0,1-2.54,2.88A2,2,0,0,1,967,140.5a2.22,2.22,0,0,1,1-1.73,4.51,4.51,0,0,0-3.84-1.54c-4.22,0-8.21,4-8.21,9.26,0,3.65,2.4,6.1,6.19,6.1a10.65,10.65,0,0,0,6.82-2.69l-.1,3.26a11.81,11.81,0,0,1-7.11,2.35C956.51,155.52,952.48,152.21,952.48,146.69Z"/><path d="M981.66,122.88h-3.89l.72-2.88h7.15l-4.42,18.91c1.54-2.35,3.94-4.56,6.82-4.56a5.54,5.54,0,0,1,5.81,5.57,11.26,11.26,0,0,1-.53,3.22l-1.78,6.63a7.4,7.4,0,0,0-.29,1.78,1.38,1.38,0,0,0,1.39,1.54c1,0,1.78-.82,2.69-3.22l1.68.58c-1,3.31-2.64,5-5,5a3.74,3.74,0,0,1-4.08-3.79,10.33,10.33,0,0,1,.34-2.26l1.82-6.72a9,9,0,0,0,.34-2.4,3.15,3.15,0,0,0-3.41-3.07c-2.78,0-5.9,2.59-7.06,7.49l-2.4,10.42h-3.36Z"/><path d="M1018,137.62l-2.88,11.71a6.47,6.47,0,0,0-.29,1.78,1.56,1.56,0,0,0,1.63,1.63c1.1,0,2.26-.58,4.27-1.92l1.25,1.78c-2.5,2-4.51,2.93-6.43,2.93-2.4,0-4.22-1.49-4.22-3.89a8.85,8.85,0,0,1,.38-2.3l2.88-11.71h-3.65l.72-2.93h3.65l1.2-4.8,3.7-1.2-1.49,6h6.24l-.72,2.93Z"/><path d="M1033.22,122.88h-3.89L1030,120h7.15l-4.42,18.91c1.54-2.35,3.94-4.56,6.82-4.56a5.54,5.54,0,0,1,5.81,5.57,11.26,11.26,0,0,1-.53,3.22l-1.78,6.63a7.4,7.4,0,0,0-.29,1.78,1.38,1.38,0,0,0,1.39,1.54c1,0,1.78-.82,2.69-3.22l1.68.58c-1,3.31-2.64,5-5,5a3.74,3.74,0,0,1-4.08-3.79,10.33,10.33,0,0,1,.34-2.26l1.82-6.72a9,9,0,0,0,.34-2.4,3.15,3.15,0,0,0-3.41-3.07c-2.78,0-5.9,2.59-7.06,7.49l-2.4,10.42h-3.36Z"/><path d="M1054.91,145.92a7.11,7.11,0,0,0,0,1c0,3.6,3,5.71,6.53,5.71a13.3,13.3,0,0,0,6.77-1.87l-.72,3.26a13.74,13.74,0,0,1-6.72,1.49c-4.8,0-9.17-3.07-9.17-8.64,0-6.91,5.23-12.58,11.33-12.58,4.75,0,7.83,2.88,7.83,7.49a12.41,12.41,0,0,1-.77,4.13Zm.53-2.59h11.76a5.74,5.74,0,0,0,.34-2c0-2.21-1.49-4.08-4.8-4.08S1056.64,139.78,1055.44,143.33Z"/><path d="M1.39,221.67H4.46l5.76-24H6.33l.72-2.93h6.86L13,199c1.68-2.5,4.18-4.66,7.39-4.66,4.51,0,7.58,3.36,7.58,8.45,0,7.1-5.09,12.82-10.9,12.82a7,7,0,0,1-6.67-4.75l-2.5,10.85H12l-.72,2.88H.67Zm23-18.48c0-3.55-1.82-5.9-5-5.9-4.46,0-8.06,5.09-8.06,9.75a5.13,5.13,0,0,0,5.47,5.52C21.17,212.55,24.38,207.94,24.38,203.19Z"/><path d="M32,206.59c0-6.34,4.94-12.29,11.57-12.29,5.62,0,8.88,4.13,8.88,8.93,0,6.38-4.94,12.29-11.57,12.29C35.23,215.52,32,211.44,32,206.59Zm17-3.36c0-3.74-2.45-6-5.62-6-4.46,0-8,4.27-8,9.41,0,3.7,2.45,6,5.62,6C45.5,212.59,49,208.32,49,203.23Z"/><path d="M57.26,211.63a10.2,10.2,0,0,1,.38-2.21l3.22-11.81h-4l.77-2.93H65l-4,14.88a10.22,10.22,0,0,0-.34,2A1.34,1.34,0,0,0,62,213.07c1,0,1.87-.82,2.78-3.22l1.68.58c-1.1,3.46-2.83,5-5.18,5A3.68,3.68,0,0,1,57.26,211.63Zm4.22-23.33a2.42,2.42,0,1,1,2.45,2.45A2.46,2.46,0,0,1,61.49,188.3Z"/><path d="M84.1,211.68a8.27,8.27,0,0,1,.38-2.3l1.92-6.67a9,9,0,0,0,.34-2.4,3,3,0,0,0-3.31-3.07c-2.74,0-5.81,2.59-7,7.49l-2.64,10.42H70.42l4.42-17.52H71l.72-2.93h6.82l-1.15,4.85c1.78-3,4.32-5.18,7.2-5.18a5.36,5.36,0,0,1,5.62,5.57,11.26,11.26,0,0,1-.53,3.22l-1.87,6.63a7.5,7.5,0,0,0-.34,1.78,1.38,1.38,0,0,0,1.39,1.54c1,0,1.78-.82,2.74-3.22l1.68.58c-1.06,3.31-2.74,5-5.14,5A3.7,3.7,0,0,1,84.1,211.68Z"/><path d="M104.11,197.62l-2.88,11.71a6.48,6.48,0,0,0-.29,1.78,1.56,1.56,0,0,0,1.63,1.63c1.1,0,2.26-.58,4.27-1.92l1.25,1.78c-2.5,2-4.51,2.93-6.43,2.93-2.4,0-4.22-1.49-4.22-3.89a8.87,8.87,0,0,1,.38-2.3l2.88-11.71H97.05l.72-2.93h3.65l1.2-4.8,3.7-1.2-1.49,6h6.24l-.72,2.93Z"/><path d="M125.52,197.62h-3.74l.77-2.93h5.9l1.06,16,7.73-13.54h1.63l3,14c3-4.46,5.52-8.88,5.9-11.91a2.52,2.52,0,0,1,.48-5c1.58,0,2.78,1.2,2.78,3.17,0,3.79-3.31,10.08-9.26,18.34h-1.68l-2.88-13.3-8.06,13.3h-1.87Z"/><path d="M161.47,182.88h-3.89l.72-2.88h7.15L161,198.91c1.54-2.35,3.94-4.56,6.82-4.56a5.54,5.54,0,0,1,5.81,5.57,11.26,11.26,0,0,1-.53,3.22l-1.78,6.63a7.42,7.42,0,0,0-.29,1.78,1.38,1.38,0,0,0,1.39,1.54c1,0,1.78-.82,2.69-3.22l1.68.58c-1,3.31-2.64,5-5,5a3.74,3.74,0,0,1-4.08-3.79,10.27,10.27,0,0,1,.34-2.26l1.82-6.72a9,9,0,0,0,.34-2.4,3.15,3.15,0,0,0-3.41-3.07c-2.78,0-5.9,2.59-7.06,7.49l-2.4,10.42H154Z"/><path d="M183.17,205.92a7.11,7.11,0,0,0,0,1c0,3.6,3,5.71,6.53,5.71a13.3,13.3,0,0,0,6.77-1.87L195.7,214a13.74,13.74,0,0,1-6.72,1.49c-4.8,0-9.17-3.07-9.17-8.64,0-6.91,5.23-12.58,11.33-12.58,4.75,0,7.82,2.88,7.82,7.49a12.41,12.41,0,0,1-.77,4.13Zm.53-2.59h11.76a5.74,5.74,0,0,0,.34-2c0-2.21-1.49-4.08-4.8-4.08S184.89,199.78,183.69,203.33Z"/><path d="M207.26,197.62h-3.84l.72-2.93H211l-1.34,5.67c2.64-3.89,4.94-6,7-6a2.57,2.57,0,0,1,2.78,2.54,2.65,2.65,0,0,1-2.59,2.64,2.45,2.45,0,0,1-2.45-1.92c-1.54.77-4.75,3.84-5.86,8.45l-2.3,9.07h-3.36Z"/><path d="M223.39,205.92a7.11,7.11,0,0,0,0,1c0,3.6,3,5.71,6.53,5.71a13.3,13.3,0,0,0,6.77-1.87l-.72,3.26a13.74,13.74,0,0,1-6.72,1.49c-4.8,0-9.17-3.07-9.17-8.64,0-6.91,5.23-12.58,11.33-12.58,4.75,0,7.82,2.88,7.82,7.49a12.41,12.41,0,0,1-.77,4.13Zm.53-2.59h11.76a5.74,5.74,0,0,0,.34-2c0-2.21-1.49-4.08-4.8-4.08S225.12,199.78,223.92,203.33Z"/><path d="M247.05,222a2.36,2.36,0,0,1,2.3-2.4,2.25,2.25,0,0,1,2.26,2.11h.1c1.15,0,3.46-1.73,7.82-7L256,197.62h-3.65l.72-2.93H259l3,17.09c3.55-4.61,6.91-9.36,7.63-12.43a2.76,2.76,0,0,1-2-2.59,2.47,2.47,0,0,1,2.5-2.45c1.63,0,2.78,1.2,2.78,3.31,0,3.17-2.35,7.63-9.89,17.09-6.72,8.35-9.74,10-12.77,10A3,3,0,0,1,247.05,222Z"/><path d="M275.76,206.59c0-6.34,4.94-12.29,11.57-12.29,5.62,0,8.88,4.13,8.88,8.93,0,6.38-4.94,12.29-11.57,12.29C279,215.52,275.76,211.44,275.76,206.59Zm17-3.36c0-3.74-2.45-6-5.62-6-4.46,0-8,4.27-8,9.41,0,3.7,2.45,6,5.62,6C289.3,212.59,292.8,208.32,292.8,203.23Z"/><path d="M308.16,194.69l-3.31,12.82a8.17,8.17,0,0,0-.29,2.21,2.85,2.85,0,0,0,3.12,2.93c2.83,0,5.9-2.69,7.1-7.49l2.59-10.46h3.36L317,209.57a8.39,8.39,0,0,0-.38,2,1.34,1.34,0,0,0,1.39,1.49c.91,0,1.78-.82,2.74-3.22l1.68.58c-1.1,3.46-2.93,5-5.18,5a3.57,3.57,0,0,1-3.74-3.89,8,8,0,0,1,.1-1c-1.73,2.78-4.22,4.85-7.1,4.85a5.08,5.08,0,0,1-5.42-5.18,12.82,12.82,0,0,1,.43-3.07l2.5-9.6h-3.84l.77-2.93Z"/><path d="M342.72,182.88h-3.89l.72-2.88h7.15l-4.42,18.91c1.54-2.35,3.94-4.56,6.82-4.56a5.54,5.54,0,0,1,5.81,5.57,11.26,11.26,0,0,1-.53,3.22l-1.78,6.63a7.42,7.42,0,0,0-.29,1.78,1.38,1.38,0,0,0,1.39,1.54c1,0,1.78-.82,2.69-3.22l1.68.58c-1,3.31-2.64,5-5,5a3.74,3.74,0,0,1-4.08-3.79,10.27,10.27,0,0,1,.34-2.26l1.82-6.72a9,9,0,0,0,.34-2.4,3.15,3.15,0,0,0-3.41-3.07c-2.78,0-5.9,2.59-7.06,7.49l-2.4,10.42h-3.36Z"/><path d="M361.15,207.22c0-7,4.94-12.91,10.85-12.91a6.31,6.31,0,0,1,6.38,5.09l1.3-4.85h3.22l-3.7,15a10.79,10.79,0,0,0-.34,2,1.3,1.3,0,0,0,1.34,1.49c.91,0,1.78-.82,2.74-3.22l1.68.58c-1.1,3.46-2.93,5-5.14,5a3.57,3.57,0,0,1-3.79-3.74v-.48c-1.78,2.4-4.27,4.27-7.3,4.27C364.13,215.52,361.15,212.31,361.15,207.22Zm16.32-4.37c0-3.31-1.78-5.57-5.14-5.57-4.46,0-7.63,4.75-7.63,9.7,0,3.36,1.63,5.62,4.8,5.62C374.21,212.59,377.47,207.41,377.47,202.85Z"/><path d="M390.77,197.62h-3.7l.77-2.93h6l2.5,16.95c3.79-4.22,6.82-9,7.68-12.24a2.56,2.56,0,0,1-1.92-2.5,2.51,2.51,0,0,1,2.54-2.59c1.54,0,2.78,1.2,2.78,3.31,0,3.94-5,11.71-11.42,18.19h-1.87Z"/><path d="M413.76,205.92a7.11,7.11,0,0,0,0,1c0,3.6,3,5.71,6.53,5.71a13.3,13.3,0,0,0,6.77-1.87l-.72,3.26a13.74,13.74,0,0,1-6.72,1.49c-4.8,0-9.17-3.07-9.17-8.64,0-6.91,5.23-12.58,11.33-12.58,4.75,0,7.82,2.88,7.82,7.49a12.41,12.41,0,0,1-.77,4.13Zm.53-2.59H426a5.74,5.74,0,0,0,.34-2c0-2.21-1.49-4.08-4.8-4.08S415.49,199.78,414.29,203.33Z"/><path d="M443.76,212.83a3.62,3.62,0,0,1-1.2-2.54,2.35,2.35,0,0,1,2.26-2.5,2,2,0,0,1,2.06,2,2.41,2.41,0,0,1-.62,1.54,3.29,3.29,0,0,0,.82.58,8.86,8.86,0,0,0,4.08.91c2.26,0,4.13-1,4.13-2.83s-2-2.83-4.22-3.89c-3-1.39-5.66-2.74-5.66-5.81,0-3.26,2.74-5.86,7.39-5.86a8.81,8.81,0,0,1,6.29,2.21,3.46,3.46,0,0,1,1.15,2.5,2.26,2.26,0,0,1-2.16,2.45,2.05,2.05,0,0,1-2.11-2,3.1,3.1,0,0,1,.53-1.54,4.31,4.31,0,0,0-.72-.43,7.78,7.78,0,0,0-3.07-.58c-2.4,0-4,1.1-4,2.69s2,2.54,4.37,3.7c2.88,1.34,5.57,2.88,5.57,6,0,3.94-3.36,6-7.63,6A10.55,10.55,0,0,1,443.76,212.83Z"/><path d="M463.25,206.59c0-6.34,4.94-12.29,11.57-12.29,5.62,0,8.88,4.13,8.88,8.93,0,6.38-4.94,12.29-11.57,12.29C466.51,215.52,463.25,211.44,463.25,206.59Zm17-3.36c0-3.74-2.45-6-5.62-6-4.46,0-8,4.27-8,9.41,0,3.7,2.45,6,5.62,6C476.78,212.59,480.29,208.32,480.29,203.23Z"/><path d="M498.81,211.63a10.2,10.2,0,0,1,.38-2.21l3.22-11.81h-4l.77-2.93h7.34l-4,14.88a10.22,10.22,0,0,0-.34,2,1.34,1.34,0,0,0,1.39,1.49c1,0,1.87-.82,2.78-3.22l1.68.58c-1.1,3.46-2.83,5-5.18,5A3.68,3.68,0,0,1,498.81,211.63ZM503,188.3a2.42,2.42,0,1,1,2.45,2.45A2.46,2.46,0,0,1,503,188.3Z"/><path d="M525.65,211.68a8.27,8.27,0,0,1,.38-2.3l1.92-6.67a9,9,0,0,0,.34-2.4,3,3,0,0,0-3.31-3.07c-2.74,0-5.81,2.59-7,7.49l-2.64,10.42H512l4.42-17.52h-3.84l.72-2.93h6.82l-1.15,4.85c1.78-3,4.32-5.18,7.2-5.18a5.36,5.36,0,0,1,5.62,5.57,11.26,11.26,0,0,1-.53,3.22l-1.87,6.63a7.5,7.5,0,0,0-.34,1.78,1.38,1.38,0,0,0,1.39,1.54c1,0,1.78-.82,2.74-3.22l1.68.58c-1.06,3.31-2.74,5-5.14,5A3.7,3.7,0,0,1,525.65,211.68Z"/><path d="M545.66,197.62l-2.88,11.71a6.48,6.48,0,0,0-.29,1.78,1.56,1.56,0,0,0,1.63,1.63c1.1,0,2.26-.58,4.27-1.92l1.25,1.78c-2.5,2-4.51,2.93-6.43,2.93-2.4,0-4.22-1.49-4.22-3.89a8.87,8.87,0,0,1,.38-2.3l2.88-11.71h-3.65l.72-2.93H543l1.2-4.8,3.7-1.2-1.49,6h6.24l-.72,2.93Z"/><path d="M557.33,205.92a7.11,7.11,0,0,0,0,1c0,3.6,3,5.71,6.53,5.71a13.3,13.3,0,0,0,6.77-1.87l-.72,3.26a13.74,13.74,0,0,1-6.72,1.49c-4.8,0-9.17-3.07-9.17-8.64,0-6.91,5.23-12.58,11.33-12.58,4.75,0,7.83,2.88,7.83,7.49a12.41,12.41,0,0,1-.77,4.13Zm.53-2.59h11.76a5.74,5.74,0,0,0,.34-2c0-2.21-1.49-4.08-4.8-4.08S559.05,199.78,557.85,203.33Z"/><path d="M581.42,197.62h-3.84l.72-2.93h6.82l-1.34,5.67c2.64-3.89,4.94-6,7-6a2.57,2.57,0,0,1,2.78,2.54,2.65,2.65,0,0,1-2.59,2.64,2.45,2.45,0,0,1-2.45-1.92c-1.54.77-4.75,3.84-5.86,8.45l-2.3,9.07H577Z"/><path d="M609,211.68a8.26,8.26,0,0,1,.38-2.3l1.92-6.67a9,9,0,0,0,.34-2.4,3,3,0,0,0-3.31-3.07c-2.74,0-5.81,2.59-7,7.49l-2.64,10.42h-3.36l4.42-17.52h-3.84l.72-2.93h6.82l-1.15,4.85c1.78-3,4.32-5.18,7.2-5.18a5.36,5.36,0,0,1,5.62,5.57,11.25,11.25,0,0,1-.53,3.22l-1.87,6.63a7.52,7.52,0,0,0-.34,1.78,1.38,1.38,0,0,0,1.39,1.54c1,0,1.78-.82,2.74-3.22l1.68.58c-1.06,3.31-2.74,5-5.14,5A3.7,3.7,0,0,1,609,211.68Z"/><path d="M621.36,207.22c0-7,4.94-12.91,10.85-12.91a6.31,6.31,0,0,1,6.38,5.09l1.3-4.85h3.22l-3.7,15a10.86,10.86,0,0,0-.34,2,1.3,1.3,0,0,0,1.34,1.49c.91,0,1.78-.82,2.74-3.22l1.68.58c-1.1,3.46-2.93,5-5.14,5a3.57,3.57,0,0,1-3.79-3.74v-.48c-1.78,2.4-4.27,4.27-7.3,4.27C624.33,215.52,621.36,212.31,621.36,207.22Zm16.32-4.37c0-3.31-1.78-5.57-5.14-5.57-4.46,0-7.63,4.75-7.63,9.7,0,3.36,1.63,5.62,4.8,5.62C634.41,212.59,637.68,207.41,637.68,202.85Z"/><path d="M648.71,211.63a9.57,9.57,0,0,1,.34-2.11l6.19-26.64H651.4l.72-2.88h7.15l-6.86,29.52a15.86,15.86,0,0,0-.34,2c0,1,.53,1.54,1.34,1.54,1,0,1.87-.82,2.83-3.22l1.68.58c-1.1,3.46-2.88,5-5.23,5A3.67,3.67,0,0,1,648.71,211.63Z"/><path d="M662.68,211.63a10.22,10.22,0,0,1,.38-2.21l3.22-11.81h-4l.77-2.93h7.34l-4,14.88a10.26,10.26,0,0,0-.34,2,1.34,1.34,0,0,0,1.39,1.49c1,0,1.87-.82,2.78-3.22l1.68.58c-1.1,3.46-2.83,5-5.18,5A3.68,3.68,0,0,1,662.68,211.63Zm4.22-23.33a2.42,2.42,0,1,1,2.45,2.45A2.46,2.46,0,0,1,666.91,188.3Z"/><path d="M674,213.79l16.9-16.37h-9.75l-1,3.94h-3l1.63-6.67H694.8l1,1.78-16.32,15.79a7.85,7.85,0,0,1,3-.53c2.16,0,4.13.91,6,.91,2.06,0,2.69-1,3.74-4l1.63.38c-.91,3.89-1.92,6.53-5.57,6.53-2.35,0-5.38-1.3-7.87-1.3a10.1,10.1,0,0,0-5.09,1.25Z"/><path d="M700.94,205.92a7.11,7.11,0,0,0,0,1c0,3.6,3,5.71,6.53,5.71a13.3,13.3,0,0,0,6.77-1.87l-.72,3.26a13.74,13.74,0,0,1-6.72,1.49c-4.8,0-9.17-3.07-9.17-8.64,0-6.91,5.23-12.58,11.33-12.58,4.75,0,7.83,2.88,7.83,7.49a12.41,12.41,0,0,1-.77,4.13Zm.53-2.59h11.76a5.74,5.74,0,0,0,.34-2c0-2.21-1.49-4.08-4.8-4.08S702.67,199.78,701.47,203.33Z"/><path d="M731.28,194.3a6.51,6.51,0,0,1,6.48,4.94l3.84-16.37h-3.89l.72-2.88h7.2l-6.91,29.57a8.81,8.81,0,0,0-.38,2c0,1,.48,1.49,1.34,1.49s1.82-.82,2.78-3.22l1.68.58c-1.1,3.46-3,5-5.18,5a3.55,3.55,0,0,1-3.75-3.84,1.31,1.31,0,0,1,0-.43c-1.73,2.4-4.22,4.32-7.3,4.32-4.22,0-7.34-3.22-7.34-8.3C720.57,200.07,725.56,194.3,731.28,194.3Zm5.66,8.59c0-3.36-1.87-5.62-5.28-5.62-4.42,0-7.54,4.7-7.54,9.65,0,3.36,1.78,5.67,4.94,5.67C733.67,212.59,736.94,207.6,736.94,202.9Z"/><path d="M765.35,197.62l-2.88,11.71a6.47,6.47,0,0,0-.29,1.78,1.56,1.56,0,0,0,1.63,1.63c1.1,0,2.26-.58,4.27-1.92l1.25,1.78c-2.5,2-4.51,2.93-6.43,2.93-2.4,0-4.22-1.49-4.22-3.89a8.85,8.85,0,0,1,.38-2.3l2.88-11.71H758.3l.72-2.93h3.65l1.2-4.8,3.7-1.2-1.49,6h6.24l-.72,2.93Z"/><path d="M780.62,182.88h-3.89l.72-2.88h7.15l-4.42,18.91c1.54-2.35,3.94-4.56,6.82-4.56a5.54,5.54,0,0,1,5.81,5.57,11.26,11.26,0,0,1-.53,3.22l-1.78,6.63a7.4,7.4,0,0,0-.29,1.78,1.38,1.38,0,0,0,1.39,1.54c1,0,1.78-.82,2.69-3.22l1.68.58c-1,3.31-2.64,5-5,5a3.74,3.74,0,0,1-4.08-3.79,10.33,10.33,0,0,1,.34-2.26l1.82-6.72a9,9,0,0,0,.34-2.4,3.15,3.15,0,0,0-3.41-3.07c-2.78,0-5.9,2.59-7.06,7.49l-2.4,10.42h-3.36Z"/><path d="M799,206.59c0-6.34,4.94-12.29,11.57-12.29,5.62,0,8.88,4.13,8.88,8.93,0,6.38-4.94,12.29-11.57,12.29C802.27,215.52,799,211.44,799,206.59Zm17-3.36c0-3.74-2.45-6-5.62-6-4.46,0-8,4.27-8,9.41,0,3.7,2.45,6,5.62,6C812.54,212.59,816,208.32,816,203.23Z"/><path d="M823.34,212.83a3.62,3.62,0,0,1-1.2-2.54,2.34,2.34,0,0,1,2.26-2.5,2,2,0,0,1,2.06,2,2.41,2.41,0,0,1-.62,1.54,3.3,3.3,0,0,0,.82.58,8.85,8.85,0,0,0,4.08.91c2.26,0,4.13-1,4.13-2.83s-2-2.83-4.22-3.89c-3-1.39-5.67-2.74-5.67-5.81,0-3.26,2.74-5.86,7.39-5.86a8.81,8.81,0,0,1,6.29,2.21,3.46,3.46,0,0,1,1.15,2.5,2.26,2.26,0,0,1-2.16,2.45,2.05,2.05,0,0,1-2.11-2,3.1,3.1,0,0,1,.53-1.54,4.31,4.31,0,0,0-.72-.43,7.78,7.78,0,0,0-3.07-.58c-2.4,0-4,1.1-4,2.69s2,2.54,4.37,3.7c2.88,1.34,5.57,2.88,5.57,6,0,3.94-3.36,6-7.63,6A10.55,10.55,0,0,1,823.34,212.83Z"/><path d="M846.14,205.92a7.11,7.11,0,0,0,0,1c0,3.6,3,5.71,6.53,5.71a13.3,13.3,0,0,0,6.77-1.87l-.72,3.26a13.74,13.74,0,0,1-6.72,1.49c-4.8,0-9.17-3.07-9.17-8.64,0-6.91,5.23-12.58,11.33-12.58,4.75,0,7.83,2.88,7.83,7.49a12.41,12.41,0,0,1-.77,4.13Zm.53-2.59h11.76a5.74,5.74,0,0,0,.34-2c0-2.21-1.49-4.08-4.8-4.08S847.87,199.78,846.67,203.33Z"/><path d="M876.14,212.83a3.62,3.62,0,0,1-1.2-2.54,2.34,2.34,0,0,1,2.26-2.5,2,2,0,0,1,2.06,2,2.41,2.41,0,0,1-.62,1.54,3.3,3.3,0,0,0,.82.58,8.85,8.85,0,0,0,4.08.91c2.26,0,4.13-1,4.13-2.83s-2-2.83-4.22-3.89c-3-1.39-5.67-2.74-5.67-5.81,0-3.26,2.74-5.86,7.39-5.86a8.81,8.81,0,0,1,6.29,2.21,3.46,3.46,0,0,1,1.15,2.5,2.26,2.26,0,0,1-2.16,2.45,2.05,2.05,0,0,1-2.11-2,3.1,3.1,0,0,1,.53-1.54,4.31,4.31,0,0,0-.72-.43,7.78,7.78,0,0,0-3.07-.58c-2.4,0-4,1.1-4,2.69s2,2.54,4.37,3.7c2.88,1.34,5.57,2.88,5.57,6,0,3.94-3.36,6-7.63,6A10.55,10.55,0,0,1,876.14,212.83Z"/><path d="M895.39,215.14l7.49-32.26H899l.72-2.88h7.15l-5.76,24.72c6-2.45,9.17-4.61,10-5.9a2.39,2.39,0,0,1-1.2-2,2.46,2.46,0,0,1,2.5-2.54,2.51,2.51,0,0,1,2.45,2.74c0,2.93-3.65,5.86-8.45,8.16l2.16,5.14a7.58,7.58,0,0,0,1.1,2.21,1.28,1.28,0,0,0,1.1.48c.77,0,1.54-.77,2.26-3.74l1.78.53c-1,4.51-2.69,5.66-4.61,5.66a3.8,3.8,0,0,1-2.69-1,6.92,6.92,0,0,1-1.78-2.74l-2.3-5.57c-1,.43-2,.86-2.83,1.2l-1.82,7.73Z"/><path d="M919.72,211.63a10.22,10.22,0,0,1,.38-2.21l3.22-11.81h-4l.77-2.93h7.34l-4,14.88a10.26,10.26,0,0,0-.34,2,1.34,1.34,0,0,0,1.39,1.49c1,0,1.87-.82,2.78-3.22l1.68.58c-1.1,3.46-2.83,5-5.18,5A3.68,3.68,0,0,1,919.72,211.63Zm4.22-23.33a2.42,2.42,0,1,1,2.45,2.45A2.46,2.46,0,0,1,923.95,188.3Z"/><path d="M933.26,211.63a9.57,9.57,0,0,1,.34-2.11l6.19-26.64h-3.84l.72-2.88h7.15L937,209.52a15.86,15.86,0,0,0-.34,2c0,1,.53,1.54,1.34,1.54,1,0,1.87-.82,2.83-3.22l1.68.58c-1.1,3.46-2.88,5-5.23,5A3.67,3.67,0,0,1,933.26,211.63Z"/><path d="M946.6,211.63a9.57,9.57,0,0,1,.34-2.11l6.19-26.64h-3.84L950,180h7.15l-6.87,29.52a15.86,15.86,0,0,0-.34,2c0,1,.53,1.54,1.34,1.54,1,0,1.87-.82,2.83-3.22l1.68.58c-1.1,3.46-2.88,5-5.23,5A3.67,3.67,0,0,1,946.6,211.63Z"/><path d="M959.71,212.83a3.62,3.62,0,0,1-1.2-2.54,2.34,2.34,0,0,1,2.26-2.5,2,2,0,0,1,2.06,2,2.41,2.41,0,0,1-.62,1.54,3.3,3.3,0,0,0,.82.58,8.85,8.85,0,0,0,4.08.91c2.26,0,4.13-1,4.13-2.83s-2-2.83-4.22-3.89c-3-1.39-5.67-2.74-5.67-5.81,0-3.26,2.74-5.86,7.39-5.86a8.81,8.81,0,0,1,6.29,2.21,3.46,3.46,0,0,1,1.15,2.5A2.26,2.26,0,0,1,974,201.6a2.05,2.05,0,0,1-2.11-2,3.1,3.1,0,0,1,.53-1.54,4.31,4.31,0,0,0-.72-.43,7.78,7.78,0,0,0-3.07-.58c-2.4,0-4,1.1-4,2.69s2,2.54,4.37,3.7c2.88,1.34,5.57,2.88,5.57,6,0,3.94-3.36,6-7.63,6A10.55,10.55,0,0,1,959.71,212.83Z"/><path d="M997.43,197.62l-2.88,11.71a6.47,6.47,0,0,0-.29,1.78,1.56,1.56,0,0,0,1.63,1.63c1.1,0,2.26-.58,4.27-1.92l1.25,1.78c-2.5,2-4.51,2.93-6.43,2.93-2.4,0-4.22-1.49-4.22-3.89a8.85,8.85,0,0,1,.38-2.3L994,197.62h-3.65l.72-2.93h3.65l1.2-4.8,3.7-1.2-1.49,6h6.24l-.72,2.93Z"/><path d="M1012.7,182.88h-3.89l.72-2.88h7.15l-4.42,18.91c1.54-2.35,3.94-4.56,6.82-4.56a5.54,5.54,0,0,1,5.81,5.57,11.26,11.26,0,0,1-.53,3.22l-1.78,6.63a7.4,7.4,0,0,0-.29,1.78,1.38,1.38,0,0,0,1.39,1.54c1,0,1.78-.82,2.69-3.22l1.68.58c-1,3.31-2.64,5-5,5a3.74,3.74,0,0,1-4.08-3.79,10.33,10.33,0,0,1,.34-2.26l1.82-6.72a9,9,0,0,0,.34-2.4,3.15,3.15,0,0,0-3.41-3.07c-2.78,0-5.9,2.59-7.06,7.49l-2.4,10.42h-3.36Z"/><path d="M1031.13,207.22c0-7,4.94-12.91,10.85-12.91a6.31,6.31,0,0,1,6.38,5.09l1.3-4.85h3.22l-3.7,15a10.86,10.86,0,0,0-.34,2,1.3,1.3,0,0,0,1.34,1.49c.91,0,1.78-.82,2.74-3.22l1.68.58c-1.1,3.46-2.93,5-5.14,5a3.57,3.57,0,0,1-3.79-3.74v-.48c-1.78,2.4-4.27,4.27-7.3,4.27C1034.1,215.52,1031.13,212.31,1031.13,207.22Zm16.32-4.37c0-3.31-1.78-5.57-5.14-5.57-4.46,0-7.63,4.75-7.63,9.7,0,3.36,1.63,5.62,4.8,5.62C1044.19,212.59,1047.45,207.41,1047.45,202.85Z"/><path d="M1065.83,197.62,1063,209.33a6.47,6.47,0,0,0-.29,1.78,1.56,1.56,0,0,0,1.63,1.63c1.1,0,2.26-.58,4.27-1.92l1.25,1.78c-2.5,2-4.51,2.93-6.43,2.93-2.4,0-4.22-1.49-4.22-3.89a8.85,8.85,0,0,1,.38-2.3l2.88-11.71h-3.65l.72-2.93h3.65l1.2-4.8,3.7-1.2-1.49,6h6.24l-.72,2.93Z"/><path d="M131,257.62l-2.88,11.71a6.48,6.48,0,0,0-.29,1.78,1.56,1.56,0,0,0,1.63,1.63c1.1,0,2.26-.58,4.27-1.92l1.25,1.78c-2.5,2-4.51,2.93-6.43,2.93-2.4,0-4.22-1.49-4.22-3.89a8.87,8.87,0,0,1,.38-2.3l2.88-11.71H124l.72-2.93h3.65l1.2-4.8,3.7-1.2-1.49,6H138l-.72,2.93Z"/><path d="M146.3,242.88h-3.89l.72-2.88h7.15l-4.42,18.91c1.54-2.35,3.94-4.56,6.82-4.56a5.54,5.54,0,0,1,5.81,5.57,11.26,11.26,0,0,1-.53,3.22l-1.78,6.63a7.42,7.42,0,0,0-.29,1.78,1.38,1.38,0,0,0,1.39,1.54c1,0,1.78-.82,2.69-3.22l1.68.58c-1,3.31-2.64,5-5,5a3.74,3.74,0,0,1-4.08-3.79,10.27,10.27,0,0,1,.34-2.26l1.82-6.72a9,9,0,0,0,.34-2.4,3.15,3.15,0,0,0-3.41-3.07c-2.78,0-5.9,2.59-7.06,7.49l-2.4,10.42h-3.36Z"/><path d="M168,265.92a7.11,7.11,0,0,0,0,1c0,3.6,3,5.71,6.53,5.71a13.3,13.3,0,0,0,6.77-1.87l-.72,3.26a13.74,13.74,0,0,1-6.72,1.49c-4.8,0-9.17-3.07-9.17-8.64,0-6.91,5.23-12.58,11.33-12.58,4.75,0,7.82,2.88,7.82,7.49a12.41,12.41,0,0,1-.77,4.13Zm.53-2.59h11.76a5.74,5.74,0,0,0,.34-2c0-2.21-1.49-4.08-4.8-4.08S169.73,259.78,168.53,263.33Z"/><path d="M181.63,282a2.36,2.36,0,0,1,2.3-2.4,2.25,2.25,0,0,1,2.26,2.11h.1c1.15,0,3.46-1.73,7.82-7l-3.5-17.09H187l.72-2.93h5.9l3,17.09c3.55-4.61,6.91-9.36,7.63-12.43a2.76,2.76,0,0,1-2-2.59,2.47,2.47,0,0,1,2.5-2.45c1.63,0,2.78,1.2,2.78,3.31,0,3.17-2.35,7.63-9.89,17.09-6.72,8.35-9.74,10-12.77,10A3,3,0,0,1,181.63,282Z"/><path d="M227.62,242.88h-3.89l.72-2.88h7.15l-4.37,18.63c1.63-2.35,4.13-4.32,7.1-4.32,4.61,0,7.68,3.36,7.68,8.45,0,7.1-5.09,12.82-10.85,12.82a6.49,6.49,0,0,1-6.62-5l-1.2,4.56h-3.22Zm10.85,20.31c0-3.55-1.82-5.9-5-5.9-4.46,0-8,5.09-8,9.75,0,3.26,2,5.52,5.42,5.52C235.25,272.55,238.46,267.94,238.46,263.19Z"/><path d="M249.36,265.92a7.11,7.11,0,0,0,0,1c0,3.6,3,5.71,6.53,5.71a13.3,13.3,0,0,0,6.77-1.87l-.72,3.26a13.74,13.74,0,0,1-6.72,1.49c-4.8,0-9.17-3.07-9.17-8.64,0-6.91,5.23-12.58,11.33-12.58,4.75,0,7.82,2.88,7.82,7.49a12.41,12.41,0,0,1-.77,4.13Zm.53-2.59h11.76a5.74,5.74,0,0,0,.34-2c0-2.21-1.49-4.08-4.8-4.08S251.09,259.78,249.89,263.33Z"/><path d="M268.9,266.69c0-6.48,5.28-12.39,11.71-12.39,4.8,0,7.39,2.93,7.39,5.47a2.68,2.68,0,0,1-2.54,2.88,2,2,0,0,1-2.06-2.16,2.22,2.22,0,0,1,1-1.73,4.5,4.5,0,0,0-3.84-1.54c-4.22,0-8.21,4-8.21,9.26,0,3.65,2.4,6.1,6.19,6.1a10.65,10.65,0,0,0,6.82-2.69l-.1,3.26a11.8,11.8,0,0,1-7.1,2.35C272.93,275.52,268.9,272.21,268.9,266.69Z"/><path d="M291.17,266.59c0-6.34,4.94-12.29,11.57-12.29,5.62,0,8.88,4.13,8.88,8.93,0,6.38-4.94,12.29-11.57,12.29C294.43,275.52,291.17,271.44,291.17,266.59Zm17-3.36c0-3.74-2.45-6-5.62-6-4.46,0-8,4.27-8,9.41,0,3.7,2.45,6,5.62,6C304.7,272.59,308.21,268.32,308.21,263.23Z"/><path d="M319.63,257.62h-3.84l.72-2.93h6.82l-1.2,4.85c1.82-3,4.32-5.18,7-5.18a5,5,0,0,1,5.28,5.14c1.92-3.17,4.51-5.14,7.1-5.14a5.23,5.23,0,0,1,5.33,5.57,11.26,11.26,0,0,1-.53,3.22l-1.92,6.63a10.3,10.3,0,0,0-.29,1.78,1.38,1.38,0,0,0,1.39,1.54c.91,0,1.78-.82,2.74-3.22l1.68.58c-1.06,3.31-2.74,5-5.14,5a3.7,3.7,0,0,1-4-3.79,8.27,8.27,0,0,1,.38-2.3L343,262.8a10.23,10.23,0,0,0,.38-2.5,2.85,2.85,0,0,0-3-3.07c-2.64,0-5.57,2.64-6.86,7.63l-2.64,10.27h-3.36l3.17-12.29a11.3,11.3,0,0,0,.38-2.59,2.9,2.9,0,0,0-3-3c-2.59,0-5.71,2.64-6.91,7.58l-2.59,10.32h-3.36Z"/><path d="M356.35,265.92a7.11,7.11,0,0,0,0,1c0,3.6,3,5.71,6.53,5.71a13.3,13.3,0,0,0,6.77-1.87l-.72,3.26a13.74,13.74,0,0,1-6.72,1.49c-4.8,0-9.17-3.07-9.17-8.64,0-6.91,5.23-12.58,11.33-12.58,4.75,0,7.82,2.88,7.82,7.49a12.41,12.41,0,0,1-.77,4.13Zm.53-2.59h11.76a5.74,5.74,0,0,0,.34-2c0-2.21-1.49-4.08-4.8-4.08S358.08,259.78,356.88,263.33Z"/><path d="M386,267.22c0-7,4.94-12.91,10.85-12.91a6.31,6.31,0,0,1,6.38,5.09l1.3-4.85h3.22l-3.7,15a10.79,10.79,0,0,0-.34,2,1.3,1.3,0,0,0,1.34,1.49c.91,0,1.78-.82,2.74-3.22l1.68.58c-1.1,3.46-2.93,5-5.14,5a3.57,3.57,0,0,1-3.79-3.74v-.48c-1.78,2.4-4.27,4.27-7.3,4.27C388.94,275.52,386,272.31,386,267.22Zm16.32-4.37c0-3.31-1.78-5.57-5.14-5.57-4.46,0-7.63,4.75-7.63,9.7,0,3.36,1.63,5.62,4.8,5.62C399,272.59,402.29,267.41,402.29,262.85Z"/><path d="M426.62,271.68a8.27,8.27,0,0,1,.38-2.3l1.92-6.67a9,9,0,0,0,.34-2.4,3,3,0,0,0-3.31-3.07c-2.74,0-5.81,2.59-7,7.49l-2.64,10.42h-3.36l4.42-17.52h-3.84l.72-2.93h6.82l-1.15,4.85c1.78-3,4.32-5.18,7.2-5.18a5.36,5.36,0,0,1,5.62,5.57,11.26,11.26,0,0,1-.53,3.22l-1.87,6.63a7.5,7.5,0,0,0-.34,1.78,1.38,1.38,0,0,0,1.39,1.54c1,0,1.78-.82,2.74-3.22l1.68.58c-1.06,3.31-2.74,5-5.14,5A3.7,3.7,0,0,1,426.62,271.68Z"/><path d="M457.44,254.69l-3.31,12.82a8.17,8.17,0,0,0-.29,2.21,2.85,2.85,0,0,0,3.12,2.93c2.83,0,5.9-2.69,7.1-7.49l2.59-10.46H470l-3.7,14.88a8.39,8.39,0,0,0-.38,2,1.34,1.34,0,0,0,1.39,1.49c.91,0,1.78-.82,2.74-3.22l1.68.58c-1.1,3.46-2.93,5-5.18,5a3.57,3.57,0,0,1-3.74-3.89,8,8,0,0,1,.1-1c-1.73,2.78-4.22,4.85-7.1,4.85a5.08,5.08,0,0,1-5.42-5.18,12.82,12.82,0,0,1,.43-3.07l2.5-9.6h-3.84l.77-2.93Z"/><path d="M488.88,271.68a8.27,8.27,0,0,1,.38-2.3l1.92-6.67a9,9,0,0,0,.34-2.4,3,3,0,0,0-3.31-3.07c-2.74,0-5.81,2.59-7,7.49l-2.64,10.42H475.2l4.42-17.52h-3.84l.72-2.93h6.82l-1.15,4.85c1.78-3,4.32-5.18,7.2-5.18a5.36,5.36,0,0,1,5.62,5.57,11.26,11.26,0,0,1-.53,3.22l-1.87,6.63a7.5,7.5,0,0,0-.34,1.78,1.38,1.38,0,0,0,1.39,1.54c1,0,1.78-.82,2.74-3.22l1.68.58c-1.06,3.31-2.74,5-5.14,5A3.7,3.7,0,0,1,488.88,271.68Z"/><path d="M501.16,266.69c0-6.48,5.28-12.39,11.71-12.39,4.8,0,7.39,2.93,7.39,5.47a2.68,2.68,0,0,1-2.54,2.88,2,2,0,0,1-2.06-2.16,2.22,2.22,0,0,1,1-1.73,4.5,4.5,0,0,0-3.84-1.54c-4.22,0-8.21,4-8.21,9.26,0,3.65,2.4,6.1,6.19,6.1a10.65,10.65,0,0,0,6.82-2.69l-.1,3.26a11.8,11.8,0,0,1-7.1,2.35C505.2,275.52,501.16,272.21,501.16,266.69Z"/><path d="M523.44,266.59c0-6.34,4.94-12.29,11.57-12.29,5.62,0,8.88,4.13,8.88,8.93,0,6.38-4.94,12.29-11.57,12.29C526.7,275.52,523.44,271.44,523.44,266.59Zm17-3.36c0-3.74-2.45-6-5.62-6-4.46,0-8,4.27-8,9.41,0,3.7,2.45,6,5.62,6C537,272.59,540.48,268.32,540.48,263.23Z"/><path d="M561.64,271.68a8.26,8.26,0,0,1,.38-2.3l1.92-6.67a9,9,0,0,0,.34-2.4,3,3,0,0,0-3.31-3.07c-2.74,0-5.81,2.59-7,7.49l-2.64,10.42H548l4.42-17.52h-3.84l.72-2.93h6.82l-1.15,4.85c1.78-3,4.32-5.18,7.2-5.18a5.36,5.36,0,0,1,5.62,5.57,11.25,11.25,0,0,1-.53,3.22l-1.87,6.63a7.52,7.52,0,0,0-.34,1.78,1.38,1.38,0,0,0,1.39,1.54c1,0,1.78-.82,2.74-3.22l1.68.58c-1.06,3.31-2.74,5-5.14,5A3.7,3.7,0,0,1,561.64,271.68Z"/><path d="M574.36,272.83a3.62,3.62,0,0,1-1.2-2.54,2.34,2.34,0,0,1,2.26-2.5,2,2,0,0,1,2.06,2,2.41,2.41,0,0,1-.62,1.54,3.3,3.3,0,0,0,.82.58,8.85,8.85,0,0,0,4.08.91c2.26,0,4.13-1,4.13-2.83s-2-2.83-4.22-3.89c-3-1.39-5.67-2.74-5.67-5.81,0-3.26,2.74-5.86,7.39-5.86a8.81,8.81,0,0,1,6.29,2.21,3.46,3.46,0,0,1,1.15,2.5,2.26,2.26,0,0,1-2.16,2.45,2.05,2.05,0,0,1-2.11-2,3.1,3.1,0,0,1,.53-1.54,4.31,4.31,0,0,0-.72-.43,7.78,7.78,0,0,0-3.07-.58c-2.4,0-4,1.1-4,2.69s2,2.54,4.37,3.7c2.88,1.34,5.57,2.88,5.57,6,0,3.94-3.36,6-7.63,6A10.55,10.55,0,0,1,574.36,272.83Z"/><path d="M593.85,266.69c0-6.48,5.28-12.39,11.71-12.39,4.8,0,7.39,2.93,7.39,5.47a2.68,2.68,0,0,1-2.54,2.88,2,2,0,0,1-2.06-2.16,2.22,2.22,0,0,1,1-1.73,4.51,4.51,0,0,0-3.84-1.54c-4.22,0-8.21,4-8.21,9.26,0,3.65,2.4,6.1,6.19,6.1a10.65,10.65,0,0,0,6.82-2.69l-.1,3.26a11.81,11.81,0,0,1-7.11,2.35C597.88,275.52,593.85,272.21,593.85,266.69Z"/><path d="M617.27,271.63a10.22,10.22,0,0,1,.38-2.21l3.22-11.81h-4l.77-2.93H625l-4,14.88a10.26,10.26,0,0,0-.34,2,1.34,1.34,0,0,0,1.39,1.49c1,0,1.87-.82,2.78-3.22l1.68.58c-1.1,3.46-2.83,5-5.18,5A3.68,3.68,0,0,1,617.27,271.63Zm4.22-23.33a2.42,2.42,0,1,1,2.45,2.45A2.46,2.46,0,0,1,621.5,248.3Z"/><path d="M630.28,266.59c0-6.34,4.94-12.29,11.57-12.29,5.62,0,8.88,4.13,8.88,8.93,0,6.38-4.94,12.29-11.57,12.29C633.55,275.52,630.28,271.44,630.28,266.59Zm17-3.36c0-3.74-2.45-6-5.62-6-4.46,0-8,4.27-8,9.41,0,3.7,2.45,6,5.62,6C643.82,272.59,647.32,268.32,647.32,263.23Z"/><path d="M662.68,254.69l-3.31,12.82a8.21,8.21,0,0,0-.29,2.21,2.85,2.85,0,0,0,3.12,2.93c2.83,0,5.91-2.69,7.11-7.49l2.59-10.46h3.36l-3.7,14.88a8.38,8.38,0,0,0-.38,2,1.34,1.34,0,0,0,1.39,1.49c.91,0,1.78-.82,2.74-3.22l1.68.58c-1.1,3.46-2.93,5-5.18,5a3.57,3.57,0,0,1-3.74-3.89,8.12,8.12,0,0,1,.1-1c-1.73,2.78-4.22,4.85-7.1,4.85a5.08,5.08,0,0,1-5.42-5.18,12.86,12.86,0,0,1,.43-3.07l2.5-9.6h-3.84l.77-2.93Z"/><path d="M680.73,272.83a3.62,3.62,0,0,1-1.2-2.54,2.34,2.34,0,0,1,2.26-2.5,2,2,0,0,1,2.06,2,2.41,2.41,0,0,1-.62,1.54,3.3,3.3,0,0,0,.82.58,8.85,8.85,0,0,0,4.08.91c2.26,0,4.13-1,4.13-2.83s-2-2.83-4.22-3.89c-3-1.39-5.67-2.74-5.67-5.81,0-3.26,2.74-5.86,7.39-5.86a8.81,8.81,0,0,1,6.29,2.21,3.46,3.46,0,0,1,1.15,2.5A2.26,2.26,0,0,1,695,261.6a2.05,2.05,0,0,1-2.11-2,3.1,3.1,0,0,1,.53-1.54,4.31,4.31,0,0,0-.72-.43,7.78,7.78,0,0,0-3.07-.58c-2.4,0-4,1.1-4,2.69s2,2.54,4.37,3.7c2.88,1.34,5.57,2.88,5.57,6,0,3.94-3.36,6-7.63,6A10.55,10.55,0,0,1,680.73,272.83Z"/><path d="M706.22,281.67h3.07l5.76-24h-3.89l.72-2.93h6.86l-1,4.27c1.68-2.5,4.18-4.66,7.39-4.66,4.51,0,7.58,3.36,7.58,8.45,0,7.1-5.09,12.82-10.9,12.82a7,7,0,0,1-6.67-4.75l-2.5,10.85h4.18l-.72,2.88H705.5Zm23-18.48c0-3.55-1.82-5.9-5-5.9-4.46,0-8.07,5.09-8.07,9.75a5.13,5.13,0,0,0,5.47,5.52C726,272.55,729.21,267.94,729.21,263.19Z"/><path d="M736.84,267.22c0-7,4.94-12.91,10.85-12.91a6.31,6.31,0,0,1,6.38,5.09l1.3-4.85h3.22l-3.7,15a10.86,10.86,0,0,0-.34,2,1.3,1.3,0,0,0,1.34,1.49c.91,0,1.78-.82,2.74-3.22l1.68.58c-1.1,3.46-2.93,5-5.14,5a3.57,3.57,0,0,1-3.79-3.74v-.48c-1.78,2.4-4.27,4.27-7.3,4.27C739.82,275.52,736.84,272.31,736.84,267.22Zm16.32-4.37c0-3.31-1.78-5.57-5.14-5.57-4.46,0-7.63,4.75-7.63,9.7,0,3.36,1.63,5.62,4.8,5.62C749.9,272.59,753.16,267.41,753.16,262.85Z"/><path d="M768.23,257.62h-3.84l.72-2.93h6.82l-1.34,5.67c2.64-3.89,4.94-6,7-6a2.57,2.57,0,0,1,2.78,2.54,2.65,2.65,0,0,1-2.59,2.64,2.45,2.45,0,0,1-2.45-1.92c-1.54.77-4.75,3.84-5.86,8.45l-2.3,9.07h-3.36Z"/><path d="M789.88,257.62,787,269.33a6.47,6.47,0,0,0-.29,1.78,1.56,1.56,0,0,0,1.63,1.63c1.1,0,2.26-.58,4.27-1.92l1.25,1.78c-2.5,2-4.51,2.93-6.43,2.93-2.4,0-4.22-1.49-4.22-3.89a8.85,8.85,0,0,1,.38-2.3l2.88-11.71h-3.65l.72-2.93h3.65l1.2-4.8,3.7-1.2-1.49,6h6.24l-.72,2.93Z"/><path d="M808.26,266.59c0-6.34,4.94-12.29,11.57-12.29,5.62,0,8.88,4.13,8.88,8.93,0,6.38-4.94,12.29-11.57,12.29C811.53,275.52,808.26,271.44,808.26,266.59Zm17-3.36c0-3.74-2.45-6-5.62-6-4.46,0-8,4.27-8,9.41,0,3.7,2.45,6,5.62,6C821.8,272.59,825.31,268.32,825.31,263.23Z"/><path d="M836.59,257.62h-3.65l.72-2.93h3.6l1.54-6.67a11.92,11.92,0,0,1,3.07-6.14,7.51,7.51,0,0,1,5.28-2.11c2.4,0,3.75,1.25,3.75,2.83a2.33,2.33,0,0,1-4.66.1,4.11,4.11,0,0,0-2,1.06,10,10,0,0,0-2.21,4.7l-1.44,6.24h5.33l-.72,2.93H839.9l-4,17.52h-3.31Z"/><path d="M851.22,282a2.36,2.36,0,0,1,2.3-2.4,2.25,2.25,0,0,1,2.26,2.11h.1c1.15,0,3.46-1.73,7.83-7l-3.5-17.09h-3.65l.72-2.93h5.9l3,17.09c3.55-4.61,6.91-9.36,7.63-12.43a2.76,2.76,0,0,1-2-2.59,2.47,2.47,0,0,1,2.5-2.45c1.63,0,2.78,1.2,2.78,3.31,0,3.17-2.35,7.63-9.89,17.09-6.72,8.35-9.74,10-12.77,10A3,3,0,0,1,851.22,282Z"/><path d="M879.93,266.59c0-6.34,4.94-12.29,11.57-12.29,5.62,0,8.88,4.13,8.88,8.93,0,6.38-4.94,12.29-11.57,12.29C883.19,275.52,879.93,271.44,879.93,266.59Zm17-3.36c0-3.74-2.45-6-5.62-6-4.46,0-8,4.27-8,9.41,0,3.7,2.45,6,5.62,6C893.47,272.59,897,268.32,897,263.23Z"/><path d="M912.33,254.69,909,267.51a8.21,8.21,0,0,0-.29,2.21,2.85,2.85,0,0,0,3.12,2.93c2.83,0,5.91-2.69,7.11-7.49l2.59-10.46h3.36l-3.7,14.88a8.38,8.38,0,0,0-.38,2,1.34,1.34,0,0,0,1.39,1.49c.91,0,1.78-.82,2.74-3.22l1.68.58c-1.1,3.46-2.93,5-5.18,5a3.57,3.57,0,0,1-3.74-3.89,8.12,8.12,0,0,1,.1-1c-1.73,2.78-4.22,4.85-7.1,4.85a5.08,5.08,0,0,1-5.42-5.18,12.87,12.87,0,0,1,.43-3.07l2.5-9.6h-3.84l.77-2.93Z"/><path d="M928.94,272.5a3,3,0,1,1,3,3A3,3,0,0,1,928.94,272.5Z"/><path d="M937.77,254.3c4-2.3,5.47-4.7,5.76-5.86a2.89,2.89,0,0,1,1.06-5.62,3.07,3.07,0,0,1,3,3.36c0,3.31-3.65,7.39-9.07,9.5Zm9.55,0c4-2.3,5.47-4.7,5.76-5.86a2.89,2.89,0,0,1,1.06-5.62,3.07,3.07,0,0,1,3,3.36c0,3.31-3.65,7.39-9.07,9.5Z"/></svg>