<svg xmlns="http://www.w3.org/2000/svg" width="575.95" height="524.74" viewBox="0 0 575.95 524.74"><title>quote-craft</title><path d="M3.38,12.34C3.38,9,7.08,4.9,12.5,2.78l.72,1.39C9.19,6.48,7.7,8.88,7.46,10a2.9,2.9,0,0,1-1.06,5.62A3.06,3.06,0,0,1,3.38,12.34Zm9.55,0c0-3.36,3.7-7.44,9.12-9.55l.72,1.39c-4,2.3-5.47,4.71-5.76,5.86a2.9,2.9,0,0,1,1.92,2.64,3,3,0,0,1-3,3A3.06,3.06,0,0,1,12.94,12.34Z"/><path d="M27.53,6.72H24.17l.72-3.17H35.59l-.72,3.17H30.94l.77,22.23L44.09,7.34h1.63L48.84,29,60.12,6.72H56.28l.77-3.17H67.71L67,6.72H63.87L48.79,35.57H46.87L43.56,14.35,31,35.57H29.11Z"/><path d="M73.13,2.88H69.24L70,0h7.15L72.7,18.91c1.54-2.35,3.94-4.56,6.82-4.56a5.54,5.54,0,0,1,5.81,5.57,11.26,11.26,0,0,1-.53,3.22L83,29.76a7.4,7.4,0,0,0-.29,1.78,1.38,1.38,0,0,0,1.39,1.54c1,0,1.78-.82,2.69-3.22l1.68.58c-1,3.31-2.64,5-5,5a3.74,3.74,0,0,1-4.08-3.79,10.33,10.33,0,0,1,.34-2.26l1.82-6.72a9,9,0,0,0,.34-2.4,3.15,3.15,0,0,0-3.41-3.07c-2.78,0-5.9,2.59-7.06,7.49L69,35.14H65.64Z"/><path d="M94.82,25.92a7.11,7.11,0,0,0,0,1c0,3.6,3,5.71,6.53,5.71a13.3,13.3,0,0,0,6.77-1.87L107.35,34a13.74,13.74,0,0,1-6.72,1.49c-4.8,0-9.17-3.07-9.17-8.64,0-6.91,5.23-12.58,11.33-12.58,4.75,0,7.83,2.88,7.83,7.49a12.41,12.41,0,0,1-.77,4.13Zm.53-2.59h11.76a5.74,5.74,0,0,0,.34-2c0-2.21-1.49-4.08-4.8-4.08S96.55,19.78,95.35,23.33Z"/><path d="M122.23,17.62l-2.88,11.71a6.47,6.47,0,0,0-.29,1.78,1.56,1.56,0,0,0,1.63,1.63c1.1,0,2.26-.58,4.27-1.92l1.25,1.78c-2.5,2-4.51,2.93-6.43,2.93-2.4,0-4.22-1.49-4.22-3.89a8.85,8.85,0,0,1,.38-2.3l2.88-11.71h-3.65l.72-2.93h3.65l1.2-4.8,3.7-1.2-1.49,6h6.24l-.72,2.93Z"/><path d="M137.5,2.88h-3.89L134.33,0h7.15l-4.42,18.91c1.54-2.35,3.94-4.56,6.82-4.56a5.54,5.54,0,0,1,5.81,5.57,11.26,11.26,0,0,1-.53,3.22l-1.78,6.63a7.4,7.4,0,0,0-.29,1.78,1.38,1.38,0,0,0,1.39,1.54c1,0,1.78-.82,2.69-3.22l1.68.58c-1,3.31-2.64,5-5,5a3.74,3.74,0,0,1-4.08-3.79,10.33,10.33,0,0,1,.34-2.26l1.82-6.72a9,9,0,0,0,.34-2.4,3.15,3.15,0,0,0-3.41-3.07c-2.78,0-5.9,2.59-7.06,7.49l-2.4,10.42H130Z"/><path d="M159.19,25.92a7.11,7.11,0,0,0,0,1c0,3.6,3,5.71,6.53,5.71a13.3,13.3,0,0,0,6.77-1.87L171.72,34A13.74,13.74,0,0,1,165,35.52c-4.8,0-9.17-3.07-9.17-8.64,0-6.91,5.23-12.58,11.33-12.58,4.75,0,7.83,2.88,7.83,7.49a12.41,12.41,0,0,1-.77,4.13Zm.53-2.59h11.76a5.74,5.74,0,0,0,.34-2c0-2.21-1.49-4.08-4.8-4.08S160.92,19.78,159.72,23.33Z"/><path d="M183.29,17.62h-3.84l.72-2.93H187l-1.34,5.67c2.64-3.89,4.94-6,7-6a2.57,2.57,0,0,1,2.78,2.54,2.65,2.65,0,0,1-2.59,2.64,2.45,2.45,0,0,1-2.45-1.92c-1.54.77-4.75,3.84-5.86,8.45l-2.3,9.07h-3.36Z"/><path d="M208.25,31.63a10.22,10.22,0,0,1,.38-2.21l3.22-11.81h-4l.77-2.93H216l-4,14.88a10.26,10.26,0,0,0-.34,2A1.34,1.34,0,0,0,213,33.07c1,0,1.87-.82,2.78-3.22l1.68.58c-1.1,3.46-2.83,5-5.18,5A3.68,3.68,0,0,1,208.25,31.63ZM212.47,8.3a2.42,2.42,0,1,1,2.45,2.45A2.46,2.46,0,0,1,212.47,8.3Z"/><path d="M229.13,17.62l-2.88,11.71a6.47,6.47,0,0,0-.29,1.78,1.56,1.56,0,0,0,1.63,1.63c1.1,0,2.26-.58,4.27-1.92l1.25,1.78c-2.5,2-4.51,2.93-6.43,2.93-2.4,0-4.22-1.49-4.22-3.89a8.85,8.85,0,0,1,.38-2.3l2.88-11.71h-3.65l.72-2.93h3.65l1.2-4.8,3.7-1.2-1.49,6h6.24l-.72,2.93Z"/><path d="M248.66,31.63a10.22,10.22,0,0,1,.38-2.21l3.22-11.81h-4l.77-2.93h7.34l-4,14.88a10.26,10.26,0,0,0-.34,2,1.34,1.34,0,0,0,1.39,1.49c1,0,1.87-.82,2.78-3.22l1.68.58c-1.1,3.46-2.83,5-5.18,5A3.68,3.68,0,0,1,248.66,31.63ZM252.89,8.3a2.42,2.42,0,1,1,2.45,2.45A2.46,2.46,0,0,1,252.89,8.3Z"/><path d="M262.1,32.83a3.62,3.62,0,0,1-1.2-2.54,2.34,2.34,0,0,1,2.26-2.5,2,2,0,0,1,2.06,2,2.41,2.41,0,0,1-.62,1.54,3.3,3.3,0,0,0,.82.58,8.85,8.85,0,0,0,4.08.91c2.26,0,4.13-1,4.13-2.83s-2-2.83-4.22-3.89c-3-1.39-5.67-2.74-5.67-5.81,0-3.26,2.74-5.86,7.39-5.86a8.81,8.81,0,0,1,6.29,2.21,3.46,3.46,0,0,1,1.15,2.5,2.26,2.26,0,0,1-2.16,2.45,2.05,2.05,0,0,1-2.11-2,3.1,3.1,0,0,1,.53-1.54,4.31,4.31,0,0,0-.72-.43A7.78,7.78,0,0,0,271,17c-2.4,0-4,1.1-4,2.69s2,2.54,4.37,3.7c2.88,1.34,5.57,2.88,5.57,6,0,3.94-3.36,6-7.63,6A10.55,10.55,0,0,1,262.1,32.83Z"/><path d="M293.11,31.63a10.22,10.22,0,0,1,.38-2.21l3.22-11.81h-4l.77-2.93h7.34l-4,14.88a10.26,10.26,0,0,0-.34,2,1.34,1.34,0,0,0,1.39,1.49c1,0,1.87-.82,2.78-3.22l1.68.58c-1.1,3.46-2.83,5-5.18,5A3.68,3.68,0,0,1,293.11,31.63ZM297.33,8.3a2.42,2.42,0,1,1,2.45,2.45A2.46,2.46,0,0,1,297.33,8.3Z"/><path d="M319.94,31.68a8.26,8.26,0,0,1,.38-2.3l1.92-6.67a9,9,0,0,0,.34-2.4,3,3,0,0,0-3.31-3.07c-2.74,0-5.81,2.59-7,7.49l-2.64,10.42h-3.36l4.42-17.52h-3.84l.72-2.93h6.82l-1.15,4.85c1.78-3,4.32-5.18,7.2-5.18A5.36,5.36,0,0,1,326,19.92a11.25,11.25,0,0,1-.53,3.22l-1.87,6.63a7.52,7.52,0,0,0-.34,1.78,1.38,1.38,0,0,0,1.39,1.54c1,0,1.78-.82,2.74-3.22l1.68.58c-1.06,3.31-2.74,5-5.14,5A3.7,3.7,0,0,1,319.94,31.68Z"/><path d="M337.89,41.67H341l5.76-24h-3.89l.72-2.93h6.86l-1,4.27c1.68-2.5,4.18-4.66,7.39-4.66,4.51,0,7.58,3.36,7.58,8.45,0,7.1-5.09,12.82-10.9,12.82a7,7,0,0,1-6.67-4.75l-2.5,10.85h4.18l-.72,2.88H337.17Zm23-18.48c0-3.55-1.82-5.9-5-5.9-4.46,0-8.07,5.09-8.07,9.75a5.13,5.13,0,0,0,5.47,5.52C357.67,32.55,360.89,27.94,360.89,23.19Z"/><path d="M368.52,27.22c0-7,4.94-12.91,10.85-12.91a6.31,6.31,0,0,1,6.38,5.09l1.3-4.85h3.22l-3.7,15a10.86,10.86,0,0,0-.34,2,1.3,1.3,0,0,0,1.34,1.49c.91,0,1.78-.82,2.74-3.22l1.68.58c-1.1,3.46-2.93,5-5.14,5a3.57,3.57,0,0,1-3.79-3.74v-.48c-1.78,2.4-4.27,4.27-7.3,4.27C371.49,35.52,368.52,32.31,368.52,27.22Zm16.32-4.37c0-3.31-1.78-5.57-5.14-5.57-4.46,0-7.63,4.75-7.63,9.7,0,3.36,1.63,5.62,4.8,5.62C381.57,32.59,384.84,27.41,384.84,22.85Z"/><path d="M396.5,31.63a10.22,10.22,0,0,1,.38-2.21l3.22-11.81h-4l.77-2.93h7.34l-4,14.88a10.26,10.26,0,0,0-.34,2,1.34,1.34,0,0,0,1.39,1.49c1,0,1.87-.82,2.78-3.22l1.68.58c-1.1,3.46-2.83,5-5.18,5A3.68,3.68,0,0,1,396.5,31.63ZM400.73,8.3a2.42,2.42,0,1,1,2.45,2.45A2.46,2.46,0,0,1,400.73,8.3Z"/><path d="M423.33,31.68a8.26,8.26,0,0,1,.38-2.3l1.92-6.67a9,9,0,0,0,.34-2.4,3,3,0,0,0-3.31-3.07c-2.74,0-5.81,2.59-7,7.49L413,35.14h-3.36l4.42-17.52h-3.84l.72-2.93h6.82l-1.15,4.85c1.78-3,4.32-5.18,7.2-5.18a5.36,5.36,0,0,1,5.62,5.57,11.25,11.25,0,0,1-.53,3.22L427,29.76a7.52,7.52,0,0,0-.34,1.78,1.38,1.38,0,0,0,1.39,1.54c1,0,1.78-.82,2.74-3.22l1.68.58c-1.06,3.31-2.74,5-5.14,5A3.7,3.7,0,0,1,423.33,31.68Z"/><path d="M443.35,17.62l-2.88,11.71a6.47,6.47,0,0,0-.29,1.78,1.56,1.56,0,0,0,1.63,1.63c1.1,0,2.26-.58,4.27-1.92l1.25,1.78c-2.5,2-4.51,2.93-6.43,2.93-2.4,0-4.22-1.49-4.22-3.89a8.85,8.85,0,0,1,.38-2.3l2.88-11.71h-3.65l.72-2.93h3.65l1.2-4.8,3.7-1.2-1.49,6h6.24l-.72,2.93Z"/><path d="M452.85,31.63a10.22,10.22,0,0,1,.38-2.21l3.22-11.81h-4l.77-2.93h7.34l-4,14.88a10.26,10.26,0,0,0-.34,2,1.34,1.34,0,0,0,1.39,1.49c1,0,1.87-.82,2.78-3.22l1.68.58c-1.1,3.46-2.83,5-5.18,5A3.68,3.68,0,0,1,452.85,31.63ZM457.08,8.3a2.42,2.42,0,1,1,2.45,2.45A2.46,2.46,0,0,1,457.08,8.3Z"/><path d="M479.69,31.68a8.26,8.26,0,0,1,.38-2.3L482,22.71a9,9,0,0,0,.34-2.4A3,3,0,0,0,479,17.23c-2.74,0-5.81,2.59-7,7.49l-2.64,10.42H466l4.42-17.52h-3.84l.72-2.93h6.82L473,19.54c1.78-3,4.32-5.18,7.2-5.18a5.36,5.36,0,0,1,5.62,5.57,11.25,11.25,0,0,1-.53,3.22l-1.87,6.63a7.52,7.52,0,0,0-.34,1.78,1.38,1.38,0,0,0,1.39,1.54c1,0,1.78-.82,2.74-3.22l1.68.58c-1.06,3.31-2.74,5-5.14,5A3.7,3.7,0,0,1,479.69,31.68Z"/><path d="M491.68,42.44a3.25,3.25,0,0,1-1.1-2.4,2.35,2.35,0,0,1,2.35-2.54,2.28,2.28,0,0,1,2.3,2.35,2.25,2.25,0,0,1-.38,1.25,7.15,7.15,0,0,0,3.84.91,6.3,6.3,0,0,0,4.85-1.82A10.88,10.88,0,0,0,506,35l1-4.13A8.53,8.53,0,0,1,499.8,35c-4.56,0-7.73-3.22-7.73-8.3,0-6.82,4.85-12.39,10.94-12.39a6.49,6.49,0,0,1,6.53,4.94l1.25-4.7H514l-4.9,21.07c-.67,2.83-1.54,4.94-3.12,6.48-1.78,1.82-4.13,2.64-7.3,2.64C495.91,44.74,492.88,43.59,491.68,42.44Zm16.95-19.68c0-3.36-2.06-5.47-5.38-5.47-4.42,0-7.63,4.27-7.63,9.22,0,3.41,2.11,5.57,5.28,5.57C505.51,32.07,508.63,27.36,508.63,22.75Z"/><path d="M512.56,40.61c4-2,5.66-4.42,5.81-5.57a3,3,0,0,1-2.06-2.64,2.91,2.91,0,0,1,2.93-2.93,3.1,3.1,0,0,1,3,3.36c0,3.22-3.07,7.1-9,9.17Z"/><path d="M538.39,31.63a10.22,10.22,0,0,1,.38-2.21L542,17.62h-4l.77-2.93h7.34l-4,14.88a10.26,10.26,0,0,0-.34,2,1.34,1.34,0,0,0,1.39,1.49c1,0,1.87-.82,2.78-3.22l1.68.58c-1.1,3.46-2.83,5-5.18,5A3.68,3.68,0,0,1,538.39,31.63ZM542.61,8.3a2.42,2.42,0,1,1,2.45,2.45A2.46,2.46,0,0,1,542.61,8.3Z"/><path d="M565.22,31.68a8.26,8.26,0,0,1,.38-2.3l1.92-6.67a9,9,0,0,0,.34-2.4,3,3,0,0,0-3.31-3.07c-2.74,0-5.81,2.59-7,7.49L554.9,35.14h-3.36L556,17.62h-3.84l.72-2.93h6.82l-1.15,4.85c1.78-3,4.32-5.18,7.2-5.18a5.36,5.36,0,0,1,5.62,5.57,11.25,11.25,0,0,1-.53,3.22l-1.87,6.63a7.52,7.52,0,0,0-.34,1.78A1.38,1.38,0,0,0,570,33.07c1,0,1.78-.82,2.74-3.22l1.68.58c-1.06,3.31-2.74,5-5.14,5A3.7,3.7,0,0,1,565.22,31.68Z"/><path d="M16,86.69c0-6.48,5.28-12.39,11.71-12.39,4.8,0,7.39,2.93,7.39,5.47a2.68,2.68,0,0,1-2.54,2.88,2,2,0,0,1-2.06-2.16,2.22,2.22,0,0,1,1-1.73,4.5,4.5,0,0,0-3.84-1.54c-4.22,0-8.21,4-8.21,9.26,0,3.65,2.4,6.1,6.19,6.1a10.65,10.65,0,0,0,6.82-2.69l-.1,3.26a11.8,11.8,0,0,1-7.1,2.35C20.06,95.52,16,92.21,16,86.69Z"/><path d="M38.3,86.59c0-6.34,4.94-12.29,11.57-12.29,5.62,0,8.88,4.13,8.88,8.93,0,6.38-4.94,12.29-11.57,12.29C41.57,95.52,38.3,91.44,38.3,86.59Zm17-3.36c0-3.74-2.45-6-5.62-6-4.46,0-8,4.27-8,9.41,0,3.7,2.45,6,5.62,6C51.84,92.59,55.34,88.32,55.34,83.23Z"/><path d="M62.69,86.59c0-6.34,4.94-12.29,11.57-12.29,5.62,0,8.88,4.13,8.88,8.93,0,6.38-4.94,12.29-11.57,12.29C66,95.52,62.69,91.44,62.69,86.59Zm17-3.36c0-3.74-2.45-6-5.62-6-4.46,0-8,4.27-8,9.41,0,3.7,2.45,6,5.62,6C76.22,92.59,79.73,88.32,79.73,83.23Z"/><path d="M86.5,95.14,94,62.88H90.1L90.82,60H98L92.21,84.72c6-2.45,9.17-4.61,10-5.9a2.39,2.39,0,0,1-1.2-2,2.46,2.46,0,0,1,2.5-2.54A2.51,2.51,0,0,1,105.94,77c0,2.93-3.65,5.86-8.45,8.16l2.16,5.14a7.58,7.58,0,0,0,1.1,2.21,1.28,1.28,0,0,0,1.1.48c.77,0,1.54-.77,2.26-3.74l1.78.53c-1,4.51-2.69,5.66-4.61,5.66a3.8,3.8,0,0,1-2.69-1,6.92,6.92,0,0,1-1.78-2.74l-2.3-5.57c-1,.43-2,.86-2.83,1.2l-1.82,7.73Z"/><path d="M110.83,91.63a10.22,10.22,0,0,1,.38-2.21l3.22-11.81h-4l.77-2.93h7.34l-4,14.88a10.26,10.26,0,0,0-.34,2,1.34,1.34,0,0,0,1.39,1.49c1,0,1.87-.82,2.78-3.22l1.68.58c-1.1,3.46-2.83,5-5.18,5A3.68,3.68,0,0,1,110.83,91.63Zm4.22-23.33a2.42,2.42,0,1,1,2.45,2.45A2.46,2.46,0,0,1,115.06,68.3Z"/><path d="M137.66,91.68a8.26,8.26,0,0,1,.38-2.3L140,82.71a9,9,0,0,0,.34-2.4A3,3,0,0,0,137,77.23c-2.74,0-5.81,2.59-7,7.49l-2.64,10.42H124l4.42-17.52h-3.84l.72-2.93h6.82l-1.15,4.85c1.78-3,4.32-5.18,7.2-5.18a5.36,5.36,0,0,1,5.62,5.57,11.25,11.25,0,0,1-.53,3.22l-1.87,6.63a7.52,7.52,0,0,0-.34,1.78,1.38,1.38,0,0,0,1.39,1.54c1,0,1.78-.82,2.74-3.22l1.68.58c-1.06,3.31-2.74,5-5.14,5A3.7,3.7,0,0,1,137.66,91.68Z"/><path d="M149.66,102.44a3.25,3.25,0,0,1-1.1-2.4,2.35,2.35,0,0,1,2.35-2.54,2.28,2.28,0,0,1,2.3,2.35,2.25,2.25,0,0,1-.38,1.25,7.15,7.15,0,0,0,3.84.91,6.3,6.3,0,0,0,4.85-1.82A10.88,10.88,0,0,0,164,95l1-4.13A8.53,8.53,0,0,1,157.78,95c-4.56,0-7.73-3.22-7.73-8.3C150,79.87,154.9,74.3,161,74.3a6.49,6.49,0,0,1,6.53,4.94l1.25-4.7H172l-4.9,21.07c-.67,2.83-1.54,4.94-3.12,6.48-1.78,1.82-4.13,2.64-7.3,2.64C153.89,104.74,150.86,103.59,149.66,102.44Zm16.95-19.68c0-3.36-2.06-5.47-5.38-5.47-4.42,0-7.63,4.27-7.63,9.22,0,3.41,2.11,5.57,5.28,5.57C163.49,92.07,166.61,87.36,166.61,82.75Z"/><path d="M170.54,100.61c4-2,5.66-4.42,5.81-5.57a3,3,0,0,1-2.06-2.64,2.91,2.91,0,0,1,2.93-2.93,3.1,3.1,0,0,1,3,3.36c0,3.22-3.07,7.1-9,9.17Z"/><path d="M196.37,91.63a10.22,10.22,0,0,1,.38-2.21L200,77.62h-4l.77-2.93h7.34l-4,14.88a10.26,10.26,0,0,0-.34,2,1.34,1.34,0,0,0,1.39,1.49c1,0,1.87-.82,2.78-3.22l1.68.58c-1.1,3.46-2.83,5-5.18,5A3.68,3.68,0,0,1,196.37,91.63Zm4.22-23.33A2.42,2.42,0,1,1,203,70.75,2.46,2.46,0,0,1,200.59,68.3Z"/><path d="M223.2,91.68a8.26,8.26,0,0,1,.38-2.3l1.92-6.67a9,9,0,0,0,.34-2.4,3,3,0,0,0-3.31-3.07c-2.74,0-5.81,2.59-7,7.49l-2.64,10.42h-3.36l4.42-17.52h-3.84l.72-2.93h6.82l-1.15,4.85c1.78-3,4.32-5.18,7.2-5.18a5.36,5.36,0,0,1,5.62,5.57,11.25,11.25,0,0,1-.53,3.22l-1.87,6.63a7.52,7.52,0,0,0-.34,1.78A1.38,1.38,0,0,0,228,93.07c1,0,1.78-.82,2.74-3.22l1.68.58c-1.06,3.31-2.74,5-5.14,5A3.7,3.7,0,0,1,223.2,91.68Z"/><path d="M245.52,86.69c0-6.48,5.28-12.39,11.71-12.39,4.8,0,7.39,2.93,7.39,5.47a2.68,2.68,0,0,1-2.54,2.88A2,2,0,0,1,260,80.5a2.22,2.22,0,0,1,1-1.73,4.51,4.51,0,0,0-3.84-1.54c-4.22,0-8.21,4-8.21,9.26,0,3.65,2.4,6.1,6.19,6.1a10.65,10.65,0,0,0,6.82-2.69l-.1,3.26a11.81,11.81,0,0,1-7.11,2.35C249.55,95.52,245.52,92.21,245.52,86.69Z"/><path d="M267.84,87.22c0-7,4.94-12.91,10.85-12.91a6.31,6.31,0,0,1,6.38,5.09l1.3-4.85h3.22l-3.7,15a10.86,10.86,0,0,0-.34,2,1.3,1.3,0,0,0,1.34,1.49c.91,0,1.78-.82,2.74-3.22l1.68.58c-1.1,3.46-2.93,5-5.14,5a3.57,3.57,0,0,1-3.79-3.74v-.48c-1.78,2.4-4.27,4.27-7.3,4.27C270.81,95.52,267.84,92.31,267.84,87.22Zm16.32-4.37c0-3.31-1.78-5.57-5.14-5.57-4.46,0-7.63,4.75-7.63,9.7,0,3.36,1.63,5.62,4.8,5.62C280.89,92.59,284.16,87.41,284.16,82.85Z"/><path d="M301.58,62.88h-3.89l.72-2.88h7.15L301.2,78.63c1.63-2.35,4.13-4.32,7.1-4.32,4.61,0,7.68,3.36,7.68,8.45,0,7.1-5.09,12.82-10.85,12.82a6.49,6.49,0,0,1-6.62-5l-1.2,4.56h-3.22Zm10.85,20.31c0-3.55-1.82-5.9-5-5.9-4.46,0-8,5.09-8,9.75,0,3.26,2,5.52,5.42,5.52C309.21,92.55,312.43,87.94,312.43,83.19Z"/><path d="M320.93,91.63a10.22,10.22,0,0,1,.38-2.21l3.22-11.81h-4l.77-2.93h7.34l-4,14.88a10.26,10.26,0,0,0-.34,2,1.34,1.34,0,0,0,1.39,1.49c1,0,1.87-.82,2.78-3.22l1.68.58c-1.1,3.46-2.83,5-5.18,5A3.68,3.68,0,0,1,320.93,91.63Zm4.22-23.33a2.42,2.42,0,1,1,2.45,2.45A2.46,2.46,0,0,1,325.15,68.3Z"/><path d="M347.76,91.68a8.26,8.26,0,0,1,.38-2.3l1.92-6.67a9,9,0,0,0,.34-2.4,3,3,0,0,0-3.31-3.07c-2.74,0-5.81,2.59-7,7.49l-2.64,10.42h-3.36l4.42-17.52h-3.84l.72-2.93h6.82L341,79.54c1.78-3,4.32-5.18,7.2-5.18a5.36,5.36,0,0,1,5.62,5.57,11.25,11.25,0,0,1-.53,3.22l-1.87,6.63a7.52,7.52,0,0,0-.34,1.78,1.38,1.38,0,0,0,1.39,1.54c1,0,1.78-.82,2.74-3.22l1.68.58c-1.06,3.31-2.74,5-5.14,5A3.7,3.7,0,0,1,347.76,91.68Z"/><path d="M363.36,85.92a7.11,7.11,0,0,0,0,1c0,3.6,3,5.71,6.53,5.71a13.3,13.3,0,0,0,6.77-1.87L375.89,94a13.74,13.74,0,0,1-6.72,1.49c-4.8,0-9.17-3.07-9.17-8.64,0-6.91,5.23-12.58,11.33-12.58,4.75,0,7.83,2.88,7.83,7.49a12.41,12.41,0,0,1-.77,4.13Zm.53-2.59h11.76a5.74,5.74,0,0,0,.34-2c0-2.21-1.49-4.08-4.8-4.08S365.09,79.78,363.89,83.33Z"/><path d="M390.77,77.62l-2.88,11.71a6.47,6.47,0,0,0-.29,1.78,1.56,1.56,0,0,0,1.63,1.63c1.1,0,2.26-.58,4.27-1.92l1.25,1.78c-2.5,2-4.51,2.93-6.43,2.93-2.4,0-4.22-1.49-4.22-3.89a8.85,8.85,0,0,1,.38-2.3l2.88-11.71h-3.65l.72-2.93h3.65l1.2-4.8,3.7-1.2-1.49,6h6.24L397,77.62Z"/><path d="M413.71,77.62h-3.84l.72-2.93h6.82l-1.2,4.85c1.82-3,4.32-5.18,7-5.18a5,5,0,0,1,5.28,5.14c1.92-3.17,4.51-5.14,7.1-5.14a5.23,5.23,0,0,1,5.33,5.57,11.26,11.26,0,0,1-.53,3.22l-1.92,6.63a10.25,10.25,0,0,0-.29,1.78,1.38,1.38,0,0,0,1.39,1.54c.91,0,1.78-.82,2.74-3.22l1.68.58c-1.06,3.31-2.74,5-5.14,5a3.7,3.7,0,0,1-4-3.79,8.26,8.26,0,0,1,.38-2.3l1.87-6.58a10.21,10.21,0,0,0,.38-2.5,2.85,2.85,0,0,0-3-3.07c-2.64,0-5.57,2.64-6.86,7.63L425,95.14h-3.36l3.17-12.29a11.28,11.28,0,0,0,.38-2.59,2.9,2.9,0,0,0-3-3c-2.59,0-5.71,2.64-6.91,7.58l-2.59,10.32h-3.36Z"/><path d="M447.17,87.22c0-7,4.94-12.91,10.85-12.91a6.31,6.31,0,0,1,6.38,5.09l1.3-4.85h3.22l-3.7,15a10.86,10.86,0,0,0-.34,2,1.3,1.3,0,0,0,1.34,1.49c.91,0,1.78-.82,2.74-3.22l1.68.58c-1.1,3.46-2.93,5-5.14,5a3.57,3.57,0,0,1-3.79-3.74v-.48c-1.78,2.4-4.27,4.27-7.3,4.27C450.14,95.52,447.17,92.31,447.17,87.22Zm16.32-4.37c0-3.31-1.78-5.57-5.14-5.57-4.46,0-7.63,4.75-7.63,9.7,0,3.36,1.63,5.62,4.8,5.62C460.22,92.59,463.49,87.41,463.49,82.85Z"/><path d="M473.42,95.14l7.49-32.26H477l.72-2.88h7.15l-5.76,24.72c6-2.45,9.17-4.61,10-5.9a2.39,2.39,0,0,1-1.2-2,2.46,2.46,0,0,1,2.5-2.54A2.51,2.51,0,0,1,492.86,77c0,2.93-3.65,5.86-8.45,8.16l2.16,5.14a7.58,7.58,0,0,0,1.1,2.21,1.28,1.28,0,0,0,1.1.48c.77,0,1.54-.77,2.26-3.74l1.78.53c-1,4.51-2.69,5.66-4.61,5.66a3.8,3.8,0,0,1-2.69-1,6.92,6.92,0,0,1-1.78-2.74l-2.3-5.57c-1,.43-2,.86-2.83,1.2l-1.82,7.73Z"/><path d="M497.76,91.63a10.22,10.22,0,0,1,.38-2.21l3.22-11.81h-4l.77-2.93h7.34l-4,14.88a10.26,10.26,0,0,0-.34,2,1.34,1.34,0,0,0,1.39,1.49c1,0,1.87-.82,2.78-3.22l1.68.58c-1.1,3.46-2.83,5-5.18,5A3.68,3.68,0,0,1,497.76,91.63ZM502,68.3a2.42,2.42,0,1,1,2.45,2.45A2.46,2.46,0,0,1,502,68.3Z"/><path d="M524.59,91.68a8.26,8.26,0,0,1,.38-2.3l1.92-6.67a9,9,0,0,0,.34-2.4,3,3,0,0,0-3.31-3.07c-2.74,0-5.81,2.59-7,7.49l-2.64,10.42h-3.36l4.42-17.52h-3.84l.72-2.93H519l-1.15,4.85c1.78-3,4.32-5.18,7.2-5.18a5.36,5.36,0,0,1,5.62,5.57,11.25,11.25,0,0,1-.53,3.22l-1.87,6.63a7.52,7.52,0,0,0-.34,1.78,1.38,1.38,0,0,0,1.39,1.54c1,0,1.78-.82,2.74-3.22l1.68.58c-1.06,3.31-2.74,5-5.14,5A3.7,3.7,0,0,1,524.59,91.68Z"/><path d="M536.59,102.44a3.25,3.25,0,0,1-1.1-2.4,2.35,2.35,0,0,1,2.35-2.54,2.28,2.28,0,0,1,2.3,2.35,2.25,2.25,0,0,1-.38,1.25,7.15,7.15,0,0,0,3.84.91,6.3,6.3,0,0,0,4.85-1.82A10.88,10.88,0,0,0,550.89,95l1-4.13A8.53,8.53,0,0,1,544.7,95c-4.56,0-7.73-3.22-7.73-8.3,0-6.82,4.85-12.39,10.94-12.39a6.49,6.49,0,0,1,6.53,4.94l1.25-4.7h3.22L554,95.62c-.67,2.83-1.54,4.94-3.12,6.48-1.78,1.82-4.13,2.64-7.3,2.64C540.81,104.74,537.79,103.59,536.59,102.44Zm16.95-19.68c0-3.36-2.06-5.47-5.38-5.47-4.42,0-7.63,4.27-7.63,9.22,0,3.41,2.11,5.57,5.28,5.57C550.41,92.07,553.53,87.36,553.53,82.75Z"/><path d="M12.34,146.59c0-6.34,4.94-12.29,11.57-12.29,5.62,0,8.88,4.13,8.88,8.93,0,6.38-4.94,12.29-11.57,12.29C15.6,155.52,12.34,151.44,12.34,146.59Zm17-3.36c0-3.74-2.45-6-5.62-6-4.46,0-8,4.27-8,9.41,0,3.7,2.45,6,5.62,6C25.87,152.59,29.38,148.32,29.38,143.23Z"/><path d="M41.28,137.62H37.44l.72-2.93H45l-1.34,5.67c2.64-3.89,4.94-6,7-6a2.57,2.57,0,0,1,2.78,2.54,2.65,2.65,0,0,1-2.59,2.64,2.45,2.45,0,0,1-2.45-1.92c-1.54.77-4.75,3.84-5.86,8.45l-2.3,9.07H36.86Z"/><path d="M65.14,147.22c0-7,4.94-12.91,10.85-12.91a6.31,6.31,0,0,1,6.38,5.09l1.3-4.85h3.22l-3.7,15a10.86,10.86,0,0,0-.34,2,1.3,1.3,0,0,0,1.34,1.49c.91,0,1.78-.82,2.74-3.22l1.68.58c-1.1,3.46-2.93,5-5.14,5a3.57,3.57,0,0,1-3.79-3.74v-.48c-1.78,2.4-4.27,4.27-7.3,4.27C68.11,155.52,65.14,152.31,65.14,147.22Zm16.32-4.37c0-3.31-1.78-5.57-5.14-5.57-4.46,0-7.63,4.75-7.63,9.7,0,3.36,1.63,5.62,4.8,5.62C78.19,152.59,81.46,147.41,81.46,142.85Z"/><path d="M105.79,151.68a8.26,8.26,0,0,1,.38-2.3l1.92-6.67a9,9,0,0,0,.34-2.4,3,3,0,0,0-3.31-3.07c-2.74,0-5.81,2.59-7,7.49l-2.64,10.42H92.11l4.42-17.52H92.69l.72-2.93h6.82l-1.15,4.85c1.78-3,4.32-5.18,7.2-5.18a5.36,5.36,0,0,1,5.62,5.57,11.25,11.25,0,0,1-.53,3.22l-1.87,6.63a7.52,7.52,0,0,0-.34,1.78,1.38,1.38,0,0,0,1.39,1.54c1,0,1.78-.82,2.74-3.22l1.68.58c-1.06,3.31-2.74,5-5.14,5A3.7,3.7,0,0,1,105.79,151.68Z"/><path d="M111.93,162a2.36,2.36,0,0,1,2.3-2.4,2.25,2.25,0,0,1,2.26,2.11h.1c1.15,0,3.46-1.73,7.83-7l-3.5-17.09h-3.65l.72-2.93h5.9l3,17.09c3.55-4.61,6.91-9.36,7.63-12.43a2.76,2.76,0,0,1-2-2.59,2.47,2.47,0,0,1,2.5-2.45c1.63,0,2.78,1.2,2.78,3.31,0,3.17-2.35,7.63-9.89,17.09-6.72,8.35-9.75,10-12.77,10A3,3,0,0,1,111.93,162Z"/><path d="M151,146.59c0-6.34,4.95-12.29,11.57-12.29,5.62,0,8.88,4.13,8.88,8.93,0,6.38-4.94,12.29-11.57,12.29C154.27,155.52,151,151.44,151,146.59Zm17-3.36c0-3.74-2.45-6-5.62-6-4.46,0-8,4.27-8,9.41,0,3.7,2.45,6,5.62,6C164.54,152.59,168,148.32,168,143.23Z"/><path d="M183,137.62l-2.88,11.71a6.47,6.47,0,0,0-.29,1.78,1.56,1.56,0,0,0,1.63,1.63c1.1,0,2.26-.58,4.27-1.92l1.25,1.78c-2.5,2-4.51,2.93-6.43,2.93-2.4,0-4.22-1.49-4.22-3.89a8.85,8.85,0,0,1,.38-2.3l2.88-11.71H176l.72-2.93h3.65l1.2-4.8,3.7-1.2-1.49,6H190l-.72,2.93Z"/><path d="M198.29,122.88H194.4l.72-2.88h7.15l-4.42,18.91c1.54-2.35,3.94-4.56,6.82-4.56a5.54,5.54,0,0,1,5.81,5.57,11.26,11.26,0,0,1-.53,3.22l-1.78,6.63a7.4,7.4,0,0,0-.29,1.78,1.38,1.38,0,0,0,1.39,1.54c1,0,1.78-.82,2.69-3.22l1.68.58c-1,3.31-2.64,5-5,5a3.74,3.74,0,0,1-4.08-3.79,10.33,10.33,0,0,1,.34-2.26l1.82-6.72a9,9,0,0,0,.34-2.4,3.15,3.15,0,0,0-3.41-3.07c-2.78,0-5.9,2.59-7.06,7.49l-2.4,10.42H190.8Z"/><path d="M220,145.92a7.11,7.11,0,0,0,0,1c0,3.6,3,5.71,6.53,5.71a13.3,13.3,0,0,0,6.77-1.87l-.72,3.26a13.74,13.74,0,0,1-6.72,1.49c-4.8,0-9.17-3.07-9.17-8.64,0-6.91,5.23-12.58,11.33-12.58,4.75,0,7.83,2.88,7.83,7.49a12.41,12.41,0,0,1-.77,4.13Zm.53-2.59h11.76a5.74,5.74,0,0,0,.34-2c0-2.21-1.49-4.08-4.8-4.08S221.71,139.78,220.51,143.33Z"/><path d="M244.08,137.62h-3.84l.72-2.93h6.82l-1.34,5.67c2.64-3.89,4.94-6,7-6a2.57,2.57,0,0,1,2.78,2.54,2.65,2.65,0,0,1-2.59,2.64,2.45,2.45,0,0,1-2.45-1.92c-1.54.77-4.75,3.84-5.86,8.45l-2.3,9.07h-3.36Z"/><path d="M267.88,146.69c0-6.48,5.28-12.39,11.71-12.39,4.8,0,7.39,2.93,7.39,5.47a2.68,2.68,0,0,1-2.54,2.88,2,2,0,0,1-2.06-2.16,2.22,2.22,0,0,1,1-1.73,4.51,4.51,0,0,0-3.84-1.54c-4.22,0-8.21,4-8.21,9.26,0,3.65,2.4,6.1,6.19,6.1a10.65,10.65,0,0,0,6.82-2.69l-.1,3.26a11.81,11.81,0,0,1-7.11,2.35C271.92,155.52,267.88,152.21,267.88,146.69Z"/><path d="M294.72,137.62h-3.84l.72-2.93h6.82l-1.34,5.67c2.64-3.89,4.94-6,7-6a2.57,2.57,0,0,1,2.78,2.54,2.65,2.65,0,0,1-2.59,2.64,2.45,2.45,0,0,1-2.45-1.92c-1.54.77-4.75,3.84-5.86,8.45l-2.3,9.07H290.3Z"/><path d="M307.58,147.22c0-7,4.94-12.91,10.85-12.91a6.31,6.31,0,0,1,6.38,5.09l1.3-4.85h3.22l-3.7,15a10.86,10.86,0,0,0-.34,2,1.3,1.3,0,0,0,1.34,1.49c.91,0,1.78-.82,2.74-3.22l1.68.58c-1.1,3.46-2.93,5-5.14,5a3.57,3.57,0,0,1-3.79-3.74v-.48c-1.78,2.4-4.27,4.27-7.3,4.27C310.56,155.52,307.58,152.31,307.58,147.22Zm16.32-4.37c0-3.31-1.78-5.57-5.14-5.57-4.46,0-7.63,4.75-7.63,9.7,0,3.36,1.63,5.62,4.8,5.62C320.64,152.59,323.9,147.41,323.9,142.85Z"/><path d="M338.92,137.62h-3.65l.72-2.93h3.6l1.54-6.67a11.92,11.92,0,0,1,3.07-6.14,7.51,7.51,0,0,1,5.28-2.11c2.4,0,3.75,1.25,3.75,2.83a2.33,2.33,0,0,1-4.66.1,4.11,4.11,0,0,0-2,1.06,10,10,0,0,0-2.21,4.7l-1.44,6.24h5.33l-.72,2.93h-5.28l-4,17.52h-3.31Z"/><path d="M357.31,137.62l-2.88,11.71a6.47,6.47,0,0,0-.29,1.78,1.56,1.56,0,0,0,1.63,1.63c1.1,0,2.26-.58,4.27-1.92l1.25,1.78c-2.5,2-4.51,2.93-6.43,2.93-2.4,0-4.22-1.49-4.22-3.89a8.85,8.85,0,0,1,.38-2.3l2.88-11.71h-3.65l.72-2.93h3.65l1.2-4.8,3.7-1.2-1.49,6h6.24l-.72,2.93Z"/><path d="M360.91,160.61c4-2,5.66-4.42,5.81-5.57a3,3,0,0,1-2.06-2.64,2.91,2.91,0,0,1,2.93-2.93,3.1,3.1,0,0,1,3,3.36c0,3.22-3.07,7.1-9,9.17Z"/><path d="M379.67,162a2.36,2.36,0,0,1,2.3-2.4,2.25,2.25,0,0,1,2.26,2.11h.1c1.15,0,3.46-1.73,7.83-7l-3.5-17.09H385l.72-2.93h5.9l3,17.09c3.55-4.61,6.91-9.36,7.63-12.43a2.76,2.76,0,0,1-2-2.59,2.47,2.47,0,0,1,2.5-2.45c1.63,0,2.78,1.2,2.78,3.31,0,3.17-2.35,7.63-9.89,17.09-6.72,8.35-9.75,10-12.77,10A3,3,0,0,1,379.67,162Z"/><path d="M408.38,146.59c0-6.34,4.94-12.29,11.57-12.29,5.62,0,8.88,4.13,8.88,8.93,0,6.38-4.94,12.29-11.57,12.29C411.64,155.52,408.38,151.44,408.38,146.59Zm17-3.36c0-3.74-2.45-6-5.62-6-4.46,0-8,4.27-8,9.41,0,3.7,2.45,6,5.62,6C421.92,152.59,425.42,148.32,425.42,143.23Z"/><path d="M440.78,134.69l-3.31,12.82a8.21,8.21,0,0,0-.29,2.21,2.85,2.85,0,0,0,3.12,2.93c2.83,0,5.91-2.69,7.11-7.49L450,134.69h3.36l-3.7,14.88a8.38,8.38,0,0,0-.38,2,1.34,1.34,0,0,0,1.39,1.49c.91,0,1.78-.82,2.74-3.22l1.68.58c-1.1,3.46-2.93,5-5.18,5a3.57,3.57,0,0,1-3.74-3.89,8.12,8.12,0,0,1,.1-1c-1.73,2.78-4.22,4.85-7.1,4.85a5.08,5.08,0,0,1-5.42-5.18,12.87,12.87,0,0,1,.43-3.07l2.5-9.6h-3.84l.77-2.93Z"/><path d="M475.34,122.88h-3.89l.72-2.88h7.15l-4.42,18.91c1.54-2.35,3.94-4.56,6.82-4.56a5.54,5.54,0,0,1,5.81,5.57,11.26,11.26,0,0,1-.53,3.22l-1.78,6.63a7.4,7.4,0,0,0-.29,1.78,1.38,1.38,0,0,0,1.39,1.54c1,0,1.78-.82,2.69-3.22l1.68.58c-1,3.31-2.64,5-5,5a3.74,3.74,0,0,1-4.08-3.79,10.33,10.33,0,0,1,.34-2.26l1.82-6.72a9,9,0,0,0,.34-2.4,3.15,3.15,0,0,0-3.41-3.07c-2.78,0-5.9,2.59-7.06,7.49l-2.4,10.42h-3.36Z"/><path d="M493.77,147.22c0-7,4.94-12.91,10.85-12.91a6.31,6.31,0,0,1,6.38,5.09l1.3-4.85h3.22l-3.7,15a10.86,10.86,0,0,0-.34,2,1.3,1.3,0,0,0,1.34,1.49c.91,0,1.78-.82,2.74-3.22l1.68.58c-1.1,3.46-2.93,5-5.14,5a3.57,3.57,0,0,1-3.79-3.74v-.48c-1.78,2.4-4.27,4.27-7.3,4.27C496.75,155.52,493.77,152.31,493.77,147.22Zm16.32-4.37c0-3.31-1.78-5.57-5.14-5.57-4.46,0-7.63,4.75-7.63,9.7,0,3.36,1.63,5.62,4.8,5.62C506.83,152.59,510.09,147.41,510.09,142.85Z"/><path d="M523.39,137.62h-3.7l.77-2.93h6l2.5,16.95c3.79-4.22,6.82-9,7.68-12.24a2.56,2.56,0,0,1-1.92-2.5,2.51,2.51,0,0,1,2.54-2.59c1.54,0,2.79,1.2,2.79,3.31,0,3.94-5,11.71-11.43,18.19H526.7Z"/><path d="M546.38,145.92a7.11,7.11,0,0,0,0,1c0,3.6,3,5.71,6.53,5.71a13.3,13.3,0,0,0,6.77-1.87l-.72,3.26a13.74,13.74,0,0,1-6.72,1.49c-4.8,0-9.17-3.07-9.17-8.64,0-6.91,5.23-12.58,11.33-12.58,4.75,0,7.83,2.88,7.83,7.49a12.41,12.41,0,0,1-.77,4.13Zm.53-2.59h11.76a5.74,5.74,0,0,0,.34-2c0-2.21-1.49-4.08-4.8-4.08S548.11,139.78,546.91,143.33Z"/><path d="M7.06,197.62,4.18,209.33a6.48,6.48,0,0,0-.29,1.78,1.56,1.56,0,0,0,1.63,1.63c1.1,0,2.26-.58,4.27-1.92L11,212.59c-2.5,2-4.51,2.93-6.43,2.93-2.4,0-4.22-1.49-4.22-3.89a8.87,8.87,0,0,1,.38-2.3l2.88-11.71H0l.72-2.93H4.37l1.2-4.8,3.7-1.2-1.49,6H14l-.72,2.93Z"/><path d="M15.41,206.59c0-6.34,4.94-12.29,11.57-12.29,5.62,0,8.88,4.13,8.88,8.93,0,6.38-4.94,12.29-11.57,12.29C18.67,215.52,15.41,211.44,15.41,206.59Zm17-3.36c0-3.74-2.45-6-5.62-6-4.46,0-8,4.27-8,9.41,0,3.7,2.45,6,5.62,6C28.94,212.59,32.45,208.32,32.45,203.23Z"/><path d="M56.74,182.88H52.85l.72-2.88h7.15l-4.37,18.63c1.63-2.35,4.13-4.32,7.1-4.32,4.61,0,7.68,3.36,7.68,8.45,0,7.1-5.09,12.82-10.85,12.82a6.49,6.49,0,0,1-6.62-5l-1.2,4.56H49.25Zm10.85,20.31c0-3.55-1.82-5.9-5-5.9-4.46,0-8,5.09-8,9.75,0,3.26,2,5.52,5.42,5.52C64.37,212.55,67.58,207.94,67.58,203.19Z"/><path d="M78.48,205.92a7.11,7.11,0,0,0,0,1c0,3.6,3,5.71,6.53,5.71a13.3,13.3,0,0,0,6.77-1.87L91,214a13.74,13.74,0,0,1-6.72,1.49c-4.8,0-9.17-3.07-9.17-8.64,0-6.91,5.23-12.58,11.33-12.58,4.75,0,7.83,2.88,7.83,7.49a12.41,12.41,0,0,1-.77,4.13Zm.53-2.59H90.77a5.74,5.74,0,0,0,.34-2c0-2.21-1.49-4.08-4.8-4.08S80.21,199.78,79,203.33Z"/><path d="M98,206.69c0-6.48,5.28-12.39,11.71-12.39,4.8,0,7.39,2.93,7.39,5.47a2.68,2.68,0,0,1-2.54,2.88,2,2,0,0,1-2.06-2.16,2.22,2.22,0,0,1,1-1.73,4.51,4.51,0,0,0-3.84-1.54c-4.22,0-8.21,4-8.21,9.26,0,3.65,2.4,6.1,6.19,6.1a10.65,10.65,0,0,0,6.82-2.69l-.1,3.26a11.81,11.81,0,0,1-7.11,2.35C102,215.52,98,212.21,98,206.69Z"/><path d="M120.29,206.59c0-6.34,4.95-12.29,11.57-12.29,5.62,0,8.88,4.13,8.88,8.93,0,6.38-4.94,12.29-11.57,12.29C123.55,215.52,120.29,211.44,120.29,206.59Zm17-3.36c0-3.74-2.45-6-5.62-6-4.46,0-8,4.27-8,9.41,0,3.7,2.45,6,5.62,6C133.82,212.59,137.33,208.32,137.33,203.23Z"/><path d="M148.75,197.62h-3.84l.72-2.93h6.82l-1.2,4.85c1.82-3,4.32-5.18,7-5.18a5,5,0,0,1,5.28,5.14c1.92-3.17,4.51-5.14,7.11-5.14a5.23,5.23,0,0,1,5.33,5.57,11.26,11.26,0,0,1-.53,3.22l-1.92,6.63a10.25,10.25,0,0,0-.29,1.78,1.38,1.38,0,0,0,1.39,1.54c.91,0,1.78-.82,2.74-3.22l1.68.58c-1.06,3.31-2.74,5-5.14,5a3.7,3.7,0,0,1-4-3.79,8.26,8.26,0,0,1,.38-2.3l1.87-6.58a10.21,10.21,0,0,0,.38-2.5,2.85,2.85,0,0,0-3-3.07c-2.64,0-5.57,2.64-6.86,7.63L160,215.14h-3.36l3.17-12.29a11.28,11.28,0,0,0,.38-2.59,2.9,2.9,0,0,0-3-3c-2.59,0-5.71,2.64-6.91,7.58l-2.59,10.32h-3.36Z"/><path d="M185.47,205.92a7.11,7.11,0,0,0,0,1c0,3.6,3,5.71,6.53,5.71a13.3,13.3,0,0,0,6.77-1.87L198,214a13.74,13.74,0,0,1-6.72,1.49c-4.8,0-9.17-3.07-9.17-8.64,0-6.91,5.23-12.58,11.33-12.58,4.75,0,7.83,2.88,7.83,7.49a12.41,12.41,0,0,1-.77,4.13Zm.53-2.59h11.76a5.74,5.74,0,0,0,.34-2c0-2.21-1.49-4.08-4.8-4.08S187.2,199.78,186,203.33Z"/><path d="M215.09,207.22c0-7,4.94-12.91,10.85-12.91a6.31,6.31,0,0,1,6.38,5.09l1.3-4.85h3.22l-3.7,15a10.86,10.86,0,0,0-.34,2,1.3,1.3,0,0,0,1.34,1.49c.91,0,1.78-.82,2.74-3.22l1.68.58c-1.1,3.46-2.93,5-5.14,5a3.57,3.57,0,0,1-3.79-3.74v-.48c-1.78,2.4-4.27,4.27-7.3,4.27C218.06,215.52,215.09,212.31,215.09,207.22Zm16.32-4.37c0-3.31-1.78-5.57-5.14-5.57-4.46,0-7.63,4.75-7.63,9.7,0,3.36,1.63,5.62,4.8,5.62C228.14,212.59,231.41,207.41,231.41,202.85Z"/><path d="M251.66,222.44a3.25,3.25,0,0,1-1.1-2.4,2.35,2.35,0,0,1,2.35-2.54,2.28,2.28,0,0,1,2.3,2.35,2.25,2.25,0,0,1-.38,1.25,7.15,7.15,0,0,0,3.84.91,6.3,6.3,0,0,0,4.85-1.82A10.88,10.88,0,0,0,266,215l1-4.13a8.53,8.53,0,0,1-7.15,4.13c-4.56,0-7.73-3.22-7.73-8.3,0-6.82,4.85-12.39,10.94-12.39a6.49,6.49,0,0,1,6.53,4.94l1.25-4.7H274l-4.9,21.07c-.67,2.83-1.54,4.94-3.12,6.48-1.78,1.82-4.13,2.64-7.3,2.64C255.89,224.74,252.86,223.59,251.66,222.44Zm16.95-19.68c0-3.36-2.06-5.47-5.38-5.47-4.42,0-7.63,4.27-7.63,9.22,0,3.41,2.11,5.57,5.28,5.57C265.49,212.07,268.61,207.36,268.61,202.75Z"/><path d="M277,206.59c0-6.34,4.94-12.29,11.57-12.29,5.62,0,8.88,4.13,8.88,8.93,0,6.38-4.94,12.29-11.57,12.29C280.22,215.52,277,211.44,277,206.59Zm17-3.36c0-3.74-2.45-6-5.62-6-4.46,0-8,4.27-8,9.41,0,3.7,2.45,6,5.62,6C290.49,212.59,294,208.32,294,203.23Z"/><path d="M301.34,206.59c0-6.34,4.95-12.29,11.57-12.29,5.62,0,8.88,4.13,8.88,8.93,0,6.38-4.94,12.29-11.57,12.29C304.61,215.52,301.34,211.44,301.34,206.59Zm17-3.36c0-3.74-2.45-6-5.62-6-4.46,0-8,4.27-8,9.41,0,3.7,2.45,6,5.62,6C314.88,212.59,318.38,208.32,318.38,203.23Z"/><path d="M336.53,194.3a6.51,6.51,0,0,1,6.48,4.94l3.84-16.37H343l.72-2.88h7.2L344,209.57a8.81,8.81,0,0,0-.38,2c0,1,.48,1.49,1.34,1.49s1.82-.82,2.78-3.22l1.68.58c-1.1,3.46-3,5-5.18,5a3.55,3.55,0,0,1-3.75-3.84,1.31,1.31,0,0,1,0-.43c-1.73,2.4-4.22,4.32-7.3,4.32-4.22,0-7.34-3.22-7.34-8.3C325.82,200.07,330.81,194.3,336.53,194.3Zm5.66,8.59c0-3.36-1.87-5.62-5.28-5.62-4.42,0-7.54,4.7-7.54,9.65,0,3.36,1.78,5.67,4.94,5.67C338.93,212.59,342.19,207.6,342.19,202.9Z"/><path d="M370.61,197.62l-2.88,11.71a6.47,6.47,0,0,0-.29,1.78,1.56,1.56,0,0,0,1.63,1.63c1.1,0,2.26-.58,4.27-1.92l1.25,1.78c-2.5,2-4.51,2.93-6.43,2.93-2.4,0-4.22-1.49-4.22-3.89a8.85,8.85,0,0,1,.38-2.3l2.88-11.71h-3.65l.72-2.93h3.65l1.2-4.8,3.7-1.2-1.49,6h6.24l-.72,2.93Z"/><path d="M382.27,205.92a7.11,7.11,0,0,0,0,1c0,3.6,3,5.71,6.53,5.71a13.3,13.3,0,0,0,6.77-1.87L394.8,214a13.74,13.74,0,0,1-6.72,1.49c-4.8,0-9.17-3.07-9.17-8.64,0-6.91,5.23-12.58,11.33-12.58,4.75,0,7.83,2.88,7.83,7.49a12.41,12.41,0,0,1-.77,4.13Zm.53-2.59h11.76a5.74,5.74,0,0,0,.34-2c0-2.21-1.49-4.08-4.8-4.08S384,199.78,382.8,203.33Z"/><path d="M401.8,206.69c0-6.48,5.28-12.39,11.71-12.39,4.8,0,7.39,2.93,7.39,5.47a2.68,2.68,0,0,1-2.54,2.88,2,2,0,0,1-2.06-2.16,2.22,2.22,0,0,1,1-1.73,4.51,4.51,0,0,0-3.84-1.54c-4.22,0-8.21,4-8.21,9.26,0,3.65,2.4,6.1,6.19,6.1a10.65,10.65,0,0,0,6.82-2.69l-.1,3.26a11.81,11.81,0,0,1-7.11,2.35C405.84,215.52,401.8,212.21,401.8,206.69Z"/><path d="M431,182.88H427.1l.72-2.88H435l-4.42,18.91c1.54-2.35,3.94-4.56,6.82-4.56a5.54,5.54,0,0,1,5.81,5.57,11.26,11.26,0,0,1-.53,3.22l-1.78,6.63a7.4,7.4,0,0,0-.29,1.78,1.38,1.38,0,0,0,1.39,1.54c1,0,1.78-.82,2.69-3.22l1.68.58c-1,3.31-2.64,5-5,5a3.74,3.74,0,0,1-4.08-3.79,10.33,10.33,0,0,1,.34-2.26l1.82-6.72a9,9,0,0,0,.34-2.4,3.15,3.15,0,0,0-3.41-3.07c-2.78,0-5.9,2.59-7.06,7.49l-2.4,10.42H423.5Z"/><path d="M463.2,211.68a8.26,8.26,0,0,1,.38-2.3l1.92-6.67a9,9,0,0,0,.34-2.4,3,3,0,0,0-3.31-3.07c-2.74,0-5.81,2.59-7,7.49l-2.64,10.42h-3.36l4.42-17.52h-3.84l.72-2.93h6.82l-1.15,4.85c1.78-3,4.32-5.18,7.2-5.18a5.36,5.36,0,0,1,5.62,5.57,11.25,11.25,0,0,1-.53,3.22l-1.87,6.63a7.52,7.52,0,0,0-.34,1.78,1.38,1.38,0,0,0,1.39,1.54c1,0,1.78-.82,2.74-3.22l1.68.58c-1.06,3.31-2.74,5-5.14,5A3.7,3.7,0,0,1,463.2,211.68Z"/><path d="M476.63,211.63a10.22,10.22,0,0,1,.38-2.21l3.22-11.81h-4l.77-2.93h7.34l-4,14.88a10.26,10.26,0,0,0-.34,2,1.34,1.34,0,0,0,1.39,1.49c1,0,1.87-.82,2.78-3.22l1.68.58c-1.1,3.46-2.83,5-5.18,5A3.68,3.68,0,0,1,476.63,211.63Zm4.22-23.33a2.42,2.42,0,1,1,2.45,2.45A2.46,2.46,0,0,1,480.86,188.3Z"/><path d="M489.64,206.69c0-6.48,5.28-12.39,11.71-12.39,4.8,0,7.39,2.93,7.39,5.47a2.68,2.68,0,0,1-2.54,2.88,2,2,0,0,1-2.06-2.16,2.22,2.22,0,0,1,1-1.73,4.51,4.51,0,0,0-3.84-1.54c-4.22,0-8.21,4-8.21,9.26,0,3.65,2.4,6.1,6.19,6.1a10.65,10.65,0,0,0,6.82-2.69l-.1,3.26a11.81,11.81,0,0,1-7.11,2.35C493.68,215.52,489.64,212.21,489.64,206.69Z"/><path d="M513.07,211.63a10.22,10.22,0,0,1,.38-2.21l3.22-11.81h-4l.77-2.93h7.34l-4,14.88a10.26,10.26,0,0,0-.34,2,1.34,1.34,0,0,0,1.39,1.49c1,0,1.87-.82,2.78-3.22l1.68.58c-1.1,3.46-2.83,5-5.18,5A3.68,3.68,0,0,1,513.07,211.63Zm4.22-23.33a2.42,2.42,0,1,1,2.45,2.45A2.46,2.46,0,0,1,517.29,188.3Z"/><path d="M526.12,207.22c0-7,4.94-12.91,10.85-12.91a6.31,6.31,0,0,1,6.38,5.09l1.3-4.85h3.22l-3.7,15a10.86,10.86,0,0,0-.34,2,1.3,1.3,0,0,0,1.34,1.49c.91,0,1.78-.82,2.74-3.22l1.68.58c-1.1,3.46-2.93,5-5.14,5a3.57,3.57,0,0,1-3.79-3.74v-.48c-1.78,2.4-4.27,4.27-7.3,4.27C529.1,215.52,526.12,212.31,526.12,207.22Zm16.32-4.37c0-3.31-1.78-5.57-5.14-5.57-4.46,0-7.63,4.75-7.63,9.7,0,3.36,1.63,5.62,4.8,5.62C539.18,212.59,542.44,207.41,542.44,202.85Z"/><path d="M566.78,211.68a8.26,8.26,0,0,1,.38-2.3l1.92-6.67a9,9,0,0,0,.34-2.4,3,3,0,0,0-3.31-3.07c-2.74,0-5.81,2.59-7,7.49l-2.64,10.42H553.1l4.42-17.52h-3.84l.72-2.93h6.82l-1.15,4.85c1.78-3,4.32-5.18,7.2-5.18a5.36,5.36,0,0,1,5.62,5.57,11.25,11.25,0,0,1-.53,3.22l-1.87,6.63a7.52,7.52,0,0,0-.34,1.78,1.38,1.38,0,0,0,1.39,1.54c1,0,1.78-.82,2.74-3.22l1.68.58c-1.06,3.31-2.74,5-5.14,5A3.7,3.7,0,0,1,566.78,211.68Z"/><path d="M8.86,267.22c0-7,4.94-12.91,10.85-12.91a6.31,6.31,0,0,1,6.38,5.09l1.3-4.85H30.6l-3.7,15a10.79,10.79,0,0,0-.34,2,1.3,1.3,0,0,0,1.34,1.49c.91,0,1.78-.82,2.74-3.22l1.68.58c-1.1,3.46-2.93,5-5.14,5a3.57,3.57,0,0,1-3.79-3.74v-.48c-1.78,2.4-4.27,4.27-7.3,4.27C11.83,275.52,8.86,272.31,8.86,267.22Zm16.32-4.37c0-3.31-1.78-5.57-5.14-5.57-4.46,0-7.63,4.75-7.63,9.7,0,3.36,1.63,5.62,4.8,5.62C21.91,272.59,25.18,267.41,25.18,262.85Z"/><path d="M49.51,271.68a8.26,8.26,0,0,1,.38-2.3l1.92-6.67a9,9,0,0,0,.34-2.4,3,3,0,0,0-3.31-3.07c-2.74,0-5.81,2.59-7,7.49l-2.64,10.42H35.83l4.42-17.52H36.41l.72-2.93h6.82l-1.15,4.85c1.78-3,4.32-5.18,7.2-5.18a5.36,5.36,0,0,1,5.62,5.57,11.26,11.26,0,0,1-.53,3.22l-1.87,6.63a7.47,7.47,0,0,0-.34,1.78,1.38,1.38,0,0,0,1.39,1.54c1,0,1.78-.82,2.74-3.22l1.68.58c-1.06,3.31-2.74,5-5.14,5A3.7,3.7,0,0,1,49.51,271.68Z"/><path d="M72.6,254.3a6.51,6.51,0,0,1,6.48,4.94l3.84-16.37H79l.72-2.88H87L80,269.57a8.81,8.81,0,0,0-.38,2c0,1,.48,1.49,1.34,1.49s1.82-.82,2.78-3.22l1.68.58c-1.1,3.46-3,5-5.18,5a3.55,3.55,0,0,1-3.75-3.84,1.31,1.31,0,0,1,0-.43c-1.73,2.4-4.22,4.32-7.3,4.32-4.22,0-7.34-3.22-7.34-8.3C61.9,260.07,66.89,254.3,72.6,254.3Zm5.66,8.59c0-3.36-1.87-5.62-5.28-5.62-4.42,0-7.54,4.7-7.54,9.65,0,3.36,1.78,5.67,4.94,5.67C75,272.59,78.26,267.6,78.26,262.9Z"/><path d="M103.37,257.62H99.53l.72-2.93h6.82l-1.34,5.67c2.64-3.89,4.94-6,7-6a2.57,2.57,0,0,1,2.78,2.54,2.65,2.65,0,0,1-2.59,2.64,2.45,2.45,0,0,1-2.45-1.92c-1.54.77-4.75,3.84-5.86,8.45l-2.3,9.07H99Z"/><path d="M119.5,265.92a7.11,7.11,0,0,0,0,1c0,3.6,3,5.71,6.53,5.71a13.3,13.3,0,0,0,6.77-1.87L132,274a13.74,13.74,0,0,1-6.72,1.49c-4.8,0-9.17-3.07-9.17-8.64,0-6.91,5.23-12.58,11.33-12.58,4.75,0,7.83,2.88,7.83,7.49a12.41,12.41,0,0,1-.77,4.13Zm.53-2.59h11.76a5.74,5.74,0,0,0,.34-2c0-2.21-1.49-4.08-4.8-4.08S121.22,259.78,120,263.33Z"/><path d="M134.66,281.67h3.07l5.76-24h-3.89l.72-2.93h6.86l-1,4.27c1.68-2.5,4.18-4.66,7.39-4.66,4.51,0,7.58,3.36,7.58,8.45,0,7.1-5.09,12.82-10.9,12.82a7,7,0,0,1-6.67-4.75l-2.5,10.85h4.18l-.72,2.88H133.94Zm23-18.48c0-3.55-1.82-5.9-5-5.9-4.46,0-8.07,5.09-8.07,9.75a5.13,5.13,0,0,0,5.47,5.52C154.44,272.55,157.66,267.94,157.66,263.19Z"/><path d="M168.55,265.92a7.11,7.11,0,0,0,0,1c0,3.6,3,5.71,6.53,5.71a13.3,13.3,0,0,0,6.77-1.87l-.72,3.26a13.74,13.74,0,0,1-6.72,1.49c-4.8,0-9.17-3.07-9.17-8.64,0-6.91,5.23-12.58,11.33-12.58,4.75,0,7.83,2.88,7.83,7.49a12.41,12.41,0,0,1-.77,4.13Zm.53-2.59h11.76a5.74,5.74,0,0,0,.34-2c0-2.21-1.49-4.08-4.8-4.08S170.28,259.78,169.08,263.33Z"/><path d="M188.13,267.22c0-7,4.94-12.91,10.85-12.91a6.31,6.31,0,0,1,6.38,5.09l1.3-4.85h3.22l-3.7,15a10.86,10.86,0,0,0-.34,2,1.3,1.3,0,0,0,1.34,1.49c.91,0,1.78-.82,2.74-3.22l1.68.58c-1.1,3.46-2.93,5-5.14,5a3.57,3.57,0,0,1-3.79-3.74v-.48c-1.78,2.4-4.27,4.27-7.3,4.27C191.11,275.52,188.13,272.31,188.13,267.22Zm16.32-4.37c0-3.31-1.78-5.57-5.14-5.57-4.46,0-7.63,4.75-7.63,9.7,0,3.36,1.63,5.62,4.8,5.62C201.19,272.59,204.46,267.41,204.46,262.85Z"/><path d="M222.84,257.62,220,269.33a6.47,6.47,0,0,0-.29,1.78,1.56,1.56,0,0,0,1.63,1.63c1.1,0,2.26-.58,4.27-1.92l1.25,1.78c-2.5,2-4.51,2.93-6.43,2.93-2.4,0-4.22-1.49-4.22-3.89a8.85,8.85,0,0,1,.38-2.3l2.88-11.71h-3.65l.72-2.93h3.65l1.2-4.8,3.7-1.2-1.49,6h6.24l-.72,2.93Z"/><path d="M241.27,267.22c0-7,4.94-12.91,10.85-12.91a6.31,6.31,0,0,1,6.38,5.09l1.3-4.85H263l-3.7,15a10.86,10.86,0,0,0-.34,2,1.3,1.3,0,0,0,1.34,1.49c.91,0,1.78-.82,2.74-3.22l1.68.58c-1.1,3.46-2.93,5-5.14,5a3.57,3.57,0,0,1-3.79-3.74v-.48c-1.78,2.4-4.27,4.27-7.3,4.27C244.25,275.52,241.27,272.31,241.27,267.22Zm16.32-4.37c0-3.31-1.78-5.57-5.14-5.57-4.46,0-7.63,4.75-7.63,9.7,0,3.36,1.63,5.62,4.8,5.62C254.33,272.59,257.59,267.41,257.59,262.85Z"/><path d="M281.93,271.68a8.26,8.26,0,0,1,.38-2.3l1.92-6.67a9,9,0,0,0,.34-2.4,3,3,0,0,0-3.31-3.07c-2.74,0-5.81,2.59-7,7.49l-2.64,10.42h-3.36l4.42-17.52h-3.84l.72-2.93h6.82l-1.15,4.85c1.78-3,4.32-5.18,7.2-5.18a5.36,5.36,0,0,1,5.62,5.57,11.25,11.25,0,0,1-.53,3.22l-1.87,6.63a7.52,7.52,0,0,0-.34,1.78,1.38,1.38,0,0,0,1.39,1.54c1,0,1.78-.82,2.74-3.22l1.68.58c-1.06,3.31-2.74,5-5.14,5A3.7,3.7,0,0,1,281.93,271.68Z"/><path d="M305,254.3a6.51,6.51,0,0,1,6.48,4.94l3.84-16.37h-3.89l.72-2.88h7.2l-6.91,29.57a8.81,8.81,0,0,0-.38,2c0,1,.48,1.49,1.34,1.49s1.82-.82,2.78-3.22l1.68.58c-1.1,3.46-3,5-5.18,5a3.55,3.55,0,0,1-3.75-3.84,1.31,1.31,0,0,1,0-.43c-1.73,2.4-4.22,4.32-7.3,4.32-4.22,0-7.34-3.22-7.34-8.3C294.31,260.07,299.3,254.3,305,254.3Zm5.66,8.59c0-3.36-1.87-5.62-5.28-5.62-4.42,0-7.54,4.7-7.54,9.65,0,3.36,1.78,5.67,4.94,5.67C307.41,272.59,310.68,267.6,310.68,262.9Z"/><path d="M335.78,257.62h-3.84l.72-2.93h6.82l-1.34,5.67c2.64-3.89,4.94-6,7-6a2.57,2.57,0,0,1,2.78,2.54,2.65,2.65,0,0,1-2.59,2.64,2.45,2.45,0,0,1-2.45-1.92c-1.54.77-4.75,3.84-5.86,8.45l-2.3,9.07h-3.36Z"/><path d="M351.91,265.92a7.11,7.11,0,0,0,0,1c0,3.6,3,5.71,6.53,5.71a13.3,13.3,0,0,0,6.77-1.87l-.72,3.26a13.74,13.74,0,0,1-6.72,1.49c-4.8,0-9.17-3.07-9.17-8.64,0-6.91,5.23-12.58,11.33-12.58,4.75,0,7.83,2.88,7.83,7.49a12.41,12.41,0,0,1-.77,4.13Zm.53-2.59H364.2a5.74,5.74,0,0,0,.34-2c0-2.21-1.49-4.08-4.8-4.08S353.64,259.78,352.44,263.33Z"/><path d="M367.08,281.67h3.07l5.76-24H372l.72-2.93h6.86l-1,4.27c1.68-2.5,4.18-4.66,7.39-4.66,4.51,0,7.58,3.36,7.58,8.45,0,7.1-5.09,12.82-10.9,12.82a7,7,0,0,1-6.67-4.75l-2.5,10.85h4.18l-.72,2.88H366.36Zm23-18.48c0-3.55-1.82-5.9-5-5.9-4.46,0-8.07,5.09-8.07,9.75a5.13,5.13,0,0,0,5.47,5.52C386.85,272.55,390.07,267.94,390.07,263.19Z"/><path d="M401,265.92a7.11,7.11,0,0,0,0,1c0,3.6,3,5.71,6.53,5.71a13.3,13.3,0,0,0,6.77-1.87l-.72,3.26a13.74,13.74,0,0,1-6.72,1.49c-4.8,0-9.17-3.07-9.17-8.64,0-6.91,5.23-12.58,11.33-12.58,4.75,0,7.83,2.88,7.83,7.49a12.41,12.41,0,0,1-.77,4.13Zm.53-2.59h11.76a5.74,5.74,0,0,0,.34-2c0-2.21-1.49-4.08-4.8-4.08S402.69,259.78,401.49,263.33Z"/><path d="M420.55,267.22c0-7,4.94-12.91,10.85-12.91a6.31,6.31,0,0,1,6.38,5.09l1.3-4.85h3.22l-3.7,15a10.86,10.86,0,0,0-.34,2,1.3,1.3,0,0,0,1.34,1.49c.91,0,1.78-.82,2.74-3.22l1.68.58c-1.1,3.46-2.93,5-5.14,5a3.57,3.57,0,0,1-3.79-3.74v-.48c-1.78,2.4-4.27,4.27-7.3,4.27C423.52,275.52,420.55,272.31,420.55,267.22Zm16.32-4.37c0-3.31-1.78-5.57-5.14-5.57-4.46,0-7.63,4.75-7.63,9.7,0,3.36,1.63,5.62,4.8,5.62C433.6,272.59,436.87,267.41,436.87,262.85Z"/><path d="M455.25,257.62l-2.88,11.71a6.47,6.47,0,0,0-.29,1.78,1.56,1.56,0,0,0,1.63,1.63c1.1,0,2.26-.58,4.27-1.92l1.25,1.78c-2.5,2-4.51,2.93-6.43,2.93-2.4,0-4.22-1.49-4.22-3.89a8.85,8.85,0,0,1,.38-2.3l2.88-11.71H448.2l.72-2.93h3.65l1.2-4.8,3.7-1.2-1.49,6h6.24l-.72,2.93Z"/><path d="M482.13,254.69l-3.31,12.82a8.21,8.21,0,0,0-.29,2.21,2.85,2.85,0,0,0,3.12,2.93c2.83,0,5.91-2.69,7.11-7.49l2.59-10.46h3.36L491,269.57a8.38,8.38,0,0,0-.38,2,1.34,1.34,0,0,0,1.39,1.49c.91,0,1.78-.82,2.74-3.22l1.68.58c-1.1,3.46-2.93,5-5.18,5a3.57,3.57,0,0,1-3.74-3.89,8.12,8.12,0,0,1,.1-1c-1.73,2.78-4.22,4.85-7.1,4.85a5.08,5.08,0,0,1-5.42-5.18,12.87,12.87,0,0,1,.43-3.07l2.5-9.6h-3.84l.77-2.93Z"/><path d="M513.57,271.68a8.26,8.26,0,0,1,.38-2.3l1.92-6.67a9,9,0,0,0,.34-2.4,3,3,0,0,0-3.31-3.07c-2.74,0-5.81,2.59-7,7.49l-2.64,10.42h-3.36l4.42-17.52h-3.84l.72-2.93H508l-1.15,4.85c1.78-3,4.32-5.18,7.2-5.18a5.36,5.36,0,0,1,5.62,5.57,11.25,11.25,0,0,1-.53,3.22l-1.87,6.63a7.52,7.52,0,0,0-.34,1.78,1.38,1.38,0,0,0,1.39,1.54c1,0,1.78-.82,2.74-3.22l1.68.58c-1.06,3.31-2.74,5-5.14,5A3.7,3.7,0,0,1,513.57,271.68Z"/><path d="M533.59,257.62l-2.88,11.71a6.47,6.47,0,0,0-.29,1.78,1.56,1.56,0,0,0,1.63,1.63c1.1,0,2.26-.58,4.27-1.92l1.25,1.78c-2.5,2-4.51,2.93-6.43,2.93-2.4,0-4.22-1.49-4.22-3.89a8.85,8.85,0,0,1,.38-2.3l2.88-11.71h-3.65l.72-2.93h3.65l1.2-4.8,3.7-1.2-1.49,6h6.24l-.72,2.93Z"/><path d="M543.09,271.63a10.22,10.22,0,0,1,.38-2.21l3.22-11.81h-4l.77-2.93h7.34l-4,14.88a10.26,10.26,0,0,0-.34,2,1.34,1.34,0,0,0,1.39,1.49c1,0,1.87-.82,2.78-3.22l1.68.58c-1.1,3.46-2.83,5-5.18,5A3.68,3.68,0,0,1,543.09,271.63Zm4.22-23.33a2.42,2.42,0,1,1,2.45,2.45A2.46,2.46,0,0,1,547.31,248.3Z"/><path d="M556.63,271.63a9.57,9.57,0,0,1,.34-2.11l6.19-26.64h-3.84L560,240h7.15l-6.86,29.52a15.86,15.86,0,0,0-.34,2c0,1,.53,1.54,1.34,1.54,1,0,1.87-.82,2.83-3.22l1.68.58c-1.1,3.46-2.88,5-5.23,5A3.67,3.67,0,0,1,556.63,271.63Z"/><path d="M23.66,342a2.36,2.36,0,0,1,2.3-2.4,2.25,2.25,0,0,1,2.26,2.11h.1c1.15,0,3.46-1.73,7.82-7l-3.5-17.09H29l.72-2.93h5.9l3,17.09c3.55-4.61,6.91-9.36,7.63-12.43a2.76,2.76,0,0,1-2-2.59,2.47,2.47,0,0,1,2.5-2.45c1.63,0,2.78,1.2,2.78,3.31,0,3.17-2.35,7.63-9.89,17.09-6.72,8.35-9.74,10-12.77,10A3,3,0,0,1,23.66,342Z"/><path d="M52.37,326.59c0-6.34,4.94-12.29,11.57-12.29,5.62,0,8.88,4.13,8.88,8.93,0,6.38-4.94,12.29-11.57,12.29C55.63,335.52,52.37,331.44,52.37,326.59Zm17-3.36c0-3.74-2.45-6-5.62-6-4.46,0-8,4.27-8,9.41,0,3.7,2.45,6,5.62,6C65.9,332.59,69.41,328.32,69.41,323.23Z"/><path d="M84.77,314.69l-3.31,12.82a8.21,8.21,0,0,0-.29,2.21,2.85,2.85,0,0,0,3.12,2.93c2.83,0,5.9-2.69,7.1-7.49L94,314.69h3.36l-3.7,14.88a8.38,8.38,0,0,0-.38,2,1.34,1.34,0,0,0,1.39,1.49c.91,0,1.78-.82,2.74-3.22l1.68.58c-1.1,3.46-2.93,5-5.18,5a3.57,3.57,0,0,1-3.74-3.89,8.12,8.12,0,0,1,.1-1c-1.73,2.78-4.22,4.85-7.1,4.85a5.08,5.08,0,0,1-5.42-5.18,12.82,12.82,0,0,1,.43-3.07l2.5-9.6H76.8l.77-2.93Z"/><path d="M117,317.62h-3.84l.72-2.93h6.82l-1.34,5.67c2.64-3.89,4.94-6,7-6a2.57,2.57,0,0,1,2.78,2.54,2.65,2.65,0,0,1-2.59,2.64,2.45,2.45,0,0,1-2.45-1.92c-1.54.77-4.75,3.84-5.86,8.45l-2.3,9.07h-3.36Z"/><path d="M133.1,325.92a7.11,7.11,0,0,0,0,1c0,3.6,3,5.71,6.53,5.71a13.3,13.3,0,0,0,6.77-1.87l-.72,3.26a13.74,13.74,0,0,1-6.72,1.49c-4.8,0-9.17-3.07-9.17-8.64,0-6.91,5.23-12.58,11.33-12.58,4.75,0,7.83,2.88,7.83,7.49a12.41,12.41,0,0,1-.77,4.13Zm.53-2.59h11.76a5.74,5.74,0,0,0,.34-2c0-2.21-1.49-4.08-4.8-4.08S134.83,319.78,133.63,323.33Z"/><path d="M152.69,327.22c0-7,4.94-12.91,10.85-12.91a6.31,6.31,0,0,1,6.38,5.09l1.3-4.85h3.22l-3.7,15a10.86,10.86,0,0,0-.34,2,1.3,1.3,0,0,0,1.34,1.49c.91,0,1.78-.82,2.74-3.22l1.68.58c-1.1,3.46-2.93,5-5.14,5a3.57,3.57,0,0,1-3.79-3.74v-.48c-1.78,2.4-4.27,4.27-7.3,4.27C155.66,335.52,152.69,332.31,152.69,327.22ZM169,322.85c0-3.31-1.78-5.57-5.14-5.57-4.46,0-7.63,4.75-7.63,9.7,0,3.36,1.63,5.62,4.8,5.62C165.74,332.59,169,327.41,169,322.85Z"/><path d="M179.52,326.69c0-6.48,5.28-12.39,11.71-12.39,4.8,0,7.39,2.93,7.39,5.47a2.68,2.68,0,0,1-2.54,2.88A2,2,0,0,1,194,320.5a2.22,2.22,0,0,1,1-1.73,4.51,4.51,0,0,0-3.84-1.54c-4.22,0-8.21,4-8.21,9.26,0,3.65,2.4,6.1,6.19,6.1a10.65,10.65,0,0,0,6.82-2.69l-.1,3.26a11.81,11.81,0,0,1-7.11,2.35C183.55,335.52,179.52,332.21,179.52,326.69Z"/><path d="M208.7,302.88h-3.89l.72-2.88h7.15l-4.42,18.91c1.54-2.35,3.94-4.56,6.82-4.56a5.54,5.54,0,0,1,5.81,5.57,11.26,11.26,0,0,1-.53,3.22l-1.78,6.63a7.4,7.4,0,0,0-.29,1.78,1.38,1.38,0,0,0,1.39,1.54c1,0,1.78-.82,2.69-3.22l1.68.58c-1,3.31-2.64,5-5,5a3.74,3.74,0,0,1-4.08-3.79,10.33,10.33,0,0,1,.34-2.26l1.82-6.72a9,9,0,0,0,.34-2.4,3.15,3.15,0,0,0-3.41-3.07c-2.78,0-5.9,2.59-7.06,7.49l-2.4,10.42h-3.36Z"/><path d="M245,317.62l-2.88,11.71a6.47,6.47,0,0,0-.29,1.78,1.56,1.56,0,0,0,1.63,1.63c1.1,0,2.26-.58,4.27-1.92l1.25,1.78c-2.5,2-4.51,2.93-6.43,2.93-2.4,0-4.22-1.49-4.22-3.89a8.85,8.85,0,0,1,.38-2.3l2.88-11.71h-3.65l.72-2.93h3.65l1.2-4.8,3.7-1.2-1.49,6H252l-.72,2.93Z"/><path d="M260.25,302.88h-3.89l.72-2.88h7.15l-4.42,18.91c1.54-2.35,3.94-4.56,6.82-4.56a5.54,5.54,0,0,1,5.81,5.57,11.26,11.26,0,0,1-.53,3.22l-1.78,6.63a7.4,7.4,0,0,0-.29,1.78,1.38,1.38,0,0,0,1.39,1.54c1,0,1.78-.82,2.69-3.22l1.68.58c-1,3.31-2.64,5-5,5a3.74,3.74,0,0,1-4.08-3.79,10.33,10.33,0,0,1,.34-2.26l1.82-6.72a9,9,0,0,0,.34-2.4,3.15,3.15,0,0,0-3.41-3.07c-2.78,0-5.9,2.59-7.06,7.49l-2.4,10.42h-3.36Z"/><path d="M281.95,325.92a7.11,7.11,0,0,0,0,1c0,3.6,3,5.71,6.53,5.71a13.3,13.3,0,0,0,6.77-1.87l-.72,3.26a13.74,13.74,0,0,1-6.72,1.49c-4.8,0-9.17-3.07-9.17-8.64,0-6.91,5.23-12.58,11.33-12.58,4.75,0,7.83,2.88,7.83,7.49a12.41,12.41,0,0,1-.77,4.13Zm.53-2.59h11.76a5.74,5.74,0,0,0,.34-2c0-2.21-1.49-4.08-4.8-4.08S283.68,319.78,282.48,323.33Z"/><path d="M307.15,341.67h3.07l5.76-24h-3.89l.72-2.93h6.86l-1,4.27c1.68-2.5,4.18-4.66,7.39-4.66,4.51,0,7.58,3.36,7.58,8.45,0,7.1-5.09,12.82-10.9,12.82a7,7,0,0,1-6.67-4.75l-2.5,10.85h4.18l-.72,2.88H306.43Zm23-18.48c0-3.55-1.82-5.9-5-5.9-4.46,0-8.07,5.09-8.07,9.75a5.13,5.13,0,0,0,5.47,5.52C326.93,332.55,330.14,327.94,330.14,323.19Z"/><path d="M337.72,326.59c0-6.34,4.95-12.29,11.57-12.29,5.62,0,8.88,4.13,8.88,8.93,0,6.38-4.94,12.29-11.57,12.29C341,335.52,337.72,331.44,337.72,326.59Zm17-3.36c0-3.74-2.45-6-5.62-6-4.46,0-8,4.27-8,9.41,0,3.7,2.45,6,5.62,6C351.26,332.59,354.77,328.32,354.77,323.23Z"/><path d="M363,331.63a10.22,10.22,0,0,1,.38-2.21l3.22-11.81h-4l.77-2.93h7.34l-4,14.88a10.26,10.26,0,0,0-.34,2,1.34,1.34,0,0,0,1.39,1.49c1,0,1.87-.82,2.78-3.22l1.68.58c-1.1,3.46-2.83,5-5.18,5A3.68,3.68,0,0,1,363,331.63Zm4.22-23.33a2.42,2.42,0,1,1,2.45,2.45A2.46,2.46,0,0,1,367.24,308.3Z"/><path d="M389.85,331.68a8.26,8.26,0,0,1,.38-2.3l1.92-6.67a9,9,0,0,0,.34-2.4,3,3,0,0,0-3.31-3.07c-2.74,0-5.81,2.59-7,7.49l-2.64,10.42h-3.36l4.42-17.52h-3.84l.72-2.93h6.82l-1.15,4.85c1.78-3,4.32-5.18,7.2-5.18a5.36,5.36,0,0,1,5.62,5.57,11.25,11.25,0,0,1-.53,3.22l-1.87,6.63a7.52,7.52,0,0,0-.34,1.78,1.38,1.38,0,0,0,1.39,1.54c1,0,1.78-.82,2.74-3.22l1.68.58c-1.06,3.31-2.74,5-5.14,5A3.7,3.7,0,0,1,389.85,331.68Z"/><path d="M409.87,317.62,407,329.33a6.47,6.47,0,0,0-.29,1.78,1.56,1.56,0,0,0,1.63,1.63c1.1,0,2.26-.58,4.27-1.92l1.25,1.78c-2.5,2-4.51,2.93-6.43,2.93-2.4,0-4.22-1.49-4.22-3.89a8.85,8.85,0,0,1,.38-2.3l2.88-11.71h-3.65l.72-2.93h3.65l1.2-4.8,3.7-1.2-1.49,6h6.24l-.72,2.93Z"/><path d="M431.28,317.62h-3.74l.77-2.93h5.9l1.06,16L443,317.19h1.63l3,14c3-4.46,5.52-8.88,5.91-11.91a2.52,2.52,0,0,1,.48-5c1.58,0,2.78,1.2,2.78,3.17,0,3.79-3.31,10.08-9.26,18.34h-1.68l-2.88-13.3-8.06,13.3H433Z"/><path d="M467.23,302.88h-3.89l.72-2.88h7.15l-4.42,18.91c1.54-2.35,3.94-4.56,6.82-4.56a5.54,5.54,0,0,1,5.81,5.57,11.26,11.26,0,0,1-.53,3.22l-1.78,6.63a7.4,7.4,0,0,0-.29,1.78,1.38,1.38,0,0,0,1.39,1.54c1,0,1.78-.82,2.69-3.22l1.68.58c-1,3.31-2.64,5-5,5a3.74,3.74,0,0,1-4.08-3.79,10.33,10.33,0,0,1,.34-2.26l1.82-6.72a9,9,0,0,0,.34-2.4,3.15,3.15,0,0,0-3.41-3.07c-2.78,0-5.9,2.59-7.06,7.49l-2.4,10.42h-3.36Z"/><path d="M488.92,325.92a7.11,7.11,0,0,0,0,1c0,3.6,3,5.71,6.53,5.71a13.3,13.3,0,0,0,6.77-1.87l-.72,3.26a13.74,13.74,0,0,1-6.72,1.49c-4.8,0-9.17-3.07-9.17-8.64,0-6.91,5.23-12.58,11.33-12.58,4.75,0,7.83,2.88,7.83,7.49a12.41,12.41,0,0,1-.77,4.13Zm.53-2.59h11.76a5.74,5.74,0,0,0,.34-2c0-2.21-1.49-4.08-4.8-4.08S490.65,319.78,489.45,323.33Z"/><path d="M513,317.62h-3.84l.72-2.93h6.82l-1.34,5.67c2.64-3.89,4.94-6,7-6a2.57,2.57,0,0,1,2.78,2.54,2.65,2.65,0,0,1-2.59,2.64,2.45,2.45,0,0,1-2.45-1.92c-1.54.77-4.75,3.84-5.86,8.45l-2.3,9.07H508.6Z"/><path d="M529.15,325.92a7.11,7.11,0,0,0,0,1c0,3.6,3,5.71,6.53,5.71a13.3,13.3,0,0,0,6.77-1.87l-.72,3.26a13.74,13.74,0,0,1-6.72,1.49c-4.8,0-9.17-3.07-9.17-8.64,0-6.91,5.23-12.58,11.33-12.58,4.75,0,7.83,2.88,7.83,7.49a12.41,12.41,0,0,1-.77,4.13Zm.53-2.59h11.76a5.74,5.74,0,0,0,.34-2c0-2.21-1.49-4.08-4.8-4.08S530.88,319.78,529.67,323.33Z"/><path d="M36,402a2.36,2.36,0,0,1,2.3-2.4,2.25,2.25,0,0,1,2.26,2.11h.1c1.15,0,3.46-1.73,7.82-7L45,377.62H41.3l.72-2.93h5.9l3,17.09c3.55-4.61,6.91-9.36,7.63-12.43a2.76,2.76,0,0,1-2-2.59,2.47,2.47,0,0,1,2.5-2.45c1.63,0,2.78,1.2,2.78,3.31,0,3.17-2.35,7.63-9.89,17.09-6.72,8.35-9.75,10-12.77,10A3,3,0,0,1,36,402Z"/><path d="M64.68,386.59c0-6.34,4.94-12.29,11.57-12.29,5.62,0,8.88,4.13,8.88,8.93,0,6.38-4.94,12.29-11.57,12.29C67.94,395.52,64.68,391.44,64.68,386.59Zm17-3.36c0-3.74-2.45-6-5.62-6-4.46,0-8,4.27-8,9.41,0,3.7,2.45,6,5.62,6C78.21,392.59,81.72,388.32,81.72,383.23Z"/><path d="M97.08,374.69l-3.31,12.82a8.21,8.21,0,0,0-.29,2.21,2.85,2.85,0,0,0,3.12,2.93c2.83,0,5.91-2.69,7.11-7.49l2.59-10.46h3.36L106,389.57a8.38,8.38,0,0,0-.38,2,1.34,1.34,0,0,0,1.39,1.49c.91,0,1.78-.82,2.74-3.22l1.68.58c-1.1,3.46-2.93,5-5.18,5a3.57,3.57,0,0,1-3.74-3.89,8.12,8.12,0,0,1,.1-1c-1.73,2.78-4.22,4.85-7.1,4.85A5.08,5.08,0,0,1,90,390.29a12.87,12.87,0,0,1,.43-3.07l2.5-9.6H89.11l.77-2.93Z"/><path d="M131.64,362.88h-3.89l.72-2.88h7.15l-4.42,18.91c1.54-2.35,3.94-4.56,6.82-4.56a5.54,5.54,0,0,1,5.81,5.57,11.26,11.26,0,0,1-.53,3.22l-1.78,6.63a7.4,7.4,0,0,0-.29,1.78,1.38,1.38,0,0,0,1.39,1.54c1,0,1.78-.82,2.69-3.22l1.68.58c-1,3.31-2.64,5-5,5a3.74,3.74,0,0,1-4.08-3.79,10.33,10.33,0,0,1,.34-2.26l1.82-6.72a9,9,0,0,0,.34-2.4,3.15,3.15,0,0,0-3.41-3.07c-2.78,0-5.9,2.59-7.06,7.49l-2.4,10.42h-3.36Z"/><path d="M150.07,387.22c0-7,4.94-12.91,10.85-12.91a6.31,6.31,0,0,1,6.38,5.09l1.3-4.85h3.22l-3.7,15a10.86,10.86,0,0,0-.34,2,1.3,1.3,0,0,0,1.34,1.49c.91,0,1.78-.82,2.74-3.22l1.68.58c-1.1,3.46-2.93,5-5.14,5a3.57,3.57,0,0,1-3.79-3.74v-.48c-1.78,2.4-4.27,4.27-7.3,4.27C153,395.52,150.07,392.31,150.07,387.22Zm16.32-4.37c0-3.31-1.78-5.57-5.14-5.57-4.46,0-7.63,4.75-7.63,9.7,0,3.36,1.63,5.62,4.8,5.62C163.13,392.59,166.39,387.41,166.39,382.85Z"/><path d="M179.69,377.62H176l.77-2.93h6l2.5,16.95c3.79-4.22,6.82-9,7.68-12.24a2.56,2.56,0,0,1-1.92-2.5,2.51,2.51,0,0,1,2.54-2.59c1.54,0,2.79,1.2,2.79,3.31,0,3.94-5,11.71-11.43,18.19H183Z"/><path d="M202.68,385.92a7.11,7.11,0,0,0,0,1c0,3.6,3,5.71,6.53,5.71a13.3,13.3,0,0,0,6.77-1.87l-.72,3.26a13.74,13.74,0,0,1-6.72,1.49c-4.8,0-9.17-3.07-9.17-8.64,0-6.91,5.23-12.58,11.33-12.58,4.75,0,7.83,2.88,7.83,7.49a12.41,12.41,0,0,1-.77,4.13Zm.53-2.59H215a5.74,5.74,0,0,0,.34-2c0-2.21-1.49-4.08-4.8-4.08S204.41,379.78,203.21,383.33Z"/><path d="M232.68,392.83a3.62,3.62,0,0,1-1.2-2.54,2.34,2.34,0,0,1,2.26-2.5,2,2,0,0,1,2.06,2,2.41,2.41,0,0,1-.62,1.54,3.3,3.3,0,0,0,.82.58,8.85,8.85,0,0,0,4.08.91c2.26,0,4.13-1,4.13-2.83s-2-2.83-4.22-3.89c-3-1.39-5.67-2.74-5.67-5.81,0-3.26,2.74-5.86,7.39-5.86a8.81,8.81,0,0,1,6.29,2.21,3.46,3.46,0,0,1,1.15,2.5A2.26,2.26,0,0,1,247,381.6a2.05,2.05,0,0,1-2.11-2,3.1,3.1,0,0,1,.53-1.54,4.31,4.31,0,0,0-.72-.43,7.78,7.78,0,0,0-3.07-.58c-2.4,0-4,1.1-4,2.69s2,2.54,4.37,3.7c2.88,1.34,5.57,2.88,5.57,6,0,3.94-3.36,6-7.63,6A10.55,10.55,0,0,1,232.68,392.83Z"/><path d="M252.17,386.59c0-6.34,4.94-12.29,11.57-12.29,5.62,0,8.88,4.13,8.88,8.93,0,6.38-4.94,12.29-11.57,12.29C255.43,395.52,252.17,391.44,252.17,386.59Zm17-3.36c0-3.74-2.45-6-5.62-6-4.46,0-8,4.27-8,9.41,0,3.7,2.45,6,5.62,6C265.7,392.59,269.21,388.32,269.21,383.23Z"/><path d="M287.73,391.63a10.22,10.22,0,0,1,.38-2.21l3.22-11.81h-4l.77-2.93h7.34l-4,14.88a10.26,10.26,0,0,0-.34,2,1.34,1.34,0,0,0,1.39,1.49c1,0,1.87-.82,2.78-3.22l1.68.58c-1.1,3.46-2.83,5-5.18,5A3.68,3.68,0,0,1,287.73,391.63ZM292,368.3a2.42,2.42,0,1,1,2.45,2.45A2.46,2.46,0,0,1,292,368.3Z"/><path d="M314.57,391.68a8.26,8.26,0,0,1,.38-2.3l1.92-6.67a9,9,0,0,0,.34-2.4,3,3,0,0,0-3.31-3.07c-2.74,0-5.81,2.59-7,7.49l-2.64,10.42h-3.36l4.42-17.52h-3.84l.72-2.93H309l-1.15,4.85c1.78-3,4.32-5.18,7.2-5.18a5.36,5.36,0,0,1,5.62,5.57,11.25,11.25,0,0,1-.53,3.22l-1.87,6.63a7.52,7.52,0,0,0-.34,1.78,1.38,1.38,0,0,0,1.39,1.54c1,0,1.78-.82,2.74-3.22l1.68.58c-1.06,3.31-2.74,5-5.14,5A3.7,3.7,0,0,1,314.57,391.68Z"/><path d="M334.58,377.62l-2.88,11.71a6.47,6.47,0,0,0-.29,1.78,1.56,1.56,0,0,0,1.63,1.63c1.1,0,2.26-.58,4.27-1.92l1.25,1.78c-2.5,2-4.51,2.93-6.43,2.93-2.4,0-4.22-1.49-4.22-3.89a8.85,8.85,0,0,1,.38-2.3l2.88-11.71h-3.65l.72-2.93h3.65l1.2-4.8,3.7-1.2-1.49,6h6.24l-.72,2.93Z"/><path d="M346.25,385.92a7.11,7.11,0,0,0,0,1c0,3.6,3,5.71,6.53,5.71a13.3,13.3,0,0,0,6.77-1.87l-.72,3.26a13.74,13.74,0,0,1-6.72,1.49c-4.8,0-9.17-3.07-9.17-8.64,0-6.91,5.23-12.58,11.33-12.58,4.75,0,7.83,2.88,7.83,7.49a12.41,12.41,0,0,1-.77,4.13Zm.53-2.59h11.76a5.74,5.74,0,0,0,.34-2c0-2.21-1.49-4.08-4.8-4.08S348,379.78,346.77,383.33Z"/><path d="M370.34,377.62H366.5l.72-2.93H374l-1.34,5.67c2.64-3.89,4.94-6,7-6a2.57,2.57,0,0,1,2.78,2.54,2.65,2.65,0,0,1-2.59,2.64,2.45,2.45,0,0,1-2.45-1.92c-1.54.77-4.75,3.84-5.86,8.45l-2.3,9.07h-3.36Z"/><path d="M397.94,391.68a8.26,8.26,0,0,1,.38-2.3l1.92-6.67a9,9,0,0,0,.34-2.4,3,3,0,0,0-3.31-3.07c-2.74,0-5.81,2.59-7,7.49l-2.64,10.42h-3.36l4.42-17.52h-3.84l.72-2.93h6.82l-1.15,4.85c1.78-3,4.32-5.18,7.2-5.18a5.36,5.36,0,0,1,5.62,5.57,11.25,11.25,0,0,1-.53,3.22l-1.87,6.63a7.52,7.52,0,0,0-.34,1.78,1.38,1.38,0,0,0,1.39,1.54c1,0,1.78-.82,2.74-3.22l1.68.58c-1.06,3.31-2.74,5-5.14,5A3.7,3.7,0,0,1,397.94,391.68Z"/><path d="M410.28,387.22c0-7,4.94-12.91,10.85-12.91a6.31,6.31,0,0,1,6.38,5.09l1.3-4.85H432l-3.7,15a10.86,10.86,0,0,0-.34,2,1.3,1.3,0,0,0,1.34,1.49c.91,0,1.78-.82,2.74-3.22l1.68.58c-1.1,3.46-2.93,5-5.14,5a3.57,3.57,0,0,1-3.79-3.74v-.48c-1.78,2.4-4.27,4.27-7.3,4.27C413.25,395.52,410.28,392.31,410.28,387.22Zm16.32-4.37c0-3.31-1.78-5.57-5.14-5.57-4.46,0-7.63,4.75-7.63,9.7,0,3.36,1.63,5.62,4.8,5.62C423.33,392.59,426.6,387.41,426.6,382.85Z"/><path d="M437.64,391.63a9.57,9.57,0,0,1,.34-2.11l6.19-26.64h-3.84L441,360h7.15l-6.87,29.52a15.86,15.86,0,0,0-.34,2c0,1,.53,1.54,1.34,1.54,1,0,1.87-.82,2.83-3.22l1.68.58c-1.1,3.46-2.88,5-5.23,5A3.67,3.67,0,0,1,437.64,391.63Z"/><path d="M451.6,391.63a10.22,10.22,0,0,1,.38-2.21l3.22-11.81h-4l.77-2.93h7.34l-4,14.88a10.26,10.26,0,0,0-.34,2,1.34,1.34,0,0,0,1.39,1.49c1,0,1.87-.82,2.78-3.22l1.68.58c-1.1,3.46-2.83,5-5.18,5A3.68,3.68,0,0,1,451.6,391.63Zm4.22-23.33a2.42,2.42,0,1,1,2.45,2.45A2.46,2.46,0,0,1,455.83,368.3Z"/><path d="M462.93,393.79l16.9-16.37h-9.75l-1,3.94h-3l1.63-6.67h15.94l1,1.78-16.32,15.79a7.85,7.85,0,0,1,3-.53c2.16,0,4.13.91,6,.91,2.06,0,2.69-1,3.74-4l1.63.38c-.91,3.89-1.92,6.53-5.57,6.53-2.35,0-5.38-1.3-7.87-1.3a10.1,10.1,0,0,0-5.09,1.25Z"/><path d="M489.86,385.92a7.11,7.11,0,0,0,0,1c0,3.6,3,5.71,6.53,5.71a13.3,13.3,0,0,0,6.77-1.87l-.72,3.26a13.74,13.74,0,0,1-6.72,1.49c-4.8,0-9.17-3.07-9.17-8.64,0-6.91,5.23-12.58,11.33-12.58,4.75,0,7.83,2.88,7.83,7.49a12.41,12.41,0,0,1-.77,4.13Zm.53-2.59h11.76a5.74,5.74,0,0,0,.34-2c0-2.21-1.49-4.08-4.8-4.08S491.59,379.78,490.39,383.33Z"/><path d="M520.2,374.3a6.51,6.51,0,0,1,6.48,4.94l3.84-16.37h-3.89l.72-2.88h7.2l-6.91,29.57a8.81,8.81,0,0,0-.38,2c0,1,.48,1.49,1.34,1.49s1.82-.82,2.78-3.22l1.68.58c-1.1,3.46-3,5-5.18,5a3.55,3.55,0,0,1-3.75-3.84,1.31,1.31,0,0,1,0-.43c-1.73,2.4-4.22,4.32-7.3,4.32-4.22,0-7.34-3.22-7.34-8.3C509.49,380.07,514.48,374.3,520.2,374.3Zm5.66,8.59c0-3.36-1.87-5.62-5.28-5.62-4.42,0-7.54,4.7-7.54,9.65,0,3.36,1.78,5.67,4.94,5.67C522.6,392.59,525.86,387.6,525.86,382.9Z"/><path d="M7.27,437.62,4.39,449.33a6.48,6.48,0,0,0-.29,1.78,1.56,1.56,0,0,0,1.63,1.63c1.1,0,2.26-.58,4.27-1.92l1.25,1.78c-2.5,2-4.51,2.93-6.43,2.93-2.4,0-4.22-1.49-4.22-3.89a8.87,8.87,0,0,1,.38-2.3l2.88-11.71H.21l.72-2.93H4.58l1.2-4.8,3.7-1.2-1.49,6h6.24l-.72,2.93Z"/><path d="M22.54,422.88H18.65l.72-2.88h7.15L22.1,438.91c1.54-2.35,3.94-4.56,6.82-4.56a5.54,5.54,0,0,1,5.81,5.57,11.26,11.26,0,0,1-.53,3.22l-1.78,6.63a7.42,7.42,0,0,0-.29,1.78,1.38,1.38,0,0,0,1.39,1.54c1,0,1.78-.82,2.69-3.22l1.68.58c-1,3.31-2.64,5-5,5a3.74,3.74,0,0,1-4.08-3.79,10.27,10.27,0,0,1,.34-2.26l1.82-6.72a9,9,0,0,0,.34-2.4,3.15,3.15,0,0,0-3.41-3.07c-2.78,0-5.9,2.59-7.06,7.49l-2.4,10.42H15Z"/><path d="M40.92,446.59c0-6.34,4.94-12.29,11.57-12.29,5.62,0,8.88,4.13,8.88,8.93,0,6.38-4.94,12.29-11.57,12.29C44.18,455.52,40.92,451.44,40.92,446.59Zm17-3.36c0-3.74-2.45-6-5.62-6-4.46,0-8,4.27-8,9.41,0,3.7,2.45,6,5.62,6C54.46,452.59,58,448.32,58,443.23Z"/><path d="M65.25,452.83a3.62,3.62,0,0,1-1.2-2.54,2.34,2.34,0,0,1,2.26-2.5,2,2,0,0,1,2.06,2,2.41,2.41,0,0,1-.62,1.54,3.3,3.3,0,0,0,.82.58,8.85,8.85,0,0,0,4.08.91c2.26,0,4.13-1,4.13-2.83s-2-2.83-4.22-3.89c-3-1.39-5.67-2.74-5.67-5.81,0-3.26,2.74-5.86,7.39-5.86a8.81,8.81,0,0,1,6.29,2.21,3.46,3.46,0,0,1,1.15,2.5,2.26,2.26,0,0,1-2.16,2.45,2.05,2.05,0,0,1-2.11-2A3.1,3.1,0,0,1,78,438a4.31,4.31,0,0,0-.72-.43,7.78,7.78,0,0,0-3.07-.58c-2.4,0-4,1.1-4,2.69s2,2.54,4.37,3.7c2.88,1.34,5.57,2.88,5.57,6,0,3.94-3.36,6-7.63,6A10.55,10.55,0,0,1,65.25,452.83Z"/><path d="M88.05,445.92a7.11,7.11,0,0,0,0,1c0,3.6,3,5.71,6.53,5.71a13.3,13.3,0,0,0,6.77-1.87l-.72,3.26a13.74,13.74,0,0,1-6.72,1.49c-4.8,0-9.17-3.07-9.17-8.64,0-6.91,5.23-12.58,11.33-12.58,4.75,0,7.83,2.88,7.83,7.49a12.41,12.41,0,0,1-.77,4.13Zm.53-2.59h11.76a5.74,5.74,0,0,0,.34-2c0-2.21-1.49-4.08-4.8-4.08S89.78,439.78,88.58,443.33Z"/><path d="M118.05,452.83a3.62,3.62,0,0,1-1.2-2.54,2.34,2.34,0,0,1,2.26-2.5,2,2,0,0,1,2.06,2,2.41,2.41,0,0,1-.62,1.54,3.3,3.3,0,0,0,.82.58,8.85,8.85,0,0,0,4.08.91c2.26,0,4.13-1,4.13-2.83s-2-2.83-4.22-3.89c-3-1.39-5.67-2.74-5.67-5.81,0-3.26,2.74-5.86,7.39-5.86a8.81,8.81,0,0,1,6.29,2.21,3.46,3.46,0,0,1,1.15,2.5,2.26,2.26,0,0,1-2.16,2.45,2.05,2.05,0,0,1-2.11-2,3.1,3.1,0,0,1,.53-1.54,4.31,4.31,0,0,0-.72-.43A7.78,7.78,0,0,0,127,437c-2.4,0-4,1.1-4,2.69s2,2.54,4.37,3.7c2.88,1.34,5.57,2.88,5.57,6,0,3.94-3.36,6-7.63,6A10.55,10.55,0,0,1,118.05,452.83Z"/><path d="M137.3,455.14l7.49-32.26H140.9l.72-2.88h7.15L143,444.72c6-2.45,9.17-4.61,10-5.9a2.39,2.39,0,0,1-1.2-2,2.46,2.46,0,0,1,2.5-2.54,2.51,2.51,0,0,1,2.45,2.74c0,2.93-3.65,5.86-8.45,8.16l2.16,5.14a7.58,7.58,0,0,0,1.1,2.21,1.28,1.28,0,0,0,1.1.48c.77,0,1.54-.77,2.26-3.74l1.78.53c-1,4.51-2.69,5.66-4.61,5.66a3.8,3.8,0,0,1-2.69-1,6.92,6.92,0,0,1-1.78-2.74l-2.3-5.57c-1,.43-2,.86-2.83,1.2l-1.82,7.73Z"/><path d="M161.64,451.63a10.22,10.22,0,0,1,.38-2.21l3.22-11.81h-4l.77-2.93h7.34l-4,14.88a10.26,10.26,0,0,0-.34,2,1.34,1.34,0,0,0,1.39,1.49c1,0,1.87-.82,2.78-3.22l1.68.58c-1.1,3.46-2.83,5-5.18,5A3.68,3.68,0,0,1,161.64,451.63Zm4.22-23.33a2.42,2.42,0,1,1,2.45,2.45A2.46,2.46,0,0,1,165.86,428.3Z"/><path d="M175.17,451.63a9.57,9.57,0,0,1,.34-2.11l6.19-26.64h-3.84l.72-2.88h7.15l-6.87,29.52a15.86,15.86,0,0,0-.34,2c0,1,.53,1.54,1.34,1.54,1,0,1.87-.82,2.83-3.22l1.68.58c-1.1,3.46-2.88,5-5.23,5A3.67,3.67,0,0,1,175.17,451.63Z"/><path d="M188.52,451.63a9.57,9.57,0,0,1,.34-2.11L195,422.88h-3.84l.72-2.88h7.15l-6.87,29.52a15.86,15.86,0,0,0-.34,2c0,1,.53,1.54,1.34,1.54,1,0,1.87-.82,2.83-3.22l1.68.58c-1.1,3.46-2.88,5-5.23,5A3.67,3.67,0,0,1,188.52,451.63Z"/><path d="M201.62,452.83a3.62,3.62,0,0,1-1.2-2.54,2.34,2.34,0,0,1,2.26-2.5,2,2,0,0,1,2.06,2,2.41,2.41,0,0,1-.62,1.54,3.3,3.3,0,0,0,.82.58,8.85,8.85,0,0,0,4.08.91c2.26,0,4.13-1,4.13-2.83s-2-2.83-4.22-3.89c-3-1.39-5.67-2.74-5.67-5.81,0-3.26,2.74-5.86,7.39-5.86a8.81,8.81,0,0,1,6.29,2.21,3.46,3.46,0,0,1,1.15,2.5,2.26,2.26,0,0,1-2.16,2.45,2.05,2.05,0,0,1-2.11-2,3.1,3.1,0,0,1,.53-1.54,4.31,4.31,0,0,0-.72-.43,7.78,7.78,0,0,0-3.07-.58c-2.4,0-4,1.1-4,2.69s2,2.54,4.37,3.7c2.88,1.34,5.57,2.88,5.57,6,0,3.94-3.36,6-7.63,6A10.55,10.55,0,0,1,201.62,452.83Z"/><path d="M239.35,437.62l-2.88,11.71a6.47,6.47,0,0,0-.29,1.78,1.56,1.56,0,0,0,1.63,1.63c1.1,0,2.26-.58,4.27-1.92l1.25,1.78c-2.5,2-4.51,2.93-6.43,2.93-2.4,0-4.22-1.49-4.22-3.89a8.85,8.85,0,0,1,.38-2.3l2.88-11.71h-3.65l.72-2.93h3.65l1.2-4.8,3.7-1.2-1.49,6h6.24l-.72,2.93Z"/><path d="M254.61,422.88h-3.89l.72-2.88h7.15l-4.42,18.91c1.54-2.35,3.94-4.56,6.82-4.56a5.54,5.54,0,0,1,5.81,5.57,11.26,11.26,0,0,1-.53,3.22l-1.78,6.63a7.4,7.4,0,0,0-.29,1.78,1.38,1.38,0,0,0,1.39,1.54c1,0,1.78-.82,2.69-3.22l1.68.58c-1,3.31-2.64,5-5,5a3.74,3.74,0,0,1-4.08-3.79,10.33,10.33,0,0,1,.34-2.26l1.82-6.72a9,9,0,0,0,.34-2.4,3.15,3.15,0,0,0-3.41-3.07c-2.78,0-5.9,2.59-7.06,7.49l-2.4,10.42h-3.36Z"/><path d="M273,447.22c0-7,4.94-12.91,10.85-12.91a6.31,6.31,0,0,1,6.38,5.09l1.3-4.85h3.22l-3.7,15a10.86,10.86,0,0,0-.34,2,1.3,1.3,0,0,0,1.34,1.49c.91,0,1.78-.82,2.74-3.22l1.68.58c-1.1,3.46-2.93,5-5.14,5a3.57,3.57,0,0,1-3.79-3.74v-.48c-1.78,2.4-4.27,4.27-7.3,4.27C276,455.52,273,452.31,273,447.22Zm16.32-4.37c0-3.31-1.78-5.57-5.14-5.57-4.46,0-7.63,4.75-7.63,9.7,0,3.36,1.63,5.62,4.8,5.62C286.1,452.59,289.37,447.41,289.37,442.85Z"/><path d="M307.75,437.62l-2.88,11.71a6.47,6.47,0,0,0-.29,1.78,1.56,1.56,0,0,0,1.63,1.63c1.1,0,2.26-.58,4.27-1.92l1.25,1.78c-2.5,2-4.51,2.93-6.43,2.93-2.4,0-4.22-1.49-4.22-3.89a8.85,8.85,0,0,1,.38-2.3l2.88-11.71h-3.65l.72-2.93h3.65l1.2-4.8,3.7-1.2-1.49,6h6.24l-.72,2.93Z"/><path d="M334,437.62l-2.88,11.71a6.47,6.47,0,0,0-.29,1.78,1.56,1.56,0,0,0,1.63,1.63c1.1,0,2.26-.58,4.27-1.92l1.25,1.78c-2.5,2-4.51,2.93-6.43,2.93-2.4,0-4.22-1.49-4.22-3.89a8.85,8.85,0,0,1,.38-2.3l2.88-11.71h-3.65l.72-2.93h3.65l1.2-4.8,3.7-1.2-1.49,6H341l-.72,2.93Z"/><path d="M349.27,422.88h-3.89l.72-2.88h7.15l-4.42,18.91c1.54-2.35,3.94-4.56,6.82-4.56a5.54,5.54,0,0,1,5.81,5.57,11.26,11.26,0,0,1-.53,3.22l-1.78,6.63a7.4,7.4,0,0,0-.29,1.78,1.38,1.38,0,0,0,1.39,1.54c1,0,1.78-.82,2.69-3.22l1.68.58c-1,3.31-2.64,5-5,5a3.74,3.74,0,0,1-4.08-3.79,10.33,10.33,0,0,1,.34-2.26l1.82-6.72a9,9,0,0,0,.34-2.4,3.15,3.15,0,0,0-3.41-3.07c-2.78,0-5.9,2.59-7.06,7.49l-2.4,10.42h-3.36Z"/><path d="M371,445.92a7.11,7.11,0,0,0,0,1c0,3.6,3,5.71,6.53,5.71a13.3,13.3,0,0,0,6.77-1.87l-.72,3.26a13.74,13.74,0,0,1-6.72,1.49c-4.8,0-9.17-3.07-9.17-8.64,0-6.91,5.23-12.58,11.33-12.58,4.75,0,7.83,2.88,7.83,7.49a12.41,12.41,0,0,1-.77,4.13Zm.53-2.59h11.76a5.74,5.74,0,0,0,.34-2c0-2.21-1.49-4.08-4.8-4.08S372.69,439.78,371.49,443.33Z"/><path d="M384.6,462a2.36,2.36,0,0,1,2.3-2.4,2.25,2.25,0,0,1,2.26,2.11h.1c1.15,0,3.46-1.73,7.83-7l-3.5-17.09h-3.65l.72-2.93h5.9l3,17.09c3.55-4.61,6.91-9.36,7.63-12.43a2.76,2.76,0,0,1-2-2.59,2.47,2.47,0,0,1,2.5-2.45c1.63,0,2.78,1.2,2.78,3.31,0,3.17-2.35,7.63-9.89,17.09-6.72,8.35-9.74,10-12.77,10A3,3,0,0,1,384.6,462Z"/><path d="M430.58,422.88h-3.89l.72-2.88h7.15l-4.37,18.63c1.63-2.35,4.13-4.32,7.1-4.32,4.61,0,7.68,3.36,7.68,8.45,0,7.1-5.09,12.82-10.85,12.82a6.49,6.49,0,0,1-6.62-5l-1.2,4.56h-3.22Zm10.85,20.31c0-3.55-1.82-5.9-5-5.9-4.46,0-8,5.09-8,9.75,0,3.26,2,5.52,5.42,5.52C438.21,452.55,441.43,447.94,441.43,443.19Z"/><path d="M452.32,445.92a7.11,7.11,0,0,0,0,1c0,3.6,3,5.71,6.53,5.71a13.3,13.3,0,0,0,6.77-1.87l-.72,3.26a13.74,13.74,0,0,1-6.72,1.49c-4.8,0-9.17-3.07-9.17-8.64,0-6.91,5.23-12.58,11.33-12.58,4.75,0,7.83,2.88,7.83,7.49a12.41,12.41,0,0,1-.77,4.13Zm.53-2.59h11.76a5.74,5.74,0,0,0,.34-2c0-2.21-1.49-4.08-4.8-4.08S454.05,439.78,452.85,443.33Z"/><path d="M471.86,446.69c0-6.48,5.28-12.39,11.71-12.39,4.8,0,7.39,2.93,7.39,5.47a2.68,2.68,0,0,1-2.54,2.88,2,2,0,0,1-2.06-2.16,2.22,2.22,0,0,1,1-1.73,4.51,4.51,0,0,0-3.84-1.54c-4.22,0-8.21,4-8.21,9.26,0,3.65,2.4,6.1,6.19,6.1a10.65,10.65,0,0,0,6.82-2.69l-.1,3.26a11.81,11.81,0,0,1-7.11,2.35C475.89,455.52,471.86,452.21,471.86,446.69Z"/><path d="M494.13,446.59c0-6.34,4.94-12.29,11.57-12.29,5.62,0,8.88,4.13,8.88,8.93,0,6.38-4.94,12.29-11.57,12.29C497.4,455.52,494.13,451.44,494.13,446.59Zm17-3.36c0-3.74-2.45-6-5.62-6-4.46,0-8,4.27-8,9.41,0,3.7,2.45,6,5.62,6C507.67,452.59,511.17,448.32,511.17,443.23Z"/><path d="M522.6,437.62h-3.84l.72-2.93h6.82l-1.2,4.85c1.82-3,4.32-5.18,7-5.18a5,5,0,0,1,5.28,5.14c1.92-3.17,4.51-5.14,7.1-5.14a5.23,5.23,0,0,1,5.33,5.57,11.26,11.26,0,0,1-.53,3.22l-1.92,6.63a10.25,10.25,0,0,0-.29,1.78,1.38,1.38,0,0,0,1.39,1.54c.91,0,1.78-.82,2.74-3.22l1.68.58c-1.06,3.31-2.74,5-5.14,5a3.7,3.7,0,0,1-4-3.79,8.26,8.26,0,0,1,.38-2.3L546,442.8a10.21,10.21,0,0,0,.38-2.5,2.85,2.85,0,0,0-3-3.07c-2.64,0-5.57,2.64-6.86,7.63l-2.64,10.27h-3.36l3.17-12.29a11.28,11.28,0,0,0,.38-2.59,2.9,2.9,0,0,0-3-3c-2.59,0-5.71,2.64-6.91,7.58l-2.59,10.32h-3.36Z"/><path d="M559.32,445.92a7.11,7.11,0,0,0,0,1c0,3.6,3,5.71,6.53,5.71a13.3,13.3,0,0,0,6.77-1.87l-.72,3.26a13.74,13.74,0,0,1-6.72,1.49c-4.8,0-9.17-3.07-9.17-8.64,0-6.91,5.23-12.58,11.33-12.58,4.75,0,7.83,2.88,7.83,7.49a12.41,12.41,0,0,1-.77,4.13Zm.53-2.59H571.6a5.74,5.74,0,0,0,.34-2c0-2.21-1.49-4.08-4.8-4.08S561,439.78,559.84,443.33Z"/><path d="M3.74,507.22c0-7,4.94-12.91,10.85-12.91A6.31,6.31,0,0,1,21,499.39l1.3-4.85h3.22l-3.7,15a10.79,10.79,0,0,0-.34,2,1.3,1.3,0,0,0,1.34,1.49c.91,0,1.78-.82,2.74-3.22l1.68.58c-1.1,3.46-2.93,5-5.14,5a3.57,3.57,0,0,1-3.79-3.74v-.48c-1.78,2.4-4.27,4.27-7.3,4.27C6.72,515.52,3.74,512.31,3.74,507.22Zm16.32-4.37c0-3.31-1.78-5.57-5.14-5.57-4.46,0-7.63,4.75-7.63,9.7,0,3.36,1.63,5.62,4.8,5.62C16.8,512.59,20.07,507.41,20.07,502.85Z"/><path d="M44.4,511.68a8.27,8.27,0,0,1,.38-2.3l1.92-6.67a9,9,0,0,0,.34-2.4,3,3,0,0,0-3.31-3.07c-2.74,0-5.81,2.59-7,7.49l-2.64,10.42H30.72l4.42-17.52H31.3l.72-2.93h6.82l-1.15,4.85c1.78-3,4.32-5.18,7.2-5.18a5.36,5.36,0,0,1,5.62,5.57,11.25,11.25,0,0,1-.53,3.22l-1.87,6.63a7.52,7.52,0,0,0-.34,1.78,1.38,1.38,0,0,0,1.39,1.54c1,0,1.78-.82,2.74-3.22l1.68.58c-1.06,3.31-2.74,5-5.14,5A3.7,3.7,0,0,1,44.4,511.68Z"/><path d="M75.22,494.69,71.9,507.51a8.21,8.21,0,0,0-.29,2.21,2.85,2.85,0,0,0,3.12,2.93c2.83,0,5.9-2.69,7.1-7.49l2.59-10.46h3.36l-3.7,14.88a8.38,8.38,0,0,0-.38,2,1.34,1.34,0,0,0,1.39,1.49c.91,0,1.78-.82,2.74-3.22l1.68.58c-1.1,3.46-2.93,5-5.18,5a3.57,3.57,0,0,1-3.74-3.89,8.12,8.12,0,0,1,.1-1c-1.73,2.78-4.22,4.85-7.1,4.85a5.08,5.08,0,0,1-5.42-5.18,12.82,12.82,0,0,1,.43-3.07l2.5-9.6H67.25l.77-2.93Z"/><path d="M106.66,511.68a8.26,8.26,0,0,1,.38-2.3l1.92-6.67a9,9,0,0,0,.34-2.4,3,3,0,0,0-3.31-3.07c-2.74,0-5.81,2.59-7,7.49l-2.64,10.42H93l4.42-17.52H93.55l.72-2.93h6.82l-1.15,4.85c1.78-3,4.32-5.18,7.2-5.18a5.36,5.36,0,0,1,5.62,5.57,11.25,11.25,0,0,1-.53,3.22l-1.87,6.63a7.52,7.52,0,0,0-.34,1.78,1.38,1.38,0,0,0,1.39,1.54c1,0,1.78-.82,2.74-3.22l1.68.58c-1.06,3.31-2.74,5-5.14,5A3.7,3.7,0,0,1,106.66,511.68Z"/><path d="M118.94,506.69c0-6.48,5.28-12.39,11.71-12.39,4.8,0,7.39,2.93,7.39,5.47a2.68,2.68,0,0,1-2.54,2.88,2,2,0,0,1-2.06-2.16,2.22,2.22,0,0,1,1-1.73,4.51,4.51,0,0,0-3.84-1.54c-4.22,0-8.21,4-8.21,9.26,0,3.65,2.4,6.1,6.19,6.1a10.65,10.65,0,0,0,6.82-2.69l-.1,3.26a11.81,11.81,0,0,1-7.11,2.35C123,515.52,118.94,512.21,118.94,506.69Z"/><path d="M141.21,506.59c0-6.34,4.95-12.29,11.57-12.29,5.62,0,8.88,4.13,8.88,8.93,0,6.38-4.94,12.29-11.57,12.29C144.48,515.52,141.21,511.44,141.21,506.59Zm17-3.36c0-3.74-2.45-6-5.62-6-4.46,0-8,4.27-8,9.41,0,3.7,2.45,6,5.62,6C154.75,512.59,158.26,508.32,158.26,503.23Z"/><path d="M179.42,511.68a8.26,8.26,0,0,1,.38-2.3l1.92-6.67a9,9,0,0,0,.34-2.4,3,3,0,0,0-3.31-3.07c-2.74,0-5.81,2.59-7,7.49l-2.64,10.42h-3.36l4.42-17.52h-3.84l.72-2.93h6.82l-1.15,4.85c1.78-3,4.32-5.18,7.2-5.18a5.36,5.36,0,0,1,5.62,5.57,11.25,11.25,0,0,1-.53,3.22l-1.87,6.63a7.52,7.52,0,0,0-.34,1.78,1.38,1.38,0,0,0,1.39,1.54c1,0,1.78-.82,2.74-3.22l1.68.58c-1.06,3.31-2.74,5-5.14,5A3.7,3.7,0,0,1,179.42,511.68Z"/><path d="M192.14,512.83a3.62,3.62,0,0,1-1.2-2.54,2.34,2.34,0,0,1,2.26-2.5,2,2,0,0,1,2.06,2,2.41,2.41,0,0,1-.62,1.54,3.3,3.3,0,0,0,.82.58,8.85,8.85,0,0,0,4.08.91c2.26,0,4.13-1,4.13-2.83s-2-2.83-4.22-3.89c-3-1.39-5.67-2.74-5.67-5.81,0-3.26,2.74-5.86,7.39-5.86a8.81,8.81,0,0,1,6.29,2.21,3.46,3.46,0,0,1,1.15,2.5,2.26,2.26,0,0,1-2.16,2.45,2.05,2.05,0,0,1-2.11-2,3.1,3.1,0,0,1,.53-1.54,4.31,4.31,0,0,0-.72-.43,7.78,7.78,0,0,0-3.07-.58c-2.4,0-4,1.1-4,2.69s2,2.54,4.37,3.7c2.88,1.34,5.57,2.88,5.57,6,0,3.94-3.36,6-7.63,6A10.55,10.55,0,0,1,192.14,512.83Z"/><path d="M211.63,506.69c0-6.48,5.28-12.39,11.71-12.39,4.8,0,7.39,2.93,7.39,5.47a2.68,2.68,0,0,1-2.54,2.88,2,2,0,0,1-2.06-2.16,2.22,2.22,0,0,1,1-1.73,4.51,4.51,0,0,0-3.84-1.54c-4.22,0-8.21,4-8.21,9.26,0,3.65,2.4,6.1,6.19,6.1a10.65,10.65,0,0,0,6.82-2.69l-.1,3.26a11.81,11.81,0,0,1-7.11,2.35C215.66,515.52,211.63,512.21,211.63,506.69Z"/><path d="M235.05,511.63a10.22,10.22,0,0,1,.38-2.21l3.22-11.81h-4l.77-2.93h7.34l-4,14.88a10.26,10.26,0,0,0-.34,2,1.34,1.34,0,0,0,1.39,1.49c1,0,1.87-.82,2.78-3.22l1.68.58c-1.1,3.46-2.83,5-5.18,5A3.68,3.68,0,0,1,235.05,511.63Zm4.22-23.33a2.42,2.42,0,1,1,2.45,2.45A2.46,2.46,0,0,1,239.28,488.3Z"/><path d="M248.06,506.59c0-6.34,4.94-12.29,11.57-12.29,5.62,0,8.88,4.13,8.88,8.93,0,6.38-4.94,12.29-11.57,12.29C251.33,515.52,248.06,511.44,248.06,506.59Zm17-3.36c0-3.74-2.45-6-5.62-6-4.46,0-8,4.27-8,9.41,0,3.7,2.45,6,5.62,6C261.6,512.59,265.1,508.32,265.1,503.23Z"/><path d="M280.46,494.69l-3.31,12.82a8.21,8.21,0,0,0-.29,2.21,2.85,2.85,0,0,0,3.12,2.93c2.83,0,5.91-2.69,7.11-7.49l2.59-10.46H293l-3.7,14.88a8.38,8.38,0,0,0-.38,2,1.34,1.34,0,0,0,1.39,1.49c.91,0,1.78-.82,2.74-3.22l1.68.58c-1.1,3.46-2.93,5-5.18,5a3.57,3.57,0,0,1-3.74-3.89,8.12,8.12,0,0,1,.1-1c-1.73,2.78-4.22,4.85-7.1,4.85a5.08,5.08,0,0,1-5.42-5.18,12.86,12.86,0,0,1,.43-3.07l2.5-9.6h-3.84l.77-2.93Z"/><path d="M298.51,512.83a3.62,3.62,0,0,1-1.2-2.54,2.34,2.34,0,0,1,2.26-2.5,2,2,0,0,1,2.06,2,2.41,2.41,0,0,1-.62,1.54,3.3,3.3,0,0,0,.82.58,8.85,8.85,0,0,0,4.08.91c2.26,0,4.13-1,4.13-2.83s-2-2.83-4.22-3.89c-3-1.39-5.67-2.74-5.67-5.81,0-3.26,2.74-5.86,7.39-5.86a8.81,8.81,0,0,1,6.29,2.21,3.46,3.46,0,0,1,1.15,2.5,2.26,2.26,0,0,1-2.16,2.45,2.05,2.05,0,0,1-2.11-2,3.1,3.1,0,0,1,.53-1.54,4.31,4.31,0,0,0-.72-.43,7.78,7.78,0,0,0-3.07-.58c-2.4,0-4,1.1-4,2.69s2,2.54,4.37,3.7c2.88,1.34,5.57,2.88,5.57,6,0,3.94-3.36,6-7.63,6A10.55,10.55,0,0,1,298.51,512.83Z"/><path d="M324,521.67h3.07l5.76-24h-3.89l.72-2.93h6.86l-1,4.27c1.68-2.5,4.18-4.66,7.39-4.66,4.51,0,7.58,3.36,7.58,8.45,0,7.1-5.09,12.82-10.9,12.82a7,7,0,0,1-6.67-4.75l-2.5,10.85h4.18l-.72,2.88H323.28Zm23-18.48c0-3.55-1.82-5.9-5-5.9-4.46,0-8.07,5.09-8.07,9.75a5.13,5.13,0,0,0,5.47,5.52C343.77,512.55,347,507.94,347,503.19Z"/><path d="M354.62,507.22c0-7,4.94-12.91,10.85-12.91a6.31,6.31,0,0,1,6.38,5.09l1.3-4.85h3.22l-3.7,15a10.86,10.86,0,0,0-.34,2,1.3,1.3,0,0,0,1.34,1.49c.91,0,1.78-.82,2.74-3.22l1.68.58c-1.1,3.46-2.93,5-5.14,5a3.57,3.57,0,0,1-3.79-3.74v-.48c-1.78,2.4-4.27,4.27-7.3,4.27C357.6,515.52,354.62,512.31,354.62,507.22Zm16.32-4.37c0-3.31-1.78-5.57-5.14-5.57-4.46,0-7.63,4.75-7.63,9.7,0,3.36,1.63,5.62,4.8,5.62C367.68,512.59,370.94,507.41,370.94,502.85Z"/><path d="M386,497.62h-3.84l.72-2.93h6.82l-1.34,5.67c2.64-3.89,4.94-6,7-6a2.57,2.57,0,0,1,2.78,2.54,2.65,2.65,0,0,1-2.59,2.64,2.45,2.45,0,0,1-2.45-1.92c-1.54.77-4.75,3.84-5.86,8.45l-2.3,9.07H381.6Z"/><path d="M407.66,497.62l-2.88,11.71a6.47,6.47,0,0,0-.29,1.78,1.56,1.56,0,0,0,1.63,1.63c1.1,0,2.26-.58,4.27-1.92l1.25,1.78c-2.5,2-4.51,2.93-6.43,2.93-2.4,0-4.22-1.49-4.22-3.89a8.85,8.85,0,0,1,.38-2.3l2.88-11.71H400.6l.72-2.93H405l1.2-4.8,3.7-1.2-1.49,6h6.24l-.72,2.93Z"/><path d="M426,506.59c0-6.34,4.95-12.29,11.57-12.29,5.62,0,8.88,4.13,8.88,8.93,0,6.38-4.94,12.29-11.57,12.29C429.31,515.52,426,511.44,426,506.59Zm17-3.36c0-3.74-2.45-6-5.62-6-4.46,0-8,4.27-8,9.41,0,3.7,2.45,6,5.62,6C439.58,512.59,443.08,508.32,443.08,503.23Z"/><path d="M454.36,497.62h-3.65l.72-2.93H455l1.54-6.67a11.92,11.92,0,0,1,3.07-6.14,7.51,7.51,0,0,1,5.28-2.11c2.4,0,3.75,1.25,3.75,2.83a2.33,2.33,0,0,1-4.66.1,4.11,4.11,0,0,0-2,1.06,10,10,0,0,0-2.21,4.7l-1.44,6.24h5.33l-.72,2.93h-5.28l-4,17.52h-3.31Z"/><path d="M469,522a2.36,2.36,0,0,1,2.3-2.4,2.25,2.25,0,0,1,2.26,2.11h.1c1.15,0,3.46-1.73,7.83-7L478,497.62h-3.65l.72-2.93H481l3,17.09c3.55-4.61,6.91-9.36,7.63-12.43a2.76,2.76,0,0,1-2-2.59,2.47,2.47,0,0,1,2.5-2.45c1.63,0,2.78,1.2,2.78,3.31,0,3.17-2.35,7.63-9.89,17.09-6.72,8.35-9.74,10-12.77,10A3,3,0,0,1,469,522Z"/><path d="M497.71,506.59c0-6.34,4.95-12.29,11.57-12.29,5.62,0,8.88,4.13,8.88,8.93,0,6.38-4.94,12.29-11.57,12.29C501,515.52,497.71,511.44,497.71,506.59Zm17-3.36c0-3.74-2.45-6-5.62-6-4.46,0-8,4.27-8,9.41,0,3.7,2.45,6,5.62,6C511.24,512.59,514.75,508.32,514.75,503.23Z"/><path d="M530.11,494.69l-3.31,12.82a8.21,8.21,0,0,0-.29,2.21,2.85,2.85,0,0,0,3.12,2.93c2.83,0,5.9-2.69,7.1-7.49l2.59-10.46h3.36L539,509.57a8.38,8.38,0,0,0-.38,2,1.34,1.34,0,0,0,1.39,1.49c.91,0,1.78-.82,2.74-3.22l1.68.58c-1.1,3.46-2.93,5-5.18,5a3.57,3.57,0,0,1-3.74-3.89,8.12,8.12,0,0,1,.1-1c-1.73,2.78-4.22,4.85-7.1,4.85a5.08,5.08,0,0,1-5.42-5.18,12.82,12.82,0,0,1,.43-3.07l2.5-9.6h-3.84l.77-2.93Z"/><path d="M546.71,512.5a3,3,0,1,1,3,3A3,3,0,0,1,546.71,512.5Z"/><path d="M555.55,494.3c4-2.3,5.47-4.7,5.76-5.86a2.89,2.89,0,0,1,1.06-5.62,3.07,3.07,0,0,1,3,3.36c0,3.31-3.65,7.39-9.07,9.5Zm9.55,0c4-2.3,5.47-4.7,5.76-5.86a2.89,2.89,0,0,1,1.06-5.62,3.07,3.07,0,0,1,3,3.36c0,3.31-3.65,7.39-9.07,9.5Z"/></svg>