<svg xmlns="http://www.w3.org/2000/svg" width="533.81" height="224.69" viewBox="0 0 533.81 224.69"><title>quote-technique</title><path d="M18.53,32.88H23L29.14,6.1H24.68l.58-2.4H36.92l-.58,2.4H31.88L25.74,32.88H30.2l-.58,2.4H18Z" fill="#616161"/><path d="M41.38,17.33H37.73l.53-2.21h3.6l1.82-7.78a10.36,10.36,0,0,1,2.83-5.52A6.55,6.55,0,0,1,51.13,0c2.06,0,3.36,1,3.36,2.45a2,2,0,0,1-1.92,2A2,2,0,0,1,50.5,2.16a3.9,3.9,0,0,0-2.35,1.15A9.46,9.46,0,0,0,46,7.78l-1.68,7.34h5.23l-.53,2.21H43.83l-4.13,18h-2.5Z" fill="#616161"/><path d="M55.35,42.48a2.09,2.09,0,0,1,2-2.16c1.2,0,1.92.86,2,2.21h.24c1.15,0,3.74-1.82,8.21-7.3l-3.6-17.91H60.49L61,15.12h5.47L69.7,32.83c3.84-5,7.68-10.42,8.35-13.63a2.58,2.58,0,0,1-2-2.4,2.13,2.13,0,0,1,2.16-2.06c1.3,0,2.35,1,2.35,2.83,0,3.5-2.93,8.21-10.32,17.62-6,7.73-9.22,9.7-12,9.7A2.72,2.72,0,0,1,55.35,42.48Z" fill="#616161"/><path d="M83.48,27c0-6.38,4.94-12.29,11.42-12.29,5.33,0,8.45,3.94,8.45,8.64,0,6.38-4.94,12.29-11.42,12.29C86.6,35.67,83.48,31.73,83.48,27Zm17.33-3.7c0-3.84-2.59-6.34-6-6.34C89.86,17,86,21.7,86,27.07c0,3.84,2.59,6.34,6,6.34C97,33.41,100.81,28.71,100.81,23.33Z" fill="#616161"/><path d="M114.58,15.12l-3.41,13.06a9.73,9.73,0,0,0-.34,2.45c0,1.63,1.3,2.88,3.36,2.88,3,0,6.82-3.22,8.21-8.78l2.4-9.6h2.5l-3.79,15.12a10,10,0,0,0-.34,1.92,1.46,1.46,0,0,0,1.49,1.58c1.06,0,1.87-1,2.78-3.17l1.49.48c-1,2.83-2.4,4.51-4.61,4.51a3.21,3.21,0,0,1-3.46-3.41,8.69,8.69,0,0,1,.24-1.73c-1.78,2.93-4.22,5.23-7.3,5.23s-5.52-2-5.52-4.94a11.28,11.28,0,0,1,.43-2.74l2.78-10.66h-3.84l.58-2.21Z" fill="#616161"/><path d="M149.91,2.35h-3.84L146.6.14h6.34l-4.61,19.44c1.54-2.5,3.94-4.85,7.06-4.85,3.36,0,5.81,2.26,5.86,5.23a12.4,12.4,0,0,1-.48,3.17l-1.92,7.1a8.84,8.84,0,0,0-.29,1.92A1.46,1.46,0,0,0,160,33.75c1.06,0,1.87-1,2.74-3.17l1.49.48c-.91,2.83-2.3,4.51-4.51,4.51a3.44,3.44,0,0,1-3.7-3.41,9.92,9.92,0,0,1,.34-2.16l1.92-7.2a9.85,9.85,0,0,0,.38-2.74A3.38,3.38,0,0,0,155,16.9c-3,0-6.82,3.17-8.11,8.79l-2.21,9.6h-2.5Z" fill="#616161"/><path d="M167.62,27.31c0-6.86,5-12.58,10.8-12.58,3.65,0,6,2,6.62,5.23l1.2-5.09h2.5L185,30.24a10.08,10.08,0,0,0-.34,1.92,1.46,1.46,0,0,0,1.49,1.58c1.06,0,1.87-1,2.78-3.17l1.49.48c-1,2.83-2.4,4.51-4.61,4.51a3.25,3.25,0,0,1-3.55-3.22v-.82c-1.78,2.35-4.27,4.13-7.2,4.13C170.69,35.67,167.62,32.5,167.62,27.31ZM184.09,23c0-3.6-1.92-6-5.57-6-4.85,0-8.21,5-8.21,10.27,0,3.74,1.82,6.14,5.28,6.14C180.82,33.41,184.09,27.55,184.09,23Z" fill="#616161"/><path d="M196.81,17.33H193l.58-2.21h5.57l2.59,17.47c4-4.46,7.34-10,8.26-13.39A2.28,2.28,0,0,1,208.09,17a2.18,2.18,0,0,1,2.21-2.26c1.3,0,2.35,1,2.35,2.83,0,3.5-5.52,12.24-11.57,18.53h-1Z" fill="#616161"/><path d="M218.26,25.87a11.73,11.73,0,0,0,0,1.3c0,4.18,3.41,6.29,6.82,6.29a12.58,12.58,0,0,0,6.62-1.87l-.58,2.59a13,13,0,0,1-6.48,1.49c-4.66,0-8.88-3-8.88-8.45,0-6.82,5.33-12.48,11.28-12.48,4.56,0,7.34,2.88,7.34,7.15a11.57,11.57,0,0,1-.82,4Zm.48-2.11h12.87a7.49,7.49,0,0,0,.38-2.3c0-2.26-1.54-4.46-5.18-4.46S220,19.87,218.74,23.76Z" fill="#616161"/><path d="M255.51,17.33l-3.17,12.91A7.48,7.48,0,0,0,252.1,32a1.58,1.58,0,0,0,1.68,1.49c1.1,0,2.4-.72,4.37-2l1.06,1.49c-2.35,1.73-4.08,2.74-6,2.74-2.26,0-3.79-1.44-3.79-3.36a10,10,0,0,1,.34-2.11L253,17.33h-3.55l.58-2.21h3.5l1.25-4.94,2.69-.77L256,15.12h6.24l-.58,2.21Z" fill="#616161"/><path d="M264,27.31c0-6.86,5-12.58,10.8-12.58,3.65,0,6,2,6.63,5.23l1.2-5.09h2.5l-3.74,15.36a10.08,10.08,0,0,0-.34,1.92,1.46,1.46,0,0,0,1.49,1.58c1.06,0,1.87-1,2.78-3.17l1.49.48c-1,2.83-2.4,4.51-4.61,4.51a3.25,3.25,0,0,1-3.55-3.22v-.82c-1.78,2.35-4.27,4.13-7.2,4.13C267.08,35.67,264,32.5,264,27.31ZM280.47,23c0-3.6-1.92-6-5.57-6-4.85,0-8.21,5-8.21,10.27,0,3.74,1.82,6.14,5.28,6.14C277.2,33.41,280.47,27.55,280.47,23Z" fill="#616161"/><path d="M291,32.16a12.53,12.53,0,0,1,.34-2l6.48-27.79H294l.53-2.21h6.29l-7,30a15.78,15.78,0,0,0-.34,2A1.46,1.46,0,0,0,295,33.75c1.06,0,1.87-1,2.78-3.17l1.49.48c-1,2.83-2.4,4.51-4.61,4.51A3.4,3.4,0,0,1,291,32.16Z" fill="#616161"/><path d="M305.67,25.87a11.73,11.73,0,0,0,0,1.3c0,4.18,3.41,6.29,6.82,6.29a12.58,12.58,0,0,0,6.62-1.87l-.58,2.59A13,13,0,0,1,312,35.67c-4.66,0-8.88-3-8.88-8.45,0-6.82,5.33-12.48,11.28-12.48,4.56,0,7.34,2.88,7.34,7.15a11.57,11.57,0,0,1-.82,4Zm.48-2.11H319a7.49,7.49,0,0,0,.38-2.3c0-2.26-1.54-4.46-5.18-4.46S307.39,19.87,306.15,23.76Z" fill="#616161"/><path d="M339.55,32.16a10.18,10.18,0,0,1,.38-2.21L342,22.8a10.27,10.27,0,0,0,.48-2.74A3.23,3.23,0,0,0,339,16.9c-3,0-6.77,3.12-8.21,8.79l-2.4,9.6h-2.5l4.51-18h-3.84l.58-2.21h6.19L332.07,20c2-3.17,4.42-5.23,7.3-5.23C342.72,14.74,345,17,345,20a12.62,12.62,0,0,1-.58,3.17l-2.06,7.06a9.33,9.33,0,0,0-.34,2,1.46,1.46,0,0,0,1.49,1.58c1.06,0,1.87-1,2.78-3.17l1.49.48c-1,2.83-2.4,4.51-4.61,4.51A3.4,3.4,0,0,1,339.55,32.16Z" fill="#616161"/><path d="M358.32,17.33l-3.17,12.91a7.48,7.48,0,0,0-.24,1.73,1.58,1.58,0,0,0,1.68,1.49c1.1,0,2.4-.72,4.37-2L362,32.93c-2.35,1.73-4.08,2.74-6,2.74-2.26,0-3.79-1.44-3.79-3.36a10,10,0,0,1,.34-2.11l3.22-12.87h-3.55l.58-2.21h3.5l1.25-4.94,2.69-.77-1.44,5.71h6.24l-.58,2.21Z" fill="#616161"/><path d="M361.87,40.71c3.6-1.58,5.38-4.18,5.52-5.42a2.52,2.52,0,0,1-2-2.4,2.39,2.39,0,0,1,2.45-2.4,2.69,2.69,0,0,1,2.59,2.88c0,2.93-2.35,6.48-8.06,8.4Z" fill="#616161"/><path d="M392.78,17.33l-3.17,12.91a7.48,7.48,0,0,0-.24,1.73,1.58,1.58,0,0,0,1.68,1.49c1.1,0,2.4-.72,4.37-2l1.06,1.49c-2.35,1.73-4.08,2.74-6,2.74-2.26,0-3.79-1.44-3.79-3.36a10,10,0,0,1,.34-2.11l3.22-12.87h-3.55l.58-2.21h3.5l1.25-4.94,2.69-.77-1.44,5.71h6.24L399,17.33Z" fill="#616161"/><path d="M408.48,2.35h-3.84l.53-2.21h6.34L406.9,19.59c1.54-2.5,3.94-4.85,7.06-4.85,3.36,0,5.81,2.26,5.86,5.23a12.4,12.4,0,0,1-.48,3.17l-1.92,7.1a8.84,8.84,0,0,0-.29,1.92,1.46,1.46,0,0,0,1.49,1.58c1.06,0,1.87-1,2.74-3.17l1.49.48c-.91,2.83-2.3,4.51-4.51,4.51a3.44,3.44,0,0,1-3.7-3.41A9.92,9.92,0,0,1,415,30l1.92-7.2a9.85,9.85,0,0,0,.38-2.74,3.38,3.38,0,0,0-3.65-3.17c-3,0-6.82,3.17-8.11,8.79l-2.21,9.6h-2.5Z" fill="#616161"/><path d="M428.64,25.87a11.73,11.73,0,0,0,0,1.3c0,4.18,3.41,6.29,6.82,6.29A12.58,12.58,0,0,0,442,31.59l-.58,2.59A13,13,0,0,1,435,35.67c-4.66,0-8.88-3-8.88-8.45,0-6.82,5.33-12.48,11.28-12.48,4.56,0,7.34,2.88,7.34,7.15a11.57,11.57,0,0,1-.82,4Zm.48-2.11H442a7.49,7.49,0,0,0,.38-2.3c0-2.26-1.54-4.46-5.18-4.46S430.37,19.87,429.12,23.76Z" fill="#616161"/><path d="M26.94,77.33,23.77,90.24A7.48,7.48,0,0,0,23.53,92a1.58,1.58,0,0,0,1.68,1.49c1.1,0,2.4-.72,4.37-2l1.06,1.49c-2.35,1.73-4.08,2.74-6,2.74-2.26,0-3.79-1.44-3.79-3.36a10,10,0,0,1,.34-2.11l3.22-12.87H20.89l.58-2.21H25l1.25-4.94,2.69-.77-1.44,5.71H33.7l-.58,2.21Z" fill="#616161"/><path d="M37.88,85.87a11.73,11.73,0,0,0,0,1.3c0,4.18,3.41,6.29,6.82,6.29a12.58,12.58,0,0,0,6.62-1.87l-.58,2.59a13,13,0,0,1-6.48,1.49c-4.66,0-8.88-3-8.88-8.45,0-6.82,5.33-12.48,11.28-12.48,4.56,0,7.34,2.88,7.34,7.15a11.57,11.57,0,0,1-.82,4Zm.48-2.11H51.22a7.49,7.49,0,0,0,.38-2.3c0-2.26-1.54-4.46-5.18-4.46S39.61,79.87,38.36,83.76Z" fill="#616161"/><path d="M57.94,87.12c0-6.29,5.09-12.39,11.33-12.39,5.09,0,7.2,3.07,7.2,5.09a2.38,2.38,0,0,1-2.26,2.5,1.6,1.6,0,0,1-1.63-1.78A1.89,1.89,0,0,1,73.69,79c-.77-1.25-2.16-2-4.46-2-4.75,0-8.74,4.9-8.74,10.08,0,3.7,2.4,6.34,6.53,6.34a9.93,9.93,0,0,0,6.67-2.88l-.14,2.64a11.13,11.13,0,0,1-7,2.5C61.73,95.67,57.94,92.45,57.94,87.12Z" fill="#616161"/><path d="M86.93,62.35H83.09l.53-2.21H90L85.35,79.59c1.54-2.5,3.94-4.85,7.06-4.85,3.36,0,5.81,2.26,5.86,5.23a12.4,12.4,0,0,1-.48,3.17l-1.92,7.1a8.84,8.84,0,0,0-.29,1.92,1.46,1.46,0,0,0,1.49,1.58c1.06,0,1.87-1,2.74-3.17l1.49.48c-.91,2.83-2.3,4.51-4.51,4.51a3.44,3.44,0,0,1-3.7-3.41A9.92,9.92,0,0,1,93.41,90l1.92-7.2a9.85,9.85,0,0,0,.38-2.74,3.38,3.38,0,0,0-3.65-3.17c-3,0-6.82,3.17-8.11,8.79l-2.21,9.6h-2.5Z" fill="#616161"/><path d="M118.42,92.16a10.18,10.18,0,0,1,.38-2.21l2.06-7.15a10.27,10.27,0,0,0,.48-2.74,3.23,3.23,0,0,0-3.5-3.17c-3,0-6.77,3.12-8.21,8.79l-2.4,9.6h-2.5l4.51-18h-3.84l.58-2.21h6.19L110.93,80c2-3.17,4.42-5.23,7.3-5.23,3.36,0,5.66,2.26,5.66,5.23a12.62,12.62,0,0,1-.58,3.17l-2.06,7.06a9.33,9.33,0,0,0-.34,2,1.46,1.46,0,0,0,1.49,1.58c1.06,0,1.87-1,2.78-3.17l1.49.48c-1,2.83-2.4,4.51-4.61,4.51A3.4,3.4,0,0,1,118.42,92.16Z" fill="#616161"/><path d="M131.14,92.16a9.79,9.79,0,0,1,.38-2.16l3.55-12.67h-4l.58-2.21h6.58L134,90.24a9,9,0,0,0-.34,1.92,1.46,1.46,0,0,0,1.49,1.58c1.06,0,1.87-1,2.78-3.17l1.49.48c-1,2.83-2.4,4.51-4.61,4.51A3.4,3.4,0,0,1,131.14,92.16Zm4.42-23.57a2,2,0,1,1,2.06,2.11A2.09,2.09,0,0,1,135.56,68.59Z" fill="#616161"/><path d="M143.67,87.22c0-6.86,5.14-12.48,10.94-12.48a6.41,6.41,0,0,1,6.67,5.14l1.15-4.75h2.5l-6.38,27.36h4.37l-.53,2.21h-6.91l3.12-13.15a9.37,9.37,0,0,1-7.3,4.13C146.93,95.67,143.67,92.4,143.67,87.22Zm16.71-4.08c0-3.6-2-6.14-5.62-6.14-4.85,0-8.4,4.94-8.4,10.18,0,3.74,2,6.24,5.47,6.24C157.06,93.41,160.37,87.65,160.37,83.14Z" fill="#616161"/><path d="M176.31,75.12,172.9,88.18a9.73,9.73,0,0,0-.34,2.45c0,1.63,1.3,2.88,3.36,2.88,3,0,6.82-3.22,8.21-8.78l2.4-9.6H189l-3.79,15.12a10,10,0,0,0-.34,1.92,1.46,1.46,0,0,0,1.49,1.58c1.06,0,1.87-1,2.78-3.17l1.49.48c-1,2.83-2.4,4.51-4.61,4.51a3.21,3.21,0,0,1-3.46-3.41,8.69,8.69,0,0,1,.24-1.73c-1.78,2.93-4.22,5.23-7.3,5.23s-5.52-2-5.52-4.94a11.28,11.28,0,0,1,.43-2.74l2.78-10.66H169.4l.58-2.21Z" fill="#616161"/><path d="M196.8,85.87a11.73,11.73,0,0,0,0,1.3c0,4.18,3.41,6.29,6.82,6.29a12.58,12.58,0,0,0,6.62-1.87l-.58,2.59a13,13,0,0,1-6.48,1.49c-4.66,0-8.88-3-8.88-8.45,0-6.82,5.33-12.48,11.28-12.48,4.56,0,7.34,2.88,7.34,7.15a11.57,11.57,0,0,1-.82,4Zm.48-2.11h12.87a7.49,7.49,0,0,0,.38-2.3c0-2.26-1.54-4.46-5.18-4.46S198.53,79.87,197.28,83.76Z" fill="#616161"/><path d="M217.3,93a3.37,3.37,0,0,1-1.1-2.35,2.15,2.15,0,0,1,2-2.26A1.67,1.67,0,0,1,220,90.15a2.28,2.28,0,0,1-.77,1.68,3.38,3.38,0,0,0,.86.67,9.14,9.14,0,0,0,4.37,1.06c2.4,0,4.27-1.3,4.27-3.31s-1.92-3.07-4.08-4.13c-3.07-1.54-5.66-2.88-5.66-5.81,0-3.22,2.78-5.57,7-5.57a8.62,8.62,0,0,1,6,2.11A3.2,3.2,0,0,1,233,79.2a2,2,0,0,1-1.92,2.21,1.72,1.72,0,0,1-1.82-1.73,2.81,2.81,0,0,1,.62-1.68,2.48,2.48,0,0,0-.82-.53,8.53,8.53,0,0,0-3.36-.62c-2.69,0-4.27,1.39-4.27,3.07s1.82,2.74,4.22,3.94c2.93,1.44,5.52,2.93,5.52,6,0,3.79-3.36,5.81-7,5.81A10.15,10.15,0,0,1,217.3,93Z" fill="#616161"/><path d="M246.68,87.31c0-6.86,5-12.58,10.8-12.58,3.65,0,6,2,6.62,5.23l1.2-5.09h2.5l-3.74,15.36a10.08,10.08,0,0,0-.34,1.92,1.46,1.46,0,0,0,1.49,1.58c1.06,0,1.87-1,2.78-3.17l1.49.48c-1,2.83-2.4,4.51-4.61,4.51a3.25,3.25,0,0,1-3.55-3.22v-.82c-1.78,2.35-4.27,4.13-7.2,4.13C249.75,95.67,246.68,92.5,246.68,87.31ZM263.14,83c0-3.6-1.92-6-5.57-6-4.85,0-8.21,5-8.21,10.27,0,3.74,1.82,6.14,5.28,6.14C259.88,93.41,263.14,87.55,263.14,83Z" fill="#616161"/><path d="M277.78,77.33h-3.84l.58-2.21h6.19l-1.34,5.47c2.69-3.7,4.94-5.86,6.82-5.86,1.58,0,2.45.91,2.45,2.11a2.34,2.34,0,0,1-2.26,2.35,2.08,2.08,0,0,1-2.11-1.63A15.23,15.23,0,0,0,278,86.45l-2.21,8.83h-2.5Z" fill="#616161"/><path d="M292.08,85.87a11.73,11.73,0,0,0,0,1.3c0,4.18,3.41,6.29,6.82,6.29a12.58,12.58,0,0,0,6.62-1.87l-.58,2.59a13,13,0,0,1-6.48,1.49c-4.66,0-8.88-3-8.88-8.45,0-6.82,5.33-12.48,11.28-12.48,4.56,0,7.34,2.88,7.34,7.15a11.57,11.57,0,0,1-.82,4Zm.48-2.11h12.87a7.49,7.49,0,0,0,.38-2.3c0-2.26-1.54-4.46-5.18-4.46S293.81,79.87,292.56,83.76Z" fill="#616161"/><path d="M329.33,77.33l-3.17,12.91a7.48,7.48,0,0,0-.24,1.73,1.58,1.58,0,0,0,1.68,1.49c1.1,0,2.4-.72,4.37-2L333,92.93c-2.35,1.73-4.08,2.74-6,2.74-2.26,0-3.79-1.44-3.79-3.36a10,10,0,0,1,.34-2.11l3.22-12.87h-3.55l.58-2.21h3.5l1.25-4.94,2.69-.77-1.44,5.71h6.24l-.58,2.21Z" fill="#616161"/><path d="M345,62.35h-3.84l.53-2.21h6.34l-4.61,19.44c1.54-2.5,3.94-4.85,7.06-4.85,3.36,0,5.81,2.26,5.86,5.23a12.4,12.4,0,0,1-.48,3.17L354,90.24a8.84,8.84,0,0,0-.29,1.92,1.46,1.46,0,0,0,1.49,1.58c1.06,0,1.87-1,2.74-3.17l1.49.48c-.91,2.83-2.3,4.51-4.51,4.51a3.44,3.44,0,0,1-3.7-3.41,9.92,9.92,0,0,1,.34-2.16l1.92-7.2a9.87,9.87,0,0,0,.38-2.74,3.38,3.38,0,0,0-3.65-3.17c-3,0-6.82,3.17-8.11,8.79l-2.21,9.6h-2.5Z" fill="#616161"/><path d="M365.19,85.87a11.73,11.73,0,0,0,0,1.3c0,4.18,3.41,6.29,6.82,6.29a12.58,12.58,0,0,0,6.62-1.87L378,94.18a13,13,0,0,1-6.48,1.49c-4.66,0-8.88-3-8.88-8.45,0-6.82,5.33-12.48,11.28-12.48,4.56,0,7.34,2.88,7.34,7.15a11.57,11.57,0,0,1-.82,4Zm.48-2.11h12.87a7.49,7.49,0,0,0,.38-2.3c0-2.26-1.54-4.46-5.18-4.46S366.91,79.87,365.67,83.76Z" fill="#616161"/><path d="M397.83,85.87a11.73,11.73,0,0,0,0,1.3c0,4.18,3.41,6.29,6.82,6.29a12.58,12.58,0,0,0,6.62-1.87l-.58,2.59a13,13,0,0,1-6.48,1.49c-4.66,0-8.88-3-8.88-8.45,0-6.82,5.33-12.48,11.28-12.48,4.56,0,7.34,2.88,7.34,7.15a11.57,11.57,0,0,1-.82,4Zm.48-2.11h12.87a7.49,7.49,0,0,0,.38-2.3c0-2.26-1.54-4.46-5.18-4.46S399.55,79.87,398.31,83.76Z" fill="#616161"/><path d="M431.71,92.16A10.18,10.18,0,0,1,432.1,90l2.06-7.15a10.27,10.27,0,0,0,.48-2.74,3.23,3.23,0,0,0-3.5-3.17c-3,0-6.77,3.12-8.21,8.79l-2.4,9.6H418l4.51-18H418.7l.58-2.21h6.19L424.22,80c2-3.17,4.42-5.23,7.3-5.23,3.36,0,5.66,2.26,5.66,5.23a12.64,12.64,0,0,1-.58,3.17l-2.06,7.06a9.33,9.33,0,0,0-.34,2,1.46,1.46,0,0,0,1.49,1.58c1.06,0,1.87-1,2.78-3.17l1.49.48c-1,2.83-2.4,4.51-4.61,4.51A3.4,3.4,0,0,1,431.71,92.16Z" fill="#616161"/><path d="M443,102.68a2.79,2.79,0,0,1-1-2.06,2.07,2.07,0,0,1,2.06-2.26,2,2,0,0,1,2,2.11,2.21,2.21,0,0,1-.43,1.3,8.16,8.16,0,0,0,4.22,1,6.59,6.59,0,0,0,5.09-1.92,11.24,11.24,0,0,0,2.64-5.42l1-4.32a8.47,8.47,0,0,1-7.25,4.18c-4.37,0-7.87-3.17-7.87-8.35,0-6.86,5.09-12.19,10.9-12.19,3.79,0,6.14,2.21,6.72,5.23l1.2-5.09h2.5l-4.85,20.88a12.85,12.85,0,0,1-3.17,6.53,9.38,9.38,0,0,1-7,2.59C447.07,104.88,444.1,103.73,443,102.68ZM460.13,83c0-3.7-2.11-6-5.76-6-4.85,0-8.21,4.66-8.21,9.89,0,3.74,2.21,6.14,5.66,6.14C456.91,93,460.13,87.7,460.13,83Z" fill="#616161"/><path d="M469.58,92.16A9.79,9.79,0,0,1,470,90l3.55-12.67h-4l.58-2.21h6.58l-4.22,15.12a9,9,0,0,0-.34,1.92,1.46,1.46,0,0,0,1.49,1.58c1.06,0,1.87-1,2.78-3.17l1.49.48c-1,2.83-2.4,4.51-4.61,4.51A3.4,3.4,0,0,1,469.58,92.16ZM474,68.59a2,2,0,1,1,2.06,2.11A2.09,2.09,0,0,1,474,68.59Z" fill="#616161"/><path d="M495.89,92.16a10.18,10.18,0,0,1,.38-2.21l2.06-7.15a10.27,10.27,0,0,0,.48-2.74,3.23,3.23,0,0,0-3.5-3.17c-3,0-6.77,3.12-8.21,8.79l-2.4,9.6h-2.5l4.51-18h-3.84l.58-2.21h6.19L488.4,80c2-3.17,4.42-5.23,7.3-5.23,3.36,0,5.66,2.26,5.66,5.23a12.64,12.64,0,0,1-.58,3.17l-2.06,7.06a9.33,9.33,0,0,0-.34,2,1.46,1.46,0,0,0,1.49,1.58c1.06,0,1.87-1,2.78-3.17l1.49.48c-1,2.83-2.4,4.51-4.61,4.51A3.4,3.4,0,0,1,495.89,92.16Z" fill="#616161"/><path d="M510,85.87a11.73,11.73,0,0,0,0,1.3c0,4.18,3.41,6.29,6.82,6.29a12.58,12.58,0,0,0,6.62-1.87l-.58,2.59a13,13,0,0,1-6.48,1.49c-4.66,0-8.88-3-8.88-8.45,0-6.82,5.33-12.48,11.28-12.48,4.56,0,7.34,2.88,7.34,7.15a11.57,11.57,0,0,1-.82,4Zm.48-2.11h12.87a7.49,7.49,0,0,0,.38-2.3c0-2.26-1.54-4.46-5.18-4.46S511.77,79.87,510.53,83.76Z" fill="#616161"/><path d="M525.21,100.71c3.6-1.58,5.38-4.18,5.52-5.42a2.52,2.52,0,0,1-2-2.4,2.39,2.39,0,0,1,2.45-2.4,2.69,2.69,0,0,1,2.59,2.88c0,2.93-2.35,6.48-8.06,8.4Z" fill="#616161"/><path d="M26.94,137.33l-3.17,12.91a7.48,7.48,0,0,0-.24,1.73,1.58,1.58,0,0,0,1.68,1.49c1.1,0,2.4-.72,4.37-2l1.06,1.49c-2.35,1.73-4.08,2.74-6,2.74-2.26,0-3.79-1.44-3.79-3.36a10,10,0,0,1,.34-2.11l3.22-12.87H20.89l.58-2.21H25l1.25-4.94,2.69-.77-1.44,5.71H33.7l-.58,2.21Z" fill="#616161"/><path d="M42.63,122.35H38.79l.53-2.21h6.34L41,139.59c1.54-2.5,3.94-4.85,7.06-4.85,3.36,0,5.81,2.26,5.86,5.23a12.4,12.4,0,0,1-.48,3.17l-1.92,7.1a8.84,8.84,0,0,0-.29,1.92,1.46,1.46,0,0,0,1.49,1.58c1.06,0,1.87-1,2.74-3.17l1.49.48c-.91,2.83-2.3,4.51-4.51,4.51a3.44,3.44,0,0,1-3.7-3.41,9.92,9.92,0,0,1,.34-2.16L51,142.8a9.85,9.85,0,0,0,.38-2.74,3.38,3.38,0,0,0-3.65-3.17c-3,0-6.82,3.17-8.11,8.79l-2.21,9.6H35Z" fill="#616161"/><path d="M62.79,145.87a11.73,11.73,0,0,0,0,1.3c0,4.18,3.41,6.29,6.82,6.29a12.58,12.58,0,0,0,6.62-1.87l-.58,2.59a13,13,0,0,1-6.48,1.49c-4.66,0-8.88-3-8.88-8.45,0-6.82,5.33-12.48,11.28-12.48,4.56,0,7.34,2.88,7.34,7.15a11.57,11.57,0,0,1-.82,4Zm.48-2.11H76.14a7.49,7.49,0,0,0,.38-2.3c0-2.26-1.54-4.46-5.18-4.46S64.52,139.87,63.27,143.76Z" fill="#616161"/><path d="M97.59,137.33H93.75l.58-2.21h6.19L99.22,140c2-3.17,4.46-5.23,7.2-5.23a4.84,4.84,0,0,1,5.23,5c2-3.07,4.61-5,7.25-5a5.09,5.09,0,0,1,5.33,5.23,12.62,12.62,0,0,1-.58,3.17l-2.06,7.06a9.33,9.33,0,0,0-.34,2,1.46,1.46,0,0,0,1.49,1.58c1.06,0,1.87-1,2.78-3.17l1.49.48c-1,2.83-2.4,4.51-4.61,4.51a3.4,3.4,0,0,1-3.65-3.41,10.18,10.18,0,0,1,.38-2.21l2.06-7.15a10.27,10.27,0,0,0,.48-2.74,3,3,0,0,0-3.17-3.17c-2.88,0-6.48,3.12-8,8.83l-2.5,9.55h-2.5l3.22-12.48a10.27,10.27,0,0,0,.48-2.74A3,3,0,0,0,106,136.9c-2.83,0-6.67,3.17-8.06,8.79l-2.4,9.6h-2.5Z" fill="#616161"/><path d="M132.92,145.87a11.73,11.73,0,0,0,0,1.3c0,4.18,3.41,6.29,6.82,6.29a12.58,12.58,0,0,0,6.62-1.87l-.58,2.59a13,13,0,0,1-6.48,1.49c-4.66,0-8.88-3-8.88-8.45,0-6.82,5.33-12.48,11.28-12.48,4.56,0,7.34,2.88,7.34,7.15a11.57,11.57,0,0,1-.82,4Zm.48-2.11h12.87a7.49,7.49,0,0,0,.38-2.3c0-2.26-1.54-4.46-5.18-4.46S134.65,139.87,133.4,143.76Z" fill="#616161"/><path d="M153,147.31c0-6.86,5-12.58,10.8-12.58,3.65,0,6,2,6.63,5.23l1.2-5.09h2.5l-3.74,15.36a10.08,10.08,0,0,0-.34,1.92,1.46,1.46,0,0,0,1.49,1.58c1.06,0,1.87-1,2.78-3.17l1.49.48c-1,2.83-2.4,4.51-4.61,4.51a3.25,3.25,0,0,1-3.55-3.22v-.82c-1.78,2.35-4.27,4.13-7.2,4.13C156.1,155.67,153,152.5,153,147.31ZM169.49,143c0-3.6-1.92-6-5.57-6-4.85,0-8.21,5-8.21,10.27,0,3.74,1.82,6.14,5.28,6.14C166.23,153.41,169.49,147.55,169.49,143Z" fill="#616161"/><path d="M193.3,152.16a10.18,10.18,0,0,1,.38-2.21l2.06-7.15a10.27,10.27,0,0,0,.48-2.74,3.23,3.23,0,0,0-3.5-3.17c-3,0-6.77,3.12-8.21,8.79l-2.4,9.6h-2.5l4.51-18h-3.84l.58-2.21h6.19L185.81,140c2-3.17,4.42-5.23,7.3-5.23,3.36,0,5.66,2.26,5.66,5.23a12.62,12.62,0,0,1-.58,3.17l-2.06,7.06a9.33,9.33,0,0,0-.34,2,1.46,1.46,0,0,0,1.49,1.58c1.06,0,1.87-1,2.78-3.17l1.49.48c-1,2.83-2.4,4.51-4.61,4.51A3.4,3.4,0,0,1,193.3,152.16Z" fill="#616161"/><path d="M205.4,153a3.37,3.37,0,0,1-1.1-2.35,2.15,2.15,0,0,1,2-2.26,1.67,1.67,0,0,1,1.78,1.73,2.28,2.28,0,0,1-.77,1.68,3.38,3.38,0,0,0,.86.67,9.14,9.14,0,0,0,4.37,1.06c2.4,0,4.27-1.3,4.27-3.31s-1.92-3.07-4.08-4.13c-3.07-1.54-5.66-2.88-5.66-5.81,0-3.22,2.78-5.57,7-5.57a8.62,8.62,0,0,1,6,2.11,3.2,3.2,0,0,1,1.1,2.35,2,2,0,0,1-1.92,2.21,1.72,1.72,0,0,1-1.82-1.73A2.81,2.81,0,0,1,218,138a2.48,2.48,0,0,0-.82-.53,8.53,8.53,0,0,0-3.36-.62c-2.69,0-4.27,1.39-4.27,3.07s1.82,2.74,4.22,3.94c2.93,1.44,5.52,2.93,5.52,6,0,3.79-3.36,5.81-7,5.81A10.15,10.15,0,0,1,205.4,153Z" fill="#616161"/><path d="M242,122.35h-3.84l.53-2.21H245L240.58,139c1.63-2.3,4-4.27,7.2-4.27,4.37,0,7.78,3.31,7.78,8.5,0,7.06-5.23,12.43-10.75,12.43a6.67,6.67,0,0,1-6.86-5.14l-1.15,4.75h-2.5Zm10.9,21.17c0-4-2.06-6.53-5.52-6.53-4.8,0-8.59,5.71-8.59,10.42a5.64,5.64,0,0,0,6,6C249.51,153.41,252.87,148.51,252.87,143.52Z" fill="#616161"/><path d="M253.06,162.48a2.09,2.09,0,0,1,2-2.16c1.2,0,1.92.86,2,2.21h.24c1.15,0,3.74-1.82,8.21-7.3l-3.6-17.91h-3.74l.53-2.21h5.47l3.22,17.71c3.84-5,7.68-10.42,8.35-13.63a2.58,2.58,0,0,1-2-2.4,2.13,2.13,0,0,1,2.16-2.06c1.3,0,2.35,1,2.35,2.83,0,3.5-2.93,8.21-10.32,17.62-6,7.73-9.22,9.7-12,9.7A2.72,2.72,0,0,1,253.06,162.48Z" fill="#616161"/><path d="M294.72,137.33H291l.58-2.21h5.28l1.2,16.32,8.26-13.68h.77l3.22,14.31c3.22-4.75,5.9-9.5,6.29-12.87a2.24,2.24,0,0,1-2-2.21,2.18,2.18,0,0,1,2.21-2.26,2.39,2.39,0,0,1,2.35,2.59c0,4.13-3.6,10.8-9.27,18.77h-.86L306,142l-8.74,14.11h-.91Z" fill="#616161"/><path d="M330.19,122.35h-3.84l.53-2.21h6.34l-4.61,19.44c1.54-2.5,3.94-4.85,7.06-4.85,3.36,0,5.81,2.26,5.86,5.23a12.4,12.4,0,0,1-.48,3.17l-1.92,7.1a8.84,8.84,0,0,0-.29,1.92,1.46,1.46,0,0,0,1.49,1.58c1.06,0,1.87-1,2.74-3.17l1.49.48c-.91,2.83-2.3,4.51-4.51,4.51a3.44,3.44,0,0,1-3.7-3.41,9.92,9.92,0,0,1,.34-2.16l1.92-7.2a9.85,9.85,0,0,0,.38-2.74,3.38,3.38,0,0,0-3.65-3.17c-3,0-6.82,3.17-8.11,8.79l-2.21,9.6h-2.5Z" fill="#616161"/><path d="M348.91,152.16a9.79,9.79,0,0,1,.38-2.16l3.55-12.67h-4l.58-2.21H356l-4.22,15.12a9,9,0,0,0-.34,1.92,1.46,1.46,0,0,0,1.49,1.58c1.06,0,1.87-1,2.78-3.17l1.49.48c-1,2.83-2.4,4.51-4.61,4.51A3.4,3.4,0,0,1,348.91,152.16Zm4.42-23.57a2,2,0,1,1,2.06,2.11A2.09,2.09,0,0,1,353.33,128.59Z" fill="#616161"/><path d="M361.39,147.12c0-6.29,5.09-12.39,11.33-12.39,5.09,0,7.2,3.07,7.2,5.09a2.38,2.38,0,0,1-2.26,2.5,1.6,1.6,0,0,1-1.63-1.78,1.89,1.89,0,0,1,1.1-1.58c-.77-1.25-2.16-2-4.46-2-4.75,0-8.74,4.9-8.74,10.08,0,3.7,2.4,6.34,6.53,6.34a9.93,9.93,0,0,0,6.67-2.88l-.14,2.64a11.13,11.13,0,0,1-7,2.5C365.19,155.67,361.39,152.45,361.39,147.12Z" fill="#616161"/><path d="M390.39,122.35h-3.84l.53-2.21h6.34l-4.61,19.44c1.54-2.5,3.94-4.85,7.06-4.85,3.36,0,5.81,2.26,5.86,5.23a12.4,12.4,0,0,1-.48,3.17l-1.92,7.1a8.84,8.84,0,0,0-.29,1.92,1.46,1.46,0,0,0,1.49,1.58c1.06,0,1.87-1,2.74-3.17l1.49.48c-.91,2.83-2.3,4.51-4.51,4.51a3.44,3.44,0,0,1-3.7-3.41,9.92,9.92,0,0,1,.34-2.16l1.92-7.2a9.87,9.87,0,0,0,.38-2.74,3.38,3.38,0,0,0-3.65-3.17c-3,0-6.82,3.17-8.11,8.79l-2.21,9.6h-2.5Z" fill="#616161"/><path d="M412.27,162.48a2.09,2.09,0,0,1,2-2.16c1.2,0,1.92.86,2,2.21h.24c1.15,0,3.74-1.82,8.21-7.3l-3.6-17.91h-3.74l.53-2.21h5.47l3.22,17.71c3.84-5,7.68-10.42,8.35-13.63a2.58,2.58,0,0,1-2-2.4,2.13,2.13,0,0,1,2.16-2.06c1.3,0,2.35,1,2.35,2.83,0,3.5-2.93,8.21-10.32,17.62-6,7.73-9.22,9.7-12,9.7A2.72,2.72,0,0,1,412.27,162.48Z" fill="#616161"/><path d="M440.4,147c0-6.38,4.94-12.29,11.42-12.29,5.33,0,8.45,3.94,8.45,8.64,0,6.38-4.94,12.29-11.42,12.29C443.52,155.67,440.4,151.73,440.4,147Zm17.33-3.7c0-3.84-2.59-6.34-6-6.34-4.9,0-8.74,4.7-8.74,10.08,0,3.84,2.59,6.34,6,6.34C453.89,153.41,457.73,148.71,457.73,143.33Z" fill="#616161"/><path d="M471.51,135.12l-3.41,13.06a9.73,9.73,0,0,0-.34,2.45c0,1.63,1.3,2.88,3.36,2.88,3,0,6.82-3.22,8.21-8.78l2.4-9.6h2.5l-3.79,15.12a10,10,0,0,0-.34,1.92,1.46,1.46,0,0,0,1.49,1.58c1.06,0,1.87-1,2.78-3.17l1.49.48c-1,2.83-2.4,4.51-4.61,4.51a3.21,3.21,0,0,1-3.46-3.41,8.69,8.69,0,0,1,.24-1.73c-1.78,2.93-4.22,5.23-7.3,5.23s-5.52-2-5.52-4.94a11.28,11.28,0,0,1,.43-2.74l2.78-10.66h-3.84l.58-2.21Z" fill="#616161"/><path d="M22.33,205.87a11.73,11.73,0,0,0,0,1.3c0,4.18,3.41,6.29,6.82,6.29a12.58,12.58,0,0,0,6.62-1.87l-.58,2.59a13,13,0,0,1-6.48,1.49c-4.66,0-8.88-3-8.88-8.45,0-6.82,5.33-12.48,11.28-12.48,4.56,0,7.34,2.88,7.34,7.15a11.57,11.57,0,0,1-.82,4Zm.48-2.11H35.67a7.49,7.49,0,0,0,.38-2.3c0-2.26-1.54-4.46-5.18-4.46S24.06,199.87,22.81,203.76Z" fill="#616161"/><path d="M40.23,213.31a2,2,0,0,1,4-.34c1.06-.34,2.06-1.68,3.84-4.08l3.17-4.32-2.78-7.25H44.36l.58-2.21h5.14l2.69,7.78,2.5-3.55c1.82-2.59,3.79-4.61,5.9-4.61,1.92,0,2.83,1.1,2.83,2.26a2.05,2.05,0,0,1-4.08.34c-.77.29-1.78,1.39-3.36,3.5l-2.88,3.94,2.45,5.9c1.1,2.69,1.63,3.07,2.26,3.07s1.49-.91,2.16-3.12l1.44.43c-.91,3.26-2.3,4.51-4,4.51-1.87,0-2.83-1.06-3.84-3.74l-2-5.42L49,211c-2.26,3.26-4,4.61-6.24,4.61A2.33,2.33,0,0,1,40.23,213.31Z" fill="#616161"/><path d="M62.55,222.48h3.12l6-25.15H67.88l.53-2.21H74.6L73.69,199c1.63-2.3,4-4.27,7.2-4.27,4.37,0,7.78,3.31,7.78,8.5,0,7.06-5.23,12.43-10.75,12.43a6.92,6.92,0,0,1-7-4.85l-2.74,11.67h4.42l-.53,2.21H62Zm23.43-19c0-4-2.06-6.53-5.52-6.53-4.8,0-8.59,5.66-8.59,10.37a5.68,5.68,0,0,0,6,6C82.62,213.41,86,208.51,86,203.52Z" fill="#616161"/><path d="M97.64,197.33H93.8l.58-2.21h6.19l-1.34,5.47c2.69-3.7,4.94-5.86,6.82-5.86,1.58,0,2.45.91,2.45,2.11a2.34,2.34,0,0,1-2.26,2.35,2.08,2.08,0,0,1-2.11-1.63,15.23,15.23,0,0,0-6.29,8.88l-2.21,8.83h-2.5Z" fill="#616161"/><path d="M111.94,205.87a11.73,11.73,0,0,0,0,1.3c0,4.18,3.41,6.29,6.82,6.29a12.58,12.58,0,0,0,6.62-1.87l-.58,2.59a13,13,0,0,1-6.48,1.49c-4.66,0-8.88-3-8.88-8.45,0-6.82,5.33-12.48,11.28-12.48,4.56,0,7.34,2.88,7.34,7.15a11.57,11.57,0,0,1-.82,4Zm.48-2.11h12.87a7.49,7.49,0,0,0,.38-2.3c0-2.26-1.54-4.46-5.18-4.46S113.67,199.87,112.42,203.76Z" fill="#616161"/><path d="M132.44,213a3.37,3.37,0,0,1-1.1-2.35,2.15,2.15,0,0,1,2-2.26,1.67,1.67,0,0,1,1.78,1.73,2.28,2.28,0,0,1-.77,1.68,3.38,3.38,0,0,0,.86.67,9.14,9.14,0,0,0,4.37,1.06c2.4,0,4.27-1.3,4.27-3.31s-1.92-3.07-4.08-4.13c-3.07-1.54-5.66-2.88-5.66-5.81,0-3.22,2.78-5.57,7-5.57a8.62,8.62,0,0,1,6,2.11,3.2,3.2,0,0,1,1.1,2.35,2,2,0,0,1-1.92,2.21,1.72,1.72,0,0,1-1.82-1.73,2.81,2.81,0,0,1,.62-1.68,2.48,2.48,0,0,0-.82-.53,8.53,8.53,0,0,0-3.36-.62c-2.69,0-4.27,1.39-4.27,3.07s1.82,2.74,4.22,3.94c2.93,1.44,5.52,2.93,5.52,6,0,3.79-3.36,5.81-7,5.81A10.15,10.15,0,0,1,132.44,213Z" fill="#616161"/><path d="M152.12,213a3.37,3.37,0,0,1-1.1-2.35,2.15,2.15,0,0,1,2-2.26,1.67,1.67,0,0,1,1.78,1.73,2.28,2.28,0,0,1-.77,1.68,3.38,3.38,0,0,0,.86.67,9.14,9.14,0,0,0,4.37,1.06c2.4,0,4.27-1.3,4.27-3.31s-1.92-3.07-4.08-4.13c-3.07-1.54-5.66-2.88-5.66-5.81,0-3.22,2.78-5.57,7-5.57a8.62,8.62,0,0,1,6,2.11,3.2,3.2,0,0,1,1.1,2.35,2,2,0,0,1-1.92,2.21,1.72,1.72,0,0,1-1.82-1.73,2.81,2.81,0,0,1,.62-1.68,2.48,2.48,0,0,0-.82-.53,8.53,8.53,0,0,0-3.36-.62c-2.69,0-4.27,1.39-4.27,3.07s1.82,2.74,4.22,3.94c2.93,1.44,5.52,2.93,5.52,6,0,3.79-3.36,5.81-7,5.81A10.15,10.15,0,0,1,152.12,213Z" fill="#616161"/><path d="M188.55,197.33l-3.17,12.91a7.48,7.48,0,0,0-.24,1.73,1.58,1.58,0,0,0,1.68,1.49c1.1,0,2.4-.72,4.37-2l1.06,1.49c-2.35,1.73-4.08,2.74-6,2.74-2.26,0-3.79-1.44-3.79-3.36a10,10,0,0,1,.34-2.11l3.22-12.87H182.5l.58-2.21h3.5l1.25-4.94,2.69-.77-1.44,5.71h6.24l-.58,2.21Z" fill="#616161"/><path d="M204.24,182.35H200.4l.53-2.21h6.34l-4.61,19.44c1.54-2.5,3.94-4.85,7.06-4.85,3.36,0,5.81,2.26,5.86,5.23a12.4,12.4,0,0,1-.48,3.17l-1.92,7.1a8.84,8.84,0,0,0-.29,1.92,1.46,1.46,0,0,0,1.49,1.58c1.06,0,1.87-1,2.74-3.17l1.49.48c-.91,2.83-2.3,4.51-4.51,4.51a3.44,3.44,0,0,1-3.7-3.41,9.92,9.92,0,0,1,.34-2.16l1.92-7.2a9.85,9.85,0,0,0,.38-2.74,3.38,3.38,0,0,0-3.65-3.17c-3,0-6.82,3.17-8.11,8.79l-2.21,9.6h-2.5Z" fill="#616161"/><path d="M222,207.31c0-6.86,5-12.58,10.8-12.58,3.65,0,6,2,6.63,5.23l1.2-5.09h2.5l-3.74,15.36a10.08,10.08,0,0,0-.34,1.92,1.46,1.46,0,0,0,1.49,1.58c1.06,0,1.87-1,2.78-3.17l1.49.48c-1,2.83-2.4,4.51-4.61,4.51a3.25,3.25,0,0,1-3.55-3.22v-.82c-1.78,2.35-4.27,4.13-7.2,4.13C225,215.67,222,212.5,222,207.31ZM238.42,203c0-3.6-1.92-6-5.57-6-4.85,0-8.21,5-8.21,10.27,0,3.74,1.82,6.14,5.28,6.14C235.16,213.41,238.42,207.55,238.42,203Z" fill="#616161"/><path d="M255.51,197.33l-3.17,12.91a7.48,7.48,0,0,0-.24,1.73,1.58,1.58,0,0,0,1.68,1.49c1.1,0,2.4-.72,4.37-2l1.06,1.49c-2.35,1.73-4.08,2.74-6,2.74-2.26,0-3.79-1.44-3.79-3.36a10,10,0,0,1,.34-2.11L253,197.33h-3.55l.58-2.21h3.5l1.25-4.94,2.69-.77L256,195.12h6.24l-.58,2.21Z" fill="#616161"/><path d="M281.14,197.33,278,210.24a7.48,7.48,0,0,0-.24,1.73,1.58,1.58,0,0,0,1.68,1.49c1.1,0,2.4-.72,4.37-2l1.06,1.49c-2.35,1.73-4.08,2.74-6,2.74-2.26,0-3.79-1.44-3.79-3.36a10,10,0,0,1,.34-2.11l3.22-12.87h-3.55l.58-2.21h3.5l1.25-4.94,2.69-.77-1.44,5.71h6.24l-.58,2.21Z" fill="#616161"/><path d="M289.63,207.31c0-6.86,5-12.58,10.8-12.58,3.65,0,6,2,6.63,5.23l1.2-5.09h2.5L307,210.24a10.08,10.08,0,0,0-.34,1.92,1.46,1.46,0,0,0,1.49,1.58c1.06,0,1.87-1,2.78-3.17l1.49.48c-1,2.83-2.4,4.51-4.61,4.51a3.25,3.25,0,0,1-3.55-3.22v-.82c-1.78,2.35-4.27,4.13-7.2,4.13C292.71,215.67,289.63,212.5,289.63,207.31ZM306.1,203c0-3.6-1.92-6-5.57-6-4.85,0-8.21,5-8.21,10.27,0,3.74,1.82,6.14,5.28,6.14C302.83,213.41,306.1,207.55,306.1,203Z" fill="#616161"/><path d="M316.61,212.16a12.53,12.53,0,0,1,.34-2l6.48-27.79h-3.79l.53-2.21h6.29l-7,30a15.78,15.78,0,0,0-.34,2,1.46,1.46,0,0,0,1.49,1.58c1.06,0,1.87-1,2.78-3.17l1.49.48c-1,2.83-2.4,4.51-4.61,4.51A3.4,3.4,0,0,1,316.61,212.16Z" fill="#616161"/><path d="M331.3,205.87a11.73,11.73,0,0,0,0,1.3c0,4.18,3.41,6.29,6.82,6.29a12.58,12.58,0,0,0,6.62-1.87l-.58,2.59a13,13,0,0,1-6.48,1.49c-4.66,0-8.88-3-8.88-8.45,0-6.82,5.33-12.48,11.28-12.48,4.56,0,7.34,2.88,7.34,7.15a11.57,11.57,0,0,1-.82,4Zm.48-2.11h12.87a7.49,7.49,0,0,0,.38-2.3c0-2.26-1.54-4.46-5.18-4.46S333,199.87,331.78,203.76Z" fill="#616161"/><path d="M365.19,212.16a10.18,10.18,0,0,1,.38-2.21l2.06-7.15a10.27,10.27,0,0,0,.48-2.74,3.23,3.23,0,0,0-3.5-3.17c-3,0-6.77,3.12-8.21,8.79l-2.4,9.6h-2.5l4.51-18h-3.84l.58-2.21h6.19L357.7,200c2-3.17,4.42-5.23,7.3-5.23,3.36,0,5.66,2.26,5.66,5.23a12.62,12.62,0,0,1-.58,3.17L368,210.19a9.33,9.33,0,0,0-.34,2,1.46,1.46,0,0,0,1.49,1.58c1.06,0,1.87-1,2.78-3.17l1.49.48c-1,2.83-2.4,4.51-4.61,4.51A3.4,3.4,0,0,1,365.19,212.16Z" fill="#616161"/><path d="M384,197.33l-3.17,12.91a7.48,7.48,0,0,0-.24,1.73,1.58,1.58,0,0,0,1.68,1.49c1.1,0,2.4-.72,4.37-2l1.06,1.49c-2.35,1.73-4.08,2.74-6,2.74-2.26,0-3.79-1.44-3.79-3.36a10,10,0,0,1,.34-2.11l3.22-12.87H377.9l.58-2.21H382l1.25-4.94,2.69-.77-1.44,5.71h6.24l-.58,2.21Z" fill="#616161"/><path d="M391.06,213.08a2.5,2.5,0,1,1,2.5,2.59A2.5,2.5,0,0,1,391.06,213.08Z" fill="#616161"/><path d="M399.79,193.87c3.65-2.11,5.14-4.66,5.47-6a2.56,2.56,0,0,1,.82-5,2.65,2.65,0,0,1,2.59,2.93c0,3.17-3.31,7-8.35,9.07Zm8.83,0c3.65-2.11,5.14-4.66,5.47-6a2.56,2.56,0,0,1,.82-5,2.65,2.65,0,0,1,2.59,2.93c0,3.17-3.31,7-8.35,9.07Z" fill="#616161"/><path d="M0,13.66c0-3.17,3.31-7,8.35-9.07l.53,1.06c-3.65,2.11-5.14,4.66-5.47,6a2.56,2.56,0,0,1-.82,5A2.65,2.65,0,0,1,0,13.66Zm8.83,0c0-3.17,3.31-7,8.35-9.07l.53,1.06c-3.65,2.11-5.14,4.66-5.47,6a2.56,2.56,0,0,1-.82,5A2.65,2.65,0,0,1,8.83,13.66Z" fill="#616161"/></svg>