<?xml version="1.0" encoding="utf-8"?>
<!-- Generator: Adobe Illustrator 21.0.2, SVG Export Plug-In . SVG Version: 6.00 Build 0)  -->
<svg version="1.1" id="Capa_1" xmlns="http://www.w3.org/2000/svg" xmlns:xlink="http://www.w3.org/1999/xlink" x="0px" y="0px"
	 viewBox="0 0 448 192" style="enable-background:new 0 0 448 192;" xml:space="preserve">
<path d="M448,96c0-53-43-96-96-96c-16.4,0-31.7,4.1-45.2,11.3L176,64H32C14.3,64,0,78.3,0,96s14.3,32,32,32h144l130.8,52.7
	c13.5,7.2,28.9,11.3,45.2,11.3C405,192,448,149,448,96z M432,96c0,11.7-37.7,24.5-72,24.5c-12.9,0-25.2-1-36.8-3.1L192,99.2v-6.3
	l131.3-18.2c11.5-2,23.8-3.1,36.7-3.1C394.3,71.5,432,84.3,432,96z M192,74.3l121.5-48.4l0.4-0.2l0.4-0.2C326,19.2,338.7,16,352,16
	c34.9,0,64.4,22.6,75.3,53.9c-18.5-9.7-45.9-14.4-67.3-14.4c-13.8,0-27.1,1.1-39.3,3.3L192,76.6V74.3z M32,112c-8.8,0-16-7.2-16-16
	s7.2-16,16-16h144v32H32z M314.3,166.6l-0.4-0.2l-0.4-0.2L192,117.7v-2.4l128.5,17.8c12.4,2.2,25.7,3.3,39.5,3.3
	c21.3,0,48.7-4.7,67.3-14.4C416.4,153.3,386.9,176,352,176C338.7,176,326,172.8,314.3,166.6z"/>
</svg>
